<svg width="350" height="227" viewBox="0 0 350 227" fill="none" xmlns="http://www.w3.org/2000/svg">
<path d="M202.79 194.876C203.651 194.39 204.618 194.128 205.604 194.111C206.591 194.095 207.566 194.326 208.442 194.783C209.318 195.24 210.067 195.909 210.622 196.73C211.177 197.55 211.521 198.497 211.623 199.484C208.014 199.484 204.477 198.64 202.79 194.876Z" fill="#F0ECFF"/>
<path d="M206.99 191.155C208.204 191.556 209.497 191.647 210.754 191.419C212.011 191.192 213.192 190.654 214.191 189.853C215.189 189.052 215.975 188.014 216.475 186.832C216.976 185.65 217.176 184.361 217.059 183.081C212.475 183.987 208.173 185.957 206.99 191.155Z" fill="#F0ECFF"/>
<path d="M191.279 197.299C191.352 197.262 191.427 197.232 191.505 197.209L192.165 196.986C192.737 196.799 193.566 196.526 194.584 196.17C196.624 195.451 199.422 194.43 202.445 193.111C203.949 192.446 205.364 191.77 206.636 191.123C207.908 190.476 209.019 189.836 209.941 189.271C210.666 188.833 211.367 188.353 212.038 187.834C212.51 187.474 212.753 187.219 212.753 187.233C212.706 187.299 212.652 187.359 212.592 187.413C212.43 187.582 212.26 187.741 212.081 187.891C211.423 188.439 210.73 188.943 210.005 189.397C209.094 189.98 207.976 190.62 206.711 191.288C205.446 191.957 204.024 192.629 202.513 193.298C199.494 194.621 196.682 195.634 194.631 196.31C193.605 196.652 192.769 196.903 192.191 197.069L191.522 197.259C191.443 197.283 191.362 197.296 191.279 197.299Z" fill="#A79FBE"/>
<path d="M207.434 196.99C207.434 197.019 206.998 196.724 206.28 196.332C205.342 195.826 204.351 195.425 203.325 195.138C202.296 194.858 201.239 194.695 200.174 194.653C199.359 194.621 198.848 194.653 198.848 194.624C198.964 194.59 199.084 194.571 199.205 194.567C199.529 194.532 199.855 194.517 200.181 194.52C202.349 194.53 204.476 195.115 206.348 196.217C206.63 196.381 206.902 196.563 207.162 196.76C207.264 196.823 207.355 196.9 207.434 196.99Z" fill="#A79FBE"/>
<path d="M122.302 180.829C121.865 182 121.725 183.263 121.894 184.503C122.062 185.743 122.534 186.921 123.268 187.932C124.001 188.942 124.973 189.754 126.095 190.293C127.218 190.832 128.456 191.082 129.698 191.02C129.012 186.498 127.283 182.198 122.302 180.829Z" fill="#F0ECFF"/>
<path d="M121.598 178.606C121.626 178.606 121.748 179.102 122.008 179.89C122.347 180.916 122.772 181.911 123.277 182.866C123.789 183.817 124.378 184.723 125.038 185.576C125.549 186.231 125.896 186.612 125.874 186.633C125.774 186.565 125.683 186.484 125.603 186.392C125.435 186.227 125.206 185.979 124.938 185.674C123.533 183.999 122.492 182.047 121.883 179.943C121.769 179.541 121.687 179.225 121.648 178.98C121.611 178.859 121.594 178.733 121.598 178.606Z" fill="#A79FBE"/>
<path d="M50.9001 90.1196C50.2216 91.9362 50.0032 93.8942 50.2645 95.8169C50.5258 97.7396 51.2585 99.5667 52.3967 101.133C53.5349 102.7 55.0428 103.957 56.7843 104.791C58.5259 105.626 60.4464 106.01 62.3727 105.911C61.3009 98.9017 58.6319 92.2513 50.9144 90.1196" fill="#F0ECFF"/>
<path d="M49.8079 86.6806C49.8805 86.8535 49.9367 87.0328 49.9758 87.2163C50.0687 87.5757 50.2152 88.0646 50.4117 88.6793C50.9301 90.2744 51.5852 91.8212 52.3696 93.3022C53.1601 94.7823 54.0783 96.1897 55.1136 97.5081C55.5138 98.0114 55.8282 98.414 56.0819 98.6836C56.2113 98.8197 56.3307 98.9651 56.4392 99.1186C56.2919 99.0033 56.1556 98.8745 56.0319 98.7339C55.7782 98.4751 55.4281 98.0869 55.0172 97.5908C52.8596 94.9881 51.2512 91.9707 50.2902 88.7225C50.108 88.1042 49.9794 87.5937 49.9079 87.2414C49.8614 87.0571 49.828 86.8697 49.8079 86.6806Z" fill="#A79FBE"/>
<path d="M62.9755 161.667C62.0059 162.452 61.2455 163.467 60.7628 164.621C60.2801 165.775 60.0903 167.032 60.2105 168.278C60.3306 169.524 60.7569 170.72 61.4511 171.76C62.1452 172.799 63.0853 173.648 64.1867 174.231C65.8839 169.985 66.5699 165.402 62.9755 161.667Z" fill="#F0ECFF"/>
<path d="M63.4876 159.397C63.5162 159.397 63.3697 159.904 63.1946 160.713C62.7321 162.83 62.6414 165.013 62.9267 167.162C63.0339 167.985 63.141 168.492 63.1089 168.499C63.0577 168.384 63.0205 168.263 62.9981 168.139C62.9374 167.913 62.8659 167.582 62.7945 167.172C62.4364 165.01 62.5289 162.797 63.066 160.673C63.1696 160.267 63.2697 159.954 63.3483 159.724C63.3821 159.61 63.4289 159.5 63.4876 159.397Z" fill="#A79FBE"/>
<path d="M129.281 70.7697C130.395 71.3276 131.629 71.5981 132.872 71.5569C134.115 71.5157 135.329 71.1641 136.404 70.5338C137.479 69.9035 138.381 69.0142 139.029 67.9459C139.677 66.8777 140.051 65.664 140.118 64.4141C135.573 64.6334 131.15 65.9239 129.281 70.7697Z" fill="#F0ECFF"/>
<path d="M127.011 71.2653C127.011 71.2366 127.519 71.1647 128.323 70.985C130.427 70.5222 132.436 69.6938 134.257 68.5369C134.972 68.0912 135.369 67.7856 135.386 67.818C135.311 67.9132 135.222 67.9968 135.122 68.066C134.943 68.217 134.672 68.4255 134.329 68.6555C132.529 69.8884 130.493 70.7296 128.351 71.1252C127.94 71.2006 127.608 71.2438 127.376 71.2653C127.255 71.2818 127.132 71.2818 127.011 71.2653Z" fill="#A79FBE"/>
<path d="M120.019 70.1202C121.623 69.7739 123.116 69.0316 124.364 67.9603C125.612 66.8889 126.576 65.5221 127.168 63.9829C127.761 62.4438 127.963 60.7805 127.758 59.1429C127.553 57.5052 126.946 55.9446 125.993 54.6016C121.491 58.5882 117.982 63.5885 120.019 70.1202Z" fill="#F0ECFF"/>
<path d="M118.072 72.4866C118.161 72.3576 118.261 72.2372 118.372 72.1271C118.576 71.9007 118.865 71.5628 119.208 71.1386C121.01 68.9241 122.405 66.4043 123.328 63.6974C123.507 63.1797 123.639 62.7556 123.725 62.4608C123.76 62.305 123.812 62.1532 123.878 62.0078C123.867 62.1676 123.839 62.3255 123.792 62.4788C123.732 62.7807 123.614 63.1977 123.435 63.7369C122.578 66.4904 121.169 69.0377 119.294 71.2213C118.937 71.6382 118.63 71.9654 118.408 72.1775C118.307 72.292 118.195 72.3956 118.072 72.4866Z" fill="#A79FBE"/>
<path d="M149.328 193.264C149.666 193.936 150.166 194.512 150.781 194.941C151.396 195.371 152.107 195.64 152.851 195.724C153.595 195.809 154.348 195.706 155.042 195.425C155.737 195.145 156.352 194.695 156.831 194.116C154.558 192.577 151.957 191.6 149.328 193.264Z" fill="#F0ECFF"/>
<path d="M148.062 192.672C148.898 193.045 149.757 193.362 150.635 193.621C151.527 193.82 152.432 193.957 153.343 194.031C153.077 194.09 152.803 194.107 152.532 194.081C151.216 194.036 149.927 193.704 148.752 193.107C148.501 192.998 148.269 192.851 148.062 192.672Z" fill="#A79FBE"/>
<path d="M182.449 64.1954C182.91 64.7898 183.511 65.2594 184.197 65.5619C184.883 65.8644 185.634 65.9903 186.381 65.9283C187.128 65.8662 187.847 65.6182 188.475 65.2065C189.103 64.7948 189.619 64.2323 189.977 63.5699C187.451 62.4915 184.714 62.0493 182.449 64.1954Z" fill="#F0ECFF"/>
<path d="M181.095 63.8654C182.87 64.3322 184.721 64.4359 186.537 64.1705C186.286 64.2766 186.021 64.3455 185.751 64.375C184.451 64.5877 183.121 64.513 181.853 64.1561C181.587 64.0982 181.332 64.0002 181.095 63.8654Z" fill="#A79FBE"/>
<path d="M268.283 75.2548C269.482 75.5866 270.743 75.6136 271.955 75.3334C273.166 75.0532 274.29 74.4745 275.224 73.6494C276.158 72.8242 276.874 71.7785 277.307 70.6062C277.74 69.4338 277.877 68.1716 277.705 66.9329C273.289 68.0113 269.194 70.143 268.283 75.2548Z" fill="#F0ECFF"/>
<path d="M266.149 76.1606C266.149 76.1318 266.624 75.9628 267.382 75.6321C269.359 74.7732 271.173 73.5737 272.741 72.0877C273.345 71.5161 273.688 71.1351 273.713 71.1566C273.654 71.2627 273.582 71.3606 273.499 71.4478C273.352 71.6311 273.141 71.8828 272.834 72.1668C271.301 73.7225 269.462 74.9395 267.435 75.74C267.049 75.891 266.721 76.0024 266.506 76.0635C266.392 76.1108 266.272 76.1434 266.149 76.1606Z" fill="#A79FBE"/>
<path d="M276.749 184.818C278.858 184.327 280.811 183.316 282.435 181.877C284.059 180.438 285.302 178.615 286.052 176.573C286.803 174.531 287.037 172.334 286.734 170.178C286.431 168.022 285.6 165.976 284.317 164.223C278.446 169.576 273.923 176.233 276.749 184.818Z" fill="#F0ECFF"/>
<path d="M274.216 187.981C274.338 187.808 274.472 187.645 274.617 187.492C274.885 187.19 275.26 186.74 275.706 186.176C276.153 185.612 276.667 184.918 277.2 184.127C277.732 183.336 278.272 182.434 278.797 181.463C279.322 180.493 279.751 179.536 280.119 178.652C280.487 177.768 280.776 176.959 280.994 176.269C281.212 175.579 281.377 175.018 281.48 174.626C281.525 174.42 281.587 174.218 281.666 174.022C281.643 174.232 281.605 174.44 281.552 174.644C281.469 175.043 281.323 175.611 281.119 176.308C280.916 177.006 280.633 177.825 280.28 178.72C279.926 179.616 279.479 180.572 278.961 181.553C278.467 182.47 277.926 183.362 277.343 184.224C276.796 185.015 276.271 185.701 275.81 186.259C275.349 186.816 274.952 187.254 274.67 187.542C274.531 187.7 274.379 187.847 274.216 187.981Z" fill="#A79FBE"/>
<path d="M228.237 139.496C225.982 126.825 215.167 115.771 202.415 114.714C195.466 114.146 188.481 116.349 181.56 115.508C175.695 114.772 170.297 111.909 166.379 107.456C160.662 100.914 158.729 91.6067 152.677 85.3805C144.338 76.7926 129.785 76.6596 119.638 82.9756C109.491 89.2916 103.356 100.691 100.548 112.356L100.437 115.904C99.8263 128.004 102.992 142.084 109.97 152.869C117.041 163.797 121.689 168.326 134.573 176.167C145.513 182.838 166.936 185.772 179.727 186.081C192.518 186.39 205.656 182.558 215.278 174.067C224.9 165.576 230.495 152.168 228.237 139.496Z" fill="#3B2A6F"/>
<g opacity="0.8">
<path d="M228.237 139.496C225.982 126.825 215.167 115.771 202.415 114.714C195.466 114.146 188.481 116.349 181.56 115.508C175.695 114.772 170.297 111.909 166.379 107.456C160.662 100.914 158.729 91.6067 152.677 85.3805C144.338 76.7926 129.785 76.6596 119.638 82.9756C109.491 89.2916 103.356 100.691 100.548 112.356L100.437 115.904C99.8263 128.004 102.992 142.084 109.97 152.869C117.041 163.797 121.689 168.326 134.573 176.167C145.513 182.838 166.936 185.772 179.727 186.081C192.518 186.39 205.656 182.558 215.278 174.067C224.9 165.576 230.495 152.168 228.237 139.496Z" fill="white"/>
</g>
<path d="M240.775 184.739C241.264 181.35 238.93 178.203 235.562 177.711C232.193 177.219 229.066 179.568 228.577 182.957C228.088 186.346 230.422 189.492 233.791 189.984C237.159 190.477 240.286 188.128 240.775 184.739Z" fill="#3B2A6F"/>
<path opacity="0.8" d="M240.775 184.739C241.264 181.35 238.93 178.203 235.562 177.711C232.193 177.219 229.066 179.568 228.577 182.957C228.088 186.346 230.422 189.492 233.791 189.984C237.159 190.477 240.286 188.128 240.775 184.739Z" fill="white"/>
<path d="M191.417 136.136C191.534 148.516 188.852 157.983 183.371 164.535C177.89 171.087 170.387 174.406 160.861 174.492C151.286 174.586 143.675 171.413 138.027 164.973C132.379 158.534 129.495 149.125 129.373 136.747L129.166 114.977C129.047 102.645 131.729 93.1783 137.212 86.5783C142.696 79.9783 150.224 76.6376 159.797 76.5561C169.325 76.4626 176.915 79.6584 182.567 86.1433C188.219 92.6283 191.103 102.036 191.217 114.366L191.417 136.136ZM175.4 112.08C175.321 104.284 173.972 98.5273 171.352 94.8103C168.731 91.0933 164.92 89.2576 159.918 89.3031C154.933 89.3511 151.171 91.2599 148.631 95.0296C146.092 98.7993 144.852 104.581 144.912 112.374L145.162 138.828C145.236 146.665 146.602 152.454 149.26 156.195C151.918 159.936 155.738 161.782 160.719 161.734C165.699 161.686 169.45 159.778 171.97 156.008C174.49 152.238 175.713 146.413 175.639 138.534L175.4 112.08Z" fill="#3B2A6F"/>
<g opacity="0.4">
<path d="M191.417 136.136C191.534 148.516 188.852 157.983 183.371 164.535C177.89 171.087 170.387 174.406 160.861 174.492C151.286 174.586 143.675 171.413 138.027 164.973C132.379 158.534 129.495 149.125 129.373 136.747L129.166 114.977C129.047 102.645 131.729 93.1783 137.212 86.5783C142.696 79.9783 150.224 76.6376 159.797 76.5561C169.325 76.4626 176.915 79.6584 182.567 86.1433C188.219 92.6283 191.103 102.036 191.217 114.366L191.417 136.136ZM175.4 112.08C175.321 104.284 173.972 98.5273 171.352 94.8103C168.731 91.0933 164.92 89.2576 159.918 89.3031C154.933 89.3511 151.171 91.2599 148.631 95.0296C146.092 98.7993 144.852 104.581 144.912 112.374L145.162 138.828C145.236 146.665 146.602 152.454 149.26 156.195C151.918 159.936 155.738 161.782 160.719 161.734C165.699 161.686 169.45 159.778 171.97 156.008C174.49 152.238 175.713 146.413 175.639 138.534L175.4 112.08Z" fill="black"/>
</g>
<path d="M200.512 136.052C200.631 148.43 197.949 157.896 192.466 164.45C186.982 171.005 179.479 174.324 169.956 174.408C160.381 174.501 152.769 171.327 147.122 164.885C141.474 158.444 138.593 149.032 138.479 136.652L138.272 114.882C138.153 102.55 140.835 93.0833 146.318 86.4833C151.801 79.8833 159.329 76.5414 168.902 76.4575C178.43 76.3688 186.02 79.5646 191.672 86.0448C197.325 92.5249 200.197 101.937 200.29 114.282L200.512 136.052ZM184.494 111.995C184.418 104.202 183.063 98.4503 180.428 94.7405C177.794 91.0307 173.983 89.195 168.995 89.2333C164.01 89.2836 160.247 91.1925 157.708 94.9598C155.169 98.7271 153.935 104.51 154.007 112.308L154.26 138.759C154.337 146.598 155.703 152.388 158.359 156.129C161.014 159.869 164.834 161.716 169.817 161.668C174.798 161.618 178.548 159.709 181.068 155.942C183.588 152.174 184.81 146.348 184.734 138.464L184.494 111.995Z" fill="#3B2A6F"/>
<path d="M138.319 116.175C138.337 116.222 136.226 117.067 133.603 118.059C130.981 119.051 128.833 119.799 128.833 119.766C128.833 119.734 130.927 118.875 133.55 117.883C136.172 116.89 138.301 116.125 138.319 116.175Z" fill="#3B2A6F"/>
<path d="M138.836 124.778C138.854 124.824 136.742 125.669 134.116 126.661C131.49 127.653 129.353 128.416 129.335 128.369C129.318 128.322 131.429 127.477 134.052 126.485C136.674 125.493 138.836 124.727 138.836 124.778Z" fill="#3B2A6F"/>
<path d="M139.369 133.38C139.387 133.427 137.275 134.272 134.649 135.264C132.023 136.256 129.904 137.018 129.868 136.971C129.833 136.925 131.962 136.08 134.585 135.088C137.207 134.096 139.351 133.33 139.369 133.38Z" fill="#3B2A6F"/>
<path d="M139.908 141.983C139.926 142.03 137.814 142.874 135.188 143.866C132.562 144.859 130.422 145.621 130.404 145.574C130.386 145.527 132.501 144.682 135.124 143.69C137.746 142.698 139.876 141.932 139.908 141.983Z" fill="#3B2A6F"/>
<path d="M140.421 150.586C140.318 150.653 140.208 150.707 140.093 150.748C139.878 150.842 139.564 150.971 139.178 151.126C138.399 151.438 137.324 151.845 136.13 152.308C134.937 152.772 133.851 153.157 133.061 153.437C132.668 153.577 132.347 153.689 132.125 153.761C132.011 153.809 131.891 153.84 131.768 153.854C131.87 153.787 131.981 153.732 132.097 153.692C132.311 153.599 132.622 153.469 133.011 153.333C133.787 153.02 134.866 152.614 136.059 152.15C137.252 151.686 138.338 151.298 139.128 151.021C139.521 150.881 139.843 150.77 140.064 150.698C140.177 150.643 140.297 150.605 140.421 150.586Z" fill="#3B2A6F"/>
<path d="M142.862 158.453C142.517 158.64 142.159 158.799 141.79 158.931C141.111 159.204 140.171 159.571 139.132 159.966C138.092 160.362 137.142 160.707 136.456 160.948C136.089 161.097 135.712 161.218 135.327 161.307C135.671 161.119 136.029 160.959 136.398 160.829C137.074 160.552 138.013 160.186 139.057 159.794C140.1 159.402 141.043 159.053 141.733 158.812C142.098 158.661 142.476 158.54 142.862 158.453Z" fill="#3B2A6F"/>
<path d="M148.086 165.672C147.778 165.844 147.457 165.989 147.125 166.107C146.521 166.351 145.696 166.678 144.76 167.03C143.823 167.383 142.973 167.688 142.373 167.9C142.046 168.033 141.709 168.138 141.365 168.213C141.672 168.039 141.994 167.894 142.326 167.778C142.927 167.534 143.756 167.207 144.692 166.854C145.628 166.502 146.478 166.196 147.078 165.981C147.404 165.848 147.742 165.744 148.086 165.672Z" fill="#3B2A6F"/>
<path d="M156.774 170.406C156.466 170.576 156.144 170.72 155.813 170.837C155.209 171.085 154.384 171.412 153.448 171.761C152.512 172.11 151.661 172.419 151.061 172.635C150.735 172.768 150.398 172.871 150.053 172.944C150.361 172.772 150.683 172.626 151.015 172.509C151.618 172.264 152.444 171.937 153.38 171.585C154.316 171.233 155.166 170.927 155.767 170.715C156.092 170.58 156.429 170.476 156.774 170.406Z" fill="#3B2A6F"/>
<path d="M182.969 152.05C182.991 152.097 180.279 153.369 176.913 154.893C173.548 156.418 170.8 157.611 170.779 157.564C170.757 157.518 173.469 156.245 176.853 154.721C180.236 153.197 182.948 152.003 182.969 152.05Z" fill="#3B2A6F"/>
<path d="M184.749 144.678C184.77 144.725 182.53 145.782 179.747 147.04C176.964 148.298 174.691 149.283 174.67 149.236C174.648 149.19 176.885 148.129 179.672 146.871C182.459 145.613 184.728 144.631 184.749 144.678Z" fill="#3B2A6F"/>
<path d="M185.567 136.401C185.588 136.447 183.348 137.504 180.564 138.762C177.781 140.021 175.509 141.006 175.487 140.959C175.466 140.912 177.703 139.852 180.489 138.593C183.276 137.335 185.545 136.336 185.567 136.401Z" fill="#3B2A6F"/>
<path d="M186.384 128.117C186.406 128.164 184.169 129.225 181.382 130.483C178.595 131.741 176.326 132.722 176.305 132.675C176.284 132.629 178.524 131.572 181.307 130.314C184.09 129.056 186.356 128.067 186.384 128.117Z" fill="#3B2A6F"/>
<path d="M187.208 119.838C187.226 119.885 184.99 120.945 182.206 122.203C179.423 123.461 177.151 124.443 177.129 124.396C177.108 124.349 179.348 123.292 182.131 122.031C184.915 120.769 187.187 119.798 187.208 119.838Z" fill="#3B2A6F"/>
<path d="M185.567 112.466C185.588 112.513 183.348 113.573 180.564 114.831C177.781 116.09 175.509 117.071 175.487 117.024C175.466 116.978 177.703 115.917 180.489 114.659C183.276 113.401 185.545 112.419 185.567 112.466Z" fill="#3B2A6F"/>
<path d="M185.567 104.528C185.588 104.575 183.348 105.635 180.564 106.894C177.781 108.152 175.509 109.133 175.487 109.086C175.466 109.04 177.703 107.979 180.489 106.721C183.276 105.463 185.545 104.481 185.567 104.528Z" fill="#3B2A6F"/>
<path d="M184.749 97.0571C184.77 97.1039 182.53 98.1607 179.747 99.4189C176.964 100.677 174.691 101.662 174.67 101.615C174.648 101.569 176.885 100.508 179.672 99.25C182.459 97.9918 184.728 97.0104 184.749 97.0571Z" fill="#3B2A6F"/>
<path d="M177.693 91.8477C176.712 92.3945 175.702 92.8865 174.667 93.3215C173.656 93.8123 172.62 94.2467 171.562 94.6228C172.542 94.0734 173.552 93.5813 174.588 93.149C175.599 92.6582 176.635 92.2238 177.693 91.8477Z" fill="#3B2A6F"/>
<path d="M173.921 88.6575C172.939 89.2013 171.928 89.6921 170.894 90.1277C169.884 90.6185 168.847 91.0529 167.79 91.429C168.771 90.8847 169.781 90.395 170.816 89.9624C171.826 89.4704 172.863 89.0347 173.921 88.6575Z" fill="#3B2A6F"/>
<path d="M138.724 105.749C138.742 105.795 136.63 106.64 134.008 107.632C131.385 108.625 129.241 109.39 129.224 109.34C129.206 109.29 131.317 108.448 133.943 107.456C136.569 106.464 138.706 105.702 138.724 105.749Z" fill="#3B2A6F"/>
<path d="M141.339 95.0195C141.36 95.0662 139.067 95.9757 136.226 97.0541C133.386 98.1326 131.06 98.9594 131.042 98.9126C131.024 98.8659 133.314 97.9528 136.158 96.878C139.002 95.8032 141.339 94.9692 141.339 95.0195Z" fill="#3B2A6F"/>
<path d="M148.222 84.4019C148.24 84.4523 145.335 85.5918 141.733 86.9542C138.132 88.3167 135.199 89.3807 135.181 89.334C135.163 89.2872 138.068 88.1405 141.669 86.7781C145.271 85.4157 148.204 84.3552 148.222 84.4019Z" fill="#3B2A6F"/>
<path d="M198.974 152.152L198.824 152.101L198.396 151.932C198.206 151.864 197.96 151.81 197.681 151.731C197.347 151.666 197.009 151.624 196.67 151.605C195.144 151.508 192.857 152.065 190.646 153.733C189.449 154.646 188.376 155.713 187.455 156.907C186.43 158.169 185.426 159.596 184.286 161.034C183.126 162.577 181.738 163.931 180.17 165.05C178.453 166.215 176.513 167.006 174.475 167.372C172.436 167.741 170.343 167.671 168.333 167.167C166.478 166.677 164.675 166.004 162.952 165.157C161.291 164.385 159.737 163.597 158.257 162.947C156.882 162.335 155.454 161.85 153.991 161.498C152.786 161.211 151.55 161.069 150.311 161.074C149.376 161.081 148.446 161.208 147.542 161.451C146.974 161.619 146.422 161.837 145.892 162.102L145.484 162.318C145.439 162.346 145.391 162.368 145.341 162.386L145.474 162.303L145.874 162.07C146.399 161.787 146.951 161.557 147.521 161.383C148.428 161.125 149.365 160.986 150.308 160.97C151.556 160.953 152.803 161.087 154.02 161.369C155.489 161.717 156.924 162.198 158.307 162.806C159.801 163.453 161.355 164.244 163.013 165.006C164.73 165.845 166.525 166.509 168.372 166.991C170.36 167.49 172.43 167.559 174.446 167.192C176.46 166.83 178.376 166.05 180.074 164.902C181.63 163.796 183.009 162.457 184.161 160.93C185.301 159.492 186.305 158.076 187.344 156.81C188.273 155.613 189.354 154.543 190.56 153.629C192.804 151.961 195.123 151.415 196.666 151.537C197.01 151.559 197.351 151.606 197.688 151.677C197.974 151.767 198.22 151.824 198.403 151.9L198.828 152.087L198.974 152.152Z" fill="white"/>
<path d="M201.226 128.177C201.226 128.195 200.973 128.228 200.529 128.375C199.913 128.602 199.332 128.915 198.804 129.306C198.125 129.784 197.375 130.453 196.514 131.143C195.563 131.889 194.534 132.526 193.444 133.045C191.467 133.998 189.324 134.555 187.135 134.684C186.717 134.72 186.334 134.709 186.002 134.716C185.67 134.723 185.384 134.695 185.152 134.677L184.612 134.623C184.55 134.622 184.489 134.611 184.43 134.59C184.492 134.582 184.554 134.582 184.616 134.59L185.155 134.608H186.002C186.334 134.59 186.717 134.608 187.124 134.551C189.29 134.383 191.406 133.813 193.366 132.872C194.442 132.357 195.463 131.731 196.41 131.003C197.278 130.327 198.032 129.662 198.732 129.205C199.278 128.816 199.881 128.516 200.519 128.314C200.692 128.264 200.869 128.226 201.048 128.199C201.106 128.182 201.166 128.175 201.226 128.177Z" fill="white"/>
<path d="M154.559 136.504C154.493 136.501 154.429 136.491 154.366 136.475C154.237 136.446 154.048 136.418 153.808 136.349C153.137 136.15 152.494 135.866 151.893 135.505C151.012 134.96 150.176 134.346 149.392 133.668C148.495 132.92 147.538 132.068 146.441 131.306C145.417 130.578 144.267 130.047 143.05 129.742C141.378 129.328 139.631 129.336 137.962 129.764C137.487 129.886 137.23 129.979 137.226 129.961C137.281 129.925 137.342 129.897 137.405 129.879C137.526 129.832 137.705 129.76 137.944 129.692C138.614 129.495 139.303 129.374 139.999 129.332C141.036 129.255 142.079 129.341 143.089 129.588C144.33 129.89 145.502 130.426 146.544 131.166C147.656 131.939 148.613 132.798 149.503 133.549C150.275 134.23 151.096 134.851 151.961 135.408C152.549 135.772 153.176 136.07 153.83 136.295C154.076 136.352 154.319 136.421 154.559 136.504Z" fill="white"/>
<path d="M154.62 102.524C154.428 102.614 154.228 102.687 154.024 102.743C153.789 102.826 153.551 102.897 153.309 102.955C153.027 103.027 152.709 103.124 152.348 103.189C151.987 103.254 151.598 103.344 151.169 103.397C150.74 103.451 150.286 103.502 149.804 103.545C148.756 103.612 147.705 103.598 146.66 103.505C145.615 103.4 144.579 103.216 143.562 102.955C143.098 102.822 142.651 102.7 142.247 102.553C141.843 102.405 141.465 102.269 141.129 102.128C140.793 101.988 140.493 101.841 140.228 101.719C139.964 101.596 139.746 101.478 139.568 101.377C139.378 101.282 139.197 101.173 139.024 101.05C139.222 101.123 139.414 101.211 139.6 101.312C139.782 101.402 140.007 101.514 140.271 101.625C140.536 101.737 140.836 101.88 141.179 102.003C141.522 102.125 141.893 102.279 142.297 102.405C142.701 102.531 143.14 102.661 143.605 102.786C145.626 103.299 147.713 103.497 149.793 103.372C150.272 103.333 150.726 103.308 151.151 103.243C151.576 103.178 151.966 103.124 152.323 103.06C152.68 102.995 152.998 102.916 153.28 102.855C153.563 102.794 153.806 102.729 153.995 102.675C154.199 102.61 154.408 102.559 154.62 102.524Z" fill="white"/>
<path d="M199.199 102.433C199.147 102.413 199.096 102.388 199.049 102.357L198.635 102.116C198.42 101.985 198.198 101.865 197.97 101.757C197.677 101.598 197.375 101.455 197.066 101.329L196.53 101.103C196.341 101.027 196.141 100.97 195.934 100.898C195.526 100.747 195.073 100.642 194.597 100.517C192.52 100.041 190.365 100.023 188.28 100.463C187.827 100.559 187.378 100.679 186.937 100.822C186.73 100.89 186.526 100.944 186.337 101.016L185.797 101.232C185.487 101.354 185.183 101.492 184.886 101.645C184.656 101.751 184.433 101.871 184.218 102.005L183.796 102.238C183.7 102.289 183.646 102.314 183.643 102.307C183.683 102.267 183.729 102.234 183.779 102.206L184.179 101.94C184.39 101.798 184.611 101.671 184.84 101.559C185.133 101.393 185.436 101.246 185.747 101.117L186.287 100.887C186.476 100.811 186.683 100.754 186.891 100.682C187.335 100.531 187.787 100.405 188.245 100.304C190.353 99.8393 192.538 99.859 194.637 100.362C195.115 100.491 195.573 100.603 195.984 100.761C196.191 100.836 196.395 100.898 196.58 100.98L197.12 101.218C197.427 101.354 197.728 101.507 198.02 101.674C198.245 101.792 198.463 101.924 198.67 102.07L199.071 102.343C199.16 102.389 199.221 102.425 199.199 102.433Z" fill="white"/>
<path d="M177.355 78.0133C177.274 78.0744 177.188 78.1273 177.097 78.1714L176.354 78.5848C175.693 78.9443 174.736 79.444 173.535 80.0479C171.141 81.2378 167.779 82.8662 163.799 83.8799C161.928 84.3532 160.011 84.6208 158.082 84.678C156.508 84.7243 154.934 84.588 153.391 84.2718C152.351 84.0617 151.334 83.7499 150.354 83.3407C149.997 83.2041 149.75 83.0603 149.572 82.9813C149.479 82.9412 149.39 82.8943 149.304 82.8411C149.401 82.8665 149.496 82.9027 149.586 82.9489C149.772 83.0172 150.029 83.1502 150.383 83.276C151.366 83.657 152.381 83.9482 153.416 84.146C154.952 84.4412 156.516 84.5617 158.079 84.5054C159.992 84.4386 161.893 84.1675 163.749 83.6966C167.704 82.6901 171.07 81.0904 173.474 79.9293L176.333 78.5165L177.069 78.1355C177.161 78.0885 177.257 78.0477 177.355 78.0133Z" fill="white"/>
<path d="M105.631 140.649L117.575 141.174L117.022 153.91L105.077 153.385L104.159 174.548L88.4382 173.858L89.3565 152.695L48.8003 150.912L48.8324 141.206L92.0647 78.729L108.293 79.448L105.631 140.649ZM64.5426 138.852L89.9103 139.966L91.5824 101.365L91.2001 101.218L89.7709 103.968L64.5426 138.852Z" fill="#3B2A6F"/>
<g opacity="0.4">
<path d="M105.631 140.649L117.575 141.174L117.022 153.91L105.077 153.385L104.159 174.548L88.4382 173.858L89.3565 152.695L48.8003 150.912L48.8324 141.206L92.0647 78.729L108.293 79.448L105.631 140.649ZM64.5426 138.852L89.9103 139.966L91.5824 101.365L91.2001 101.218L89.7709 103.968L64.5426 138.852Z" fill="black"/>
</g>
<path d="M115.613 141.088L127.557 141.613L127.003 154.349L115.059 153.824L114.141 174.987L98.4198 174.297L99.3381 153.134L58.764 151.337L58.7962 141.631L102.036 79.1789L118.267 79.8979L115.613 141.088ZM74.5242 139.291L99.9097 140.405L101.582 101.804L101.2 101.657L99.7704 104.407L74.5242 139.291Z" fill="#3B2A6F"/>
<path d="M59.0145 143.497C58.8945 143.585 58.7651 143.658 58.6287 143.716C58.375 143.846 58.0034 144.026 57.5568 144.241C56.6386 144.676 55.3559 145.255 53.9231 145.866C52.4904 146.477 51.1863 146.995 50.2359 147.358C49.7607 147.538 49.3712 147.678 49.1033 147.771C48.9661 147.829 48.8237 147.872 48.6781 147.901C48.8034 147.82 48.9377 147.753 49.0783 147.703L50.1859 147.232L53.8374 145.683L57.4889 144.112L58.6001 143.637C58.7331 143.577 58.872 143.53 59.0145 143.497Z" fill="#3B2A6F"/>
<path d="M64.8326 132.741C64.6594 132.848 64.4792 132.942 64.2931 133.025C63.9358 133.197 63.4284 133.442 62.7925 133.743C61.5169 134.326 59.7483 135.106 57.7904 135.943C55.8324 136.781 54.021 137.496 52.7311 138.007C52.0809 138.266 51.5521 138.467 51.1805 138.6C50.9938 138.68 50.8 138.743 50.6017 138.787C50.7801 138.689 50.9652 138.604 51.1555 138.532L52.6811 137.885L57.7225 135.753L62.7532 133.596L64.2788 132.945C64.4566 132.86 64.6421 132.791 64.8326 132.741Z" fill="#3B2A6F"/>
<path d="M71.9314 123.133C71.7516 123.244 71.5627 123.34 71.3668 123.42C71.0095 123.593 70.4629 123.837 69.7983 124.139C68.4656 124.725 66.6184 125.505 64.5676 126.343C62.5167 127.18 60.6374 127.91 59.2832 128.424C58.6044 128.679 58.0506 128.881 57.6683 129.014C57.4731 129.094 57.271 129.157 57.0645 129.2C57.2517 129.103 57.445 129.018 57.6433 128.945L59.2368 128.298L64.4961 126.166L69.7447 124.01L71.3382 123.359C71.5298 123.268 71.7281 123.192 71.9314 123.133Z" fill="#3B2A6F"/>
<path d="M100.368 134.22C100.246 134.305 100.115 134.376 99.9783 134.432C99.7247 134.558 99.3531 134.73 98.8886 134.939C97.9668 135.359 96.6805 135.917 95.2478 136.502C93.815 137.088 92.5038 137.581 91.5534 137.94C91.0746 138.113 90.6888 138.25 90.4208 138.339C90.2831 138.392 90.1407 138.432 89.9956 138.458C90.12 138.38 90.2532 138.318 90.3922 138.271L91.5069 137.818L95.1799 136.337L98.8386 134.827L99.9497 134.371C100.083 134.305 100.223 134.255 100.368 134.22Z" fill="#3B2A6F"/>
<path d="M99.2113 153.968C99.0945 154.052 98.9687 154.123 98.8362 154.18C98.5896 154.302 98.2288 154.478 97.7821 154.686C96.8889 155.107 95.6384 155.664 94.2557 156.247C92.873 156.829 91.5939 157.325 90.6828 157.685C90.2183 157.857 89.8431 157.994 89.5823 158.08C89.449 158.136 89.31 158.177 89.1678 158.202C89.2889 158.124 89.4184 158.06 89.5537 158.012L90.6256 157.559L94.1985 156.081L97.7428 154.571L98.8147 154.119C98.9413 154.054 99.0742 154.004 99.2113 153.968Z" fill="#3B2A6F"/>
<path d="M99.045 160.893C98.9341 160.976 98.8143 161.046 98.6878 161.102C98.4412 161.228 98.0804 161.4 97.6159 161.612C96.7227 162.029 95.4721 162.586 94.0858 163.172C92.6996 163.758 91.4276 164.251 90.5129 164.61C90.052 164.783 89.6769 164.919 89.4125 165.009C89.2813 165.067 89.1431 165.107 89.0016 165.128C89.1238 165.053 89.2531 164.99 89.3875 164.941L90.4593 164.488L94.0323 163.011L97.5802 161.501L98.652 161.048C98.7762 160.98 98.9082 160.928 99.045 160.893Z" fill="#3B2A6F"/>
<path d="M98.8822 167.812C98.7704 167.894 98.6507 167.966 98.5249 168.024C98.2784 168.15 97.9175 168.323 97.453 168.531C96.5562 168.952 95.3093 169.509 93.923 170.091C92.5367 170.674 91.2648 171.17 90.3501 171.529C89.8892 171.702 89.5105 171.838 89.2496 171.924C89.1173 171.98 88.9796 172.021 88.8387 172.047C88.9597 171.969 89.0892 171.905 89.2246 171.856L90.2965 171.407L93.8694 169.926L97.4173 168.416L98.4892 167.963C98.6143 167.898 98.7461 167.848 98.8822 167.812Z" fill="#3B2A6F"/>
<path d="M100.554 126.906C100.431 126.989 100.3 127.06 100.164 127.118C99.9104 127.243 99.5388 127.416 99.0922 127.624C98.1704 128.045 96.8841 128.602 95.4514 129.188C94.0187 129.774 92.7074 130.267 91.757 130.626C91.2782 130.799 90.8924 130.935 90.6244 131.022C90.4871 131.076 90.3446 131.117 90.1992 131.144C90.3229 131.064 90.4562 131 90.5958 130.953L91.7106 130.5L95.3835 129.023L99.0422 127.513L100.153 127.06C100.281 126.994 100.415 126.943 100.554 126.906Z" fill="#3B2A6F"/>
<path d="M100.738 119.595C100.615 119.678 100.484 119.749 100.348 119.807C100.095 119.929 99.7229 120.105 99.2585 120.314C98.3367 120.734 97.0504 121.291 95.6177 121.874C94.1849 122.456 92.8772 122.952 91.9233 123.312C91.4445 123.484 91.0586 123.617 90.7907 123.707C90.6533 123.762 90.5109 123.803 90.3655 123.829C90.4902 123.749 90.6247 123.685 90.7656 123.639L91.8768 123.186L95.5498 121.708L99.2084 120.199L100.32 119.746C100.453 119.68 100.593 119.629 100.738 119.595Z" fill="#3B2A6F"/>
<path d="M100.926 112.284C100.813 112.363 100.694 112.43 100.568 112.485C100.329 112.604 99.9752 112.769 99.5357 112.97C98.6532 113.373 97.4313 113.909 96.0664 114.462C94.7016 115.016 93.451 115.494 92.5435 115.821C92.0898 115.983 91.7217 116.112 91.4716 116.181C91.3406 116.234 91.2039 116.273 91.0643 116.296C91.1843 116.22 91.3126 116.158 91.4466 116.112L92.5185 115.681L96.0164 114.275L99.5036 112.837L100.575 112.406C100.687 112.352 100.805 112.311 100.926 112.284Z" fill="#3B2A6F"/>
<path d="M101.748 105.45C101.178 105.761 100.579 106.017 99.9615 106.216C99.3634 106.472 98.7425 106.671 98.1072 106.809C98.6776 106.497 99.2757 106.24 99.8936 106.04C100.491 105.784 101.112 105.586 101.748 105.45Z" fill="#3B2A6F"/>
<path d="M79.0147 113.18C78.8345 113.289 78.6471 113.385 78.4537 113.468C78.0965 113.64 77.5498 113.881 76.8817 114.187C75.5525 114.773 73.7053 115.553 71.6509 116.39C69.5965 117.228 67.7207 117.961 66.3701 118.472C65.6913 118.727 65.1375 118.928 64.7552 119.061C64.5584 119.138 64.3567 119.202 64.1514 119.252C64.3366 119.149 64.5302 119.062 64.7302 118.993L66.3237 118.35L71.583 116.203L76.8316 114.047L78.4216 113.396C78.6143 113.311 78.8125 113.239 79.0147 113.18Z" fill="#3B2A6F"/>
<path d="M86.1051 103.228C85.9254 103.34 85.7365 103.436 85.5406 103.516C85.1833 103.688 84.6367 103.933 83.9721 104.235C82.643 104.817 80.7922 105.601 78.7414 106.435C76.6905 107.268 74.8112 108.005 73.4606 108.516C72.7782 108.775 72.2279 108.976 71.8421 109.109C71.6478 109.189 71.4469 109.251 71.2418 109.296C71.4271 109.197 71.6194 109.112 71.8171 109.041L73.4106 108.394L78.6699 106.262L83.9221 104.105L85.512 103.451C85.704 103.362 85.9023 103.287 86.1051 103.228Z" fill="#3B2A6F"/>
<path d="M92.6526 93.2791C92.4714 93.3883 92.2828 93.4844 92.0881 93.5667C91.7308 93.7392 91.1842 93.9801 90.5196 94.2857C89.1905 94.8716 87.3397 95.6517 85.2889 96.4892C83.238 97.3268 81.3586 98.0602 80.0081 98.5706C79.3292 98.8259 78.7754 99.0272 78.3931 99.1602C78.1964 99.2373 77.9946 99.301 77.7893 99.3507C77.9745 99.2479 78.1682 99.1613 78.3681 99.0919L79.9616 98.4484L85.221 96.3167L90.4696 94.1598L92.0595 93.5092C92.2501 93.4151 92.4486 93.3381 92.6526 93.2791Z" fill="#3B2A6F"/>
<path d="M99.4718 83.7086C99.29 83.8167 99.1014 83.9128 98.9072 83.9962C98.5499 84.1687 98.0033 84.4096 97.3387 84.7151C96.006 85.3011 94.1588 86.0811 92.108 86.9187C90.0571 87.7563 88.1778 88.4896 86.8236 89.0001C86.1448 89.2553 85.5946 89.4566 85.2087 89.5896C85.0123 89.668 84.8105 89.7317 84.6049 89.7802C84.7905 89.6783 84.9841 89.5917 85.1837 89.5213L86.7772 88.8779L92.0329 86.7282L97.2816 84.5713L98.8751 83.9207C99.0685 83.8353 99.2679 83.7644 99.4718 83.7086Z" fill="#3B2A6F"/>
<path d="M117.556 98.3265C117.497 98.4134 117.427 98.493 117.349 98.5638C117.147 98.7871 116.931 98.9972 116.703 99.1929C115.869 99.9249 114.934 100.53 113.926 100.99C112.424 101.67 110.8 102.036 109.153 102.069C108.179 102.087 107.208 101.977 106.262 101.742C105.253 101.482 104.275 101.114 103.343 100.645C101.421 99.7033 99.7133 98.5925 98.0448 97.8197C96.5823 97.0983 94.9906 96.6802 93.3642 96.5903C92.2685 96.5337 91.175 96.7395 90.1736 97.1906C89.9037 97.3179 89.6444 97.467 89.3983 97.6363C89.3143 97.6989 89.2259 97.7554 89.1339 97.8053C89.2101 97.7337 89.2913 97.6676 89.3769 97.6076C89.6168 97.4242 89.8727 97.2629 90.1415 97.1259C91.1437 96.6442 92.2472 96.4148 93.3571 96.4573C95.0064 96.536 96.6223 96.9531 98.1055 97.6831C99.7919 98.4559 101.507 99.5631 103.411 100.498C104.334 100.957 105.301 101.319 106.298 101.576C107.227 101.809 108.182 101.92 109.139 101.907C111.882 101.869 114.529 100.888 116.642 99.1282C116.945 98.8837 117.16 98.668 117.31 98.5278C117.387 98.4543 117.469 98.387 117.556 98.3265Z" fill="white"/>
<path d="M112.583 80.5559C112.439 80.6565 112.287 80.7454 112.129 80.8219C111.832 80.9837 111.389 81.1814 110.832 81.433C110.179 81.7094 109.511 81.9495 108.831 82.152C107.166 82.652 105.444 82.9347 103.708 82.9931C102.993 83.0194 102.277 83.005 101.564 82.95C100.96 82.9033 100.492 82.8457 100.135 82.7846C99.9605 82.765 99.7884 82.7301 99.6202 82.6804C99.7959 82.6742 99.9718 82.6851 100.145 82.7127C100.478 82.7523 100.964 82.7882 101.575 82.817C102.186 82.8457 102.893 82.8529 103.686 82.817C104.545 82.7741 105.402 82.6854 106.252 82.551C107.094 82.4053 107.929 82.2157 108.753 81.983C109.514 81.7601 110.182 81.5301 110.75 81.3072C111.318 81.0843 111.757 80.8938 112.065 80.7536C112.231 80.6712 112.404 80.605 112.583 80.5559Z" fill="white"/>
<path d="M87.2162 120.479C87.0984 120.37 86.9908 120.249 86.8946 120.12L86.0514 119.106C85.1103 118.004 84.1108 116.954 83.0573 115.961C82.4853 115.415 81.8564 114.933 81.1815 114.523C80.6295 114.19 80.0254 113.955 79.3951 113.825C78.8102 113.72 78.2114 113.72 77.6265 113.825C77.6265 113.825 77.6658 113.804 77.7444 113.779C77.8606 113.74 77.9803 113.712 78.1017 113.696C78.5404 113.622 78.9884 113.622 79.4272 113.696C80.0783 113.81 80.7038 114.04 81.2744 114.375C81.968 114.787 82.6119 115.278 83.1931 115.838C84.2542 116.834 85.2451 117.903 86.1586 119.038C86.5159 119.473 86.7803 119.836 86.9589 120.087C87.0583 120.209 87.1445 120.34 87.2162 120.479Z" fill="white"/>
<path d="M115.717 131.339C115.717 131.339 115.67 131.382 115.577 131.447C115.484 131.511 115.345 131.616 115.152 131.724C114.616 132.04 114.053 132.308 113.469 132.525C111.537 133.259 109.438 133.428 107.414 133.011C105.391 132.594 103.526 131.61 102.036 130.171C101.584 129.744 101.173 129.276 100.807 128.772C100.675 128.596 100.589 128.449 100.525 128.352C100.46 128.255 100.432 128.201 100.439 128.197C100.59 128.367 100.732 128.544 100.864 128.729C101.25 129.209 101.672 129.658 102.125 130.074C103.617 131.46 105.457 132.41 107.446 132.82C109.436 133.23 111.499 133.085 113.412 132.399C113.992 132.197 114.554 131.95 115.095 131.659C115.296 131.541 115.504 131.434 115.717 131.339Z" fill="white"/>
<path d="M126.125 154.1C126.125 154.1 126.09 154.047 126.025 153.932C125.961 153.816 125.861 153.651 125.739 153.435C125.381 152.796 124.972 152.187 124.517 151.613L124.032 151.038L123.771 150.725L123.467 150.427L122.824 149.787L122.074 149.161C120.875 148.203 119.553 147.414 118.143 146.814C116.442 146.09 114.629 145.665 112.784 145.559C110.661 145.445 108.537 145.788 106.556 146.566C104.466 147.393 102.448 148.64 100.311 149.848C99.2289 150.477 98.1084 151.036 96.956 151.523C95.7618 152.029 94.5023 152.362 93.2152 152.512C91.9272 152.642 90.6267 152.563 89.3636 152.278C88.141 152.007 86.9513 151.604 85.8157 151.074C83.6883 150.038 81.664 148.801 79.7703 147.378C77.9374 146.066 76.1974 144.797 74.4788 143.783C72.8988 142.81 71.186 142.074 69.3946 141.598C67.9101 141.23 66.373 141.128 64.8534 141.296C63.7061 141.416 62.5893 141.741 61.5556 142.256C60.9089 142.589 60.3083 143.006 59.7691 143.496L59.3547 143.884C59.2654 143.974 59.2153 144.017 59.2153 144.017C59.2153 144.017 59.2546 143.967 59.344 143.87L59.7334 143.449C60.2693 142.945 60.8702 142.516 61.5199 142.173C62.5586 141.641 63.6843 141.303 64.8427 141.174C66.3749 140.993 67.927 141.086 69.4267 141.45C71.2325 141.924 72.9606 142.657 74.5574 143.629C76.2974 144.643 78.0339 145.908 79.8703 147.224C81.757 148.635 83.7729 149.863 85.8907 150.89C87.0129 151.42 88.1895 151.824 89.3993 152.095C90.645 152.375 91.9272 152.452 93.1973 152.325C94.4644 152.177 95.7045 151.85 96.881 151.354C98.026 150.869 99.1404 150.315 100.218 149.693C102.362 148.489 104.377 147.238 106.485 146.408C107.005 146.202 107.537 146.029 108.079 145.89C108.346 145.822 108.611 145.739 108.875 145.685L109.676 145.552C110.704 145.398 111.746 145.35 112.784 145.408C114.651 145.52 116.485 145.956 118.204 146.695C119.615 147.31 120.937 148.112 122.134 149.082C122.392 149.301 122.642 149.517 122.885 149.718L123.524 150.369L123.824 150.671C123.914 150.779 124.003 150.883 124.085 150.987C124.257 151.192 124.417 151.386 124.568 151.573C125.019 152.153 125.419 152.772 125.764 153.421C125.881 153.642 125.97 153.81 126.032 153.928C126.1 154.039 126.125 154.1 126.125 154.1Z" fill="white"/>
<path d="M115.327 169.116C115.268 169.139 115.207 169.155 115.144 169.162L114.616 169.263C114.338 169.32 114.058 169.362 113.776 169.389C113.447 169.421 113.061 169.475 112.654 169.486L111.997 169.515C111.771 169.515 111.532 169.515 111.282 169.515C110.792 169.515 110.267 169.468 109.717 169.425C108.525 169.294 107.345 169.063 106.191 168.735C105.042 168.387 103.923 167.944 102.846 167.412C102.36 167.149 101.892 166.909 101.478 166.639C101.271 166.51 101.063 166.391 100.874 166.279L100.338 165.902C99.9809 165.668 99.7057 165.42 99.4449 165.212C99.2195 165.038 99.0036 164.852 98.7982 164.655C98.6446 164.504 98.5124 164.381 98.4088 164.295C98.3603 164.254 98.3171 164.207 98.2802 164.155C98.3355 164.186 98.3871 164.223 98.4338 164.266L98.8482 164.626C99.0233 164.777 99.2413 164.96 99.5092 165.154C99.7772 165.348 100.063 165.593 100.413 165.819L100.953 166.179C101.142 166.305 101.349 166.42 101.557 166.538C101.971 166.801 102.439 167.034 102.925 167.29C105.062 168.349 107.367 169.025 109.735 169.285C110.282 169.331 110.807 169.389 111.289 169.393C111.532 169.393 111.768 169.414 112.004 169.393H112.654C113.068 169.393 113.444 169.346 113.772 169.324C114.101 169.303 114.383 169.267 114.612 169.231L115.144 169.166C115.202 169.14 115.264 169.123 115.327 169.116Z" fill="white"/>
<path d="M260.788 140.797L272.686 139.629L273.919 152.315L262.021 153.487L264.068 174.567L248.419 176.109L246.382 155.029L205.951 159.005L204.626 149.396L238.693 81.4224L254.861 79.8299L260.788 140.797ZM219.85 144.827L245.135 142.339L241.398 103.875L240.998 103.786L239.976 106.712L219.85 144.827Z" fill="#3B2A6F"/>
<g opacity="0.4">
<path d="M260.788 140.797L272.686 139.629L273.919 152.315L262.021 153.487L264.068 174.567L248.419 176.109L246.382 155.029L205.951 159.005L204.626 149.396L238.693 81.4224L254.861 79.8299L260.788 140.797ZM219.85 144.827L245.135 142.339L241.398 103.875L240.998 103.786L239.976 106.712L219.85 144.827Z" fill="black"/>
</g>
<path d="M270.738 139.819L282.636 138.647L283.872 151.337L271.971 152.512L274.022 173.596L258.369 175.134L256.322 154.054L215.901 158.023L214.583 148.418L248.651 80.4441L264.818 78.8516L270.738 139.819ZM229.803 143.845L255.089 141.368L251.352 102.904L250.948 102.811L249.93 105.737L229.803 143.845Z" fill="#3B2A6F"/>
<path d="M215.033 150.215C214.923 150.317 214.803 150.407 214.675 150.485C214.443 150.65 214.1 150.88 213.675 151.16C212.821 151.721 211.635 152.476 210.302 153.281C208.969 154.087 207.751 154.788 206.858 155.28C206.415 155.524 206.05 155.722 205.786 155.852C205.658 155.928 205.523 155.99 205.382 156.039C205.491 155.94 205.611 155.856 205.739 155.787L206.772 155.165L210.188 153.12L213.582 151.049L214.614 150.423C214.745 150.338 214.886 150.268 215.033 150.215Z" fill="#3B2A6F"/>
<path d="M219.285 138.732C219.13 138.865 218.965 138.985 218.792 139.092C218.47 139.311 217.995 139.624 217.406 140.005C216.227 140.763 214.583 141.802 212.761 142.881C210.939 143.959 209.259 144.969 208.041 145.659C207.434 146.019 206.937 146.281 206.59 146.465C206.415 146.568 206.232 146.658 206.044 146.734C206.205 146.609 206.376 146.497 206.555 146.4L207.984 145.544L212.675 142.723L217.352 139.879L218.781 139.02C218.942 138.911 219.11 138.815 219.285 138.732Z" fill="#3B2A6F"/>
<path d="M224.972 128.225C224.809 128.358 224.636 128.478 224.454 128.584C224.097 128.807 223.618 129.123 223 129.508C221.764 130.274 220.041 131.305 218.126 132.427C216.211 133.548 214.464 134.537 213.189 135.256C212.553 135.615 212.034 135.885 211.674 136.072C211.49 136.176 211.299 136.266 211.102 136.342C211.272 136.217 211.451 136.105 211.638 136.007L213.124 135.141L218.033 132.287L222.932 129.411L224.415 128.541C224.592 128.421 224.778 128.316 224.972 128.225Z" fill="#3B2A6F"/>
<path d="M254.679 135.177C254.57 135.278 254.45 135.366 254.322 135.44C254.09 135.602 253.743 135.825 253.318 136.098C252.461 136.644 251.267 137.377 249.931 138.161C248.595 138.945 247.366 139.621 246.469 140.095C246.022 140.336 245.658 140.523 245.397 140.649C245.269 140.723 245.134 140.783 244.993 140.828C245.103 140.735 245.223 140.653 245.35 140.584L246.39 139.98L249.817 137.996L253.229 135.986L254.268 135.379C254.397 135.296 254.535 135.229 254.679 135.177Z" fill="#3B2A6F"/>
<path d="M256.292 154.891C256.184 154.993 256.064 155.081 255.935 155.154C255.71 155.312 255.378 155.535 254.963 155.808C254.138 156.347 252.984 157.077 251.69 157.853C250.397 158.63 249.207 159.291 248.339 159.773C247.907 160.01 247.553 160.197 247.306 160.323C247.183 160.397 247.051 160.456 246.913 160.499C247.024 160.406 247.144 160.326 247.271 160.258L248.275 159.658L251.594 157.692L254.895 155.693L255.899 155.092C256.022 155.01 256.154 154.942 256.292 154.891Z" fill="#3B2A6F"/>
<path d="M257.1 161.769C256.992 161.871 256.872 161.959 256.742 162.032C256.517 162.19 256.185 162.413 255.771 162.686C254.945 163.225 253.791 163.955 252.498 164.728C251.204 165.501 250.015 166.166 249.146 166.651C248.714 166.888 248.36 167.075 248.114 167.201C247.99 167.275 247.858 167.334 247.721 167.377C247.831 167.284 247.951 167.204 248.078 167.136L249.082 166.536L252.401 164.569L255.703 162.571L256.707 161.97C256.829 161.888 256.961 161.82 257.1 161.769Z" fill="#3B2A6F"/>
<path d="M257.9 168.647C257.792 168.749 257.672 168.837 257.543 168.91C257.318 169.068 256.986 169.291 256.571 169.56C255.746 170.103 254.592 170.833 253.298 171.606C252.005 172.378 250.815 173.044 249.947 173.529C249.515 173.766 249.161 173.953 248.915 174.079C248.79 174.151 248.658 174.21 248.521 174.255C248.632 174.162 248.752 174.082 248.879 174.014L249.883 173.414L253.202 171.447L256.503 169.449L257.507 168.848C257.63 168.766 257.762 168.698 257.9 168.647Z" fill="#3B2A6F"/>
<path d="M253.838 127.911C253.728 128.012 253.609 128.101 253.481 128.177C253.245 128.335 252.902 128.562 252.473 128.835C251.616 129.378 250.422 130.115 249.086 130.895C247.75 131.675 246.521 132.354 245.627 132.832C245.177 133.07 244.813 133.26 244.556 133.386C244.428 133.46 244.292 133.52 244.152 133.566C244.263 133.472 244.382 133.391 244.509 133.321L245.545 132.717L248.975 130.733L252.387 128.72L253.424 128.116C253.554 128.033 253.693 127.964 253.838 127.911Z" fill="#3B2A6F"/>
<path d="M253 120.644C252.891 120.746 252.772 120.836 252.643 120.91C252.407 121.069 252.064 121.292 251.635 121.565C250.781 122.111 249.588 122.848 248.248 123.628C246.908 124.408 245.686 125.088 244.79 125.566C244.343 125.803 243.979 125.993 243.718 126.119C243.591 126.195 243.455 126.254 243.314 126.295C243.424 126.202 243.544 126.121 243.671 126.055L244.707 125.447L248.137 123.466L251.55 121.453L252.586 120.846C252.717 120.765 252.856 120.697 253 120.644Z" fill="#3B2A6F"/>
<path d="M252.162 113.378C252.06 113.474 251.947 113.559 251.826 113.63C251.601 113.784 251.272 113.989 250.865 114.259C250.054 114.78 248.918 115.481 247.649 116.225C246.381 116.969 245.206 117.616 244.352 118.069L243.333 118.594C243.211 118.664 243.082 118.721 242.948 118.763C243.058 118.673 243.178 118.595 243.305 118.529L244.291 117.95L247.56 116.063L250.808 114.144L251.798 113.568C251.912 113.492 252.034 113.428 252.162 113.378Z" fill="#3B2A6F"/>
<path d="M252.019 106.5C251.497 106.891 250.94 107.23 250.354 107.514C249.796 107.851 249.209 108.136 248.599 108.366C249.121 107.975 249.678 107.635 250.264 107.352C250.822 107.014 251.409 106.729 252.019 106.5Z" fill="#3B2A6F"/>
<path d="M230.597 117.369C230.435 117.503 230.263 117.623 230.082 117.729C229.725 117.951 229.242 118.268 228.624 118.652C227.392 119.418 225.67 120.45 223.754 121.571C221.839 122.693 220.092 123.682 218.817 124.379C218.181 124.738 217.659 125.008 217.298 125.195C217.115 125.298 216.925 125.388 216.73 125.465C216.899 125.339 217.079 125.227 217.266 125.13L218.752 124.264L223.662 121.41L228.556 118.534L230.043 117.664C230.22 117.552 230.405 117.454 230.597 117.369Z" fill="#3B2A6F"/>
<path d="M236.225 106.5C236.062 106.633 235.889 106.753 235.707 106.859C235.35 107.082 234.871 107.399 234.253 107.783C233.017 108.549 231.294 109.581 229.383 110.702C227.471 111.824 225.717 112.812 224.442 113.51C223.806 113.869 223.288 114.139 222.927 114.326C222.743 114.43 222.552 114.52 222.355 114.595C222.525 114.471 222.704 114.359 222.891 114.261L224.377 113.395L229.286 110.54L234.185 107.665L235.671 106.795C235.848 106.682 236.033 106.584 236.225 106.5Z" fill="#3B2A6F"/>
<path d="M241.32 95.7331C241.157 95.8662 240.984 95.9864 240.802 96.0926C240.445 96.3154 239.966 96.6318 239.348 97.0164C238.112 97.7821 236.39 98.8138 234.475 99.9354C232.56 101.057 230.813 102.046 229.537 102.743C228.901 103.102 228.383 103.372 228.022 103.559C227.838 103.662 227.647 103.752 227.45 103.829C227.62 103.704 227.8 103.592 227.986 103.494L229.473 102.628L234.382 99.7736L239.28 96.8978L240.763 96.0279C240.941 95.9148 241.127 95.8163 241.32 95.7331Z" fill="#3B2A6F"/>
<path d="M246.738 85.29C246.575 85.4231 246.402 85.5433 246.22 85.6495C245.881 85.8724 245.384 86.1887 244.766 86.5734C243.53 87.3391 241.808 88.3708 239.893 89.4959C237.978 90.6211 236.231 91.6025 234.955 92.3034C234.319 92.6629 233.801 92.9289 233.44 93.1159C233.257 93.2211 233.065 93.3125 232.868 93.3891C233.037 93.2605 233.216 93.1474 233.404 93.0512L234.891 92.1884L239.8 89.3126L244.698 86.4368L246.181 85.5668C246.36 85.4609 246.546 85.3683 246.738 85.29Z" fill="#3B2A6F"/>
<path d="M266.678 97.2089C266.629 97.3014 266.572 97.3892 266.507 97.4713C266.338 97.7228 266.153 97.963 265.953 98.1903C265.23 99.0361 264.387 99.7702 263.452 100.369C262.062 101.261 260.506 101.861 258.878 102.13C257.918 102.285 256.941 102.313 255.974 102.213C254.938 102.098 253.918 101.873 252.93 101.541C250.893 100.883 249.049 100.024 247.288 99.4916C245.739 98.9904 244.107 98.8058 242.486 98.9488C241.393 99.0491 240.339 99.4075 239.41 99.9949C239.158 100.16 238.919 100.344 238.695 100.545C238.623 100.621 238.544 100.689 238.459 100.75C238.523 100.667 238.593 100.59 238.67 100.52C238.882 100.304 239.113 100.108 239.36 99.9338C240.288 99.3141 241.352 98.9316 242.461 98.8194C244.104 98.6458 245.765 98.8121 247.341 99.3083C249.128 99.8367 250.972 100.689 252.987 101.347C253.964 101.673 254.972 101.897 255.995 102.015C256.947 102.113 257.908 102.088 258.853 101.94C260.46 101.683 261.999 101.104 263.38 100.239C264.307 99.6543 265.149 98.9429 265.881 98.1256C266.085 97.9061 266.277 97.6757 266.457 97.4354C266.525 97.3547 266.599 97.279 266.678 97.2089Z" fill="white"/>
<path d="M259.27 80.3173C259.143 80.4386 259.005 80.5481 258.859 80.6444C258.587 80.8493 258.18 81.1189 257.662 81.4317C257.054 81.7981 256.427 82.1305 255.782 82.4274C254.991 82.7872 254.18 83.1004 253.353 83.3657C252.522 83.6227 251.678 83.8303 250.823 83.9876C250.125 84.1105 249.422 84.1969 248.715 84.2464C248.111 84.2859 247.622 84.2931 247.286 84.2823C247.11 84.2898 246.934 84.2789 246.761 84.25C246.933 84.2204 247.108 84.2072 247.282 84.2104C247.618 84.2104 248.104 84.1673 248.712 84.1134C249.319 84.0595 250.019 83.9624 250.798 83.8186C251.642 83.6517 252.477 83.4417 253.299 83.1895C254.12 82.9263 254.926 82.6191 255.714 82.2693C256.429 81.9421 257.076 81.6186 257.597 81.3166C258.119 81.0147 258.537 80.7666 258.819 80.5977C258.961 80.4912 259.112 80.3974 259.27 80.3173Z" fill="white"/>
<path d="M239.735 123.434C239.607 123.339 239.487 123.233 239.378 123.117L238.399 122.237C237.314 121.278 236.179 120.379 234.997 119.544C234.354 119.079 233.663 118.687 232.936 118.372C232.343 118.122 231.712 117.975 231.071 117.937C230.477 117.912 229.883 117.993 229.316 118.175C229.316 118.175 229.352 118.146 229.427 118.11C229.536 118.058 229.648 118.015 229.763 117.981C230.188 117.848 230.633 117.789 231.078 117.804C231.738 117.825 232.389 117.964 233 118.214C233.743 118.523 234.448 118.917 235.101 119.39C236.292 120.227 237.424 121.145 238.488 122.14C238.895 122.521 239.203 122.859 239.428 123.067C239.544 123.177 239.647 123.3 239.735 123.434Z" fill="white"/>
<path d="M269.469 130.155C269.469 130.155 269.433 130.202 269.347 130.281C269.262 130.36 269.14 130.478 268.965 130.611C268.482 131.003 267.964 131.348 267.418 131.643C265.608 132.638 263.555 133.099 261.497 132.971C259.438 132.844 257.457 132.135 255.781 130.924C255.276 130.565 254.804 130.16 254.373 129.713C254.216 129.558 254.109 129.425 254.016 129.353C253.973 129.311 253.937 129.262 253.909 129.21C253.909 129.21 254.087 129.375 254.405 129.677C254.851 130.098 255.329 130.484 255.835 130.831C257.503 131.995 259.457 132.678 261.484 132.805C263.511 132.931 265.533 132.497 267.332 131.55C267.878 131.267 268.401 130.943 268.897 130.579C269.08 130.427 269.271 130.285 269.469 130.155Z" fill="white"/>
<path d="M282.961 151.216C282.912 151.172 282.867 151.125 282.825 151.076C282.739 150.971 282.625 150.82 282.467 150.626C282.022 150.045 281.532 149.499 281.003 148.994L280.438 148.491L280.138 148.221L279.781 147.966L279.066 147.427L278.234 146.913C276.917 146.134 275.501 145.539 274.025 145.144C272.236 144.664 270.378 144.496 268.533 144.648C266.415 144.836 264.361 145.477 262.509 146.528C260.555 147.643 258.733 149.163 256.793 150.662C255.808 151.436 254.777 152.148 253.706 152.794C252.591 153.464 251.388 153.971 250.133 154.3C248.875 154.609 247.576 154.714 246.285 154.613C245.034 154.509 243.799 154.268 242.601 153.894C240.35 153.172 238.174 152.235 236.102 151.093C234.101 150.051 232.211 149.044 230.36 148.286C228.652 147.549 226.847 147.064 225.001 146.848C223.479 146.699 221.943 146.821 220.463 147.208C219.344 147.488 218.284 147.968 217.333 148.624C216.737 149.047 216.197 149.545 215.725 150.105L215.386 150.565C215.307 150.669 215.265 150.72 215.265 150.72C215.265 150.72 215.297 150.662 215.368 150.554L215.697 150.083C216.157 149.507 216.693 148.997 217.29 148.566C218.242 147.89 219.309 147.396 220.438 147.107C221.93 146.71 223.479 146.582 225.015 146.729C226.869 146.944 228.683 147.429 230.399 148.167C232.264 148.922 234.162 149.929 236.163 150.964C238.227 152.095 240.394 153.027 242.633 153.746C243.819 154.11 245.041 154.342 246.277 154.44C247.549 154.542 248.829 154.437 250.068 154.131C251.303 153.805 252.485 153.305 253.58 152.646C254.647 152.006 255.672 151.299 256.65 150.529C258.593 149.037 260.426 147.513 262.398 146.392C262.885 146.115 263.389 145.869 263.906 145.655C264.16 145.547 264.406 145.432 264.664 145.338L265.435 145.094C266.433 144.795 267.457 144.599 268.494 144.508C270.358 144.357 272.233 144.53 274.039 145.018C275.524 145.421 276.947 146.025 278.269 146.816L279.102 147.337L279.816 147.891L280.174 148.146L280.474 148.423L281.035 148.933C281.555 149.447 282.033 150.002 282.464 150.594C282.607 150.795 282.721 150.953 282.8 151.058L282.961 151.216Z" fill="white"/>
<path d="M274.364 167.61C274.309 167.639 274.252 167.663 274.192 167.681L273.685 167.858C273.417 167.951 273.146 168.032 272.87 168.098C272.545 168.177 272.184 168.285 271.77 168.354L271.127 168.476C270.901 168.515 270.666 168.537 270.412 168.569C269.926 168.641 269.401 168.666 268.847 168.702C267.653 168.739 266.458 168.677 265.274 168.519C264.088 168.338 262.919 168.057 261.78 167.678C261.258 167.491 260.762 167.318 260.315 167.11C260.09 167.009 259.868 166.923 259.665 166.822L259.082 166.524C258.704 166.341 258.386 166.136 258.1 165.967C257.854 165.826 257.615 165.673 257.385 165.507L256.946 165.194C256.892 165.161 256.843 165.121 256.799 165.075C256.859 165.096 256.915 165.125 256.967 165.161L257.424 165.445C257.617 165.571 257.86 165.722 258.139 165.877C258.418 166.031 258.746 166.236 259.125 166.405L259.711 166.689C259.915 166.79 260.136 166.873 260.361 166.97C260.808 167.167 261.301 167.329 261.819 167.516C262.961 167.881 264.131 168.153 265.317 168.328C266.495 168.489 267.684 168.555 268.872 168.526C269.419 168.494 269.944 168.479 270.423 168.411C270.662 168.382 270.898 168.364 271.137 168.328L271.78 168.221C272.191 168.163 272.552 168.062 272.877 167.994C273.202 167.926 273.474 167.85 273.696 167.782L274.214 167.642C274.262 167.626 274.313 167.615 274.364 167.61Z" fill="white"/>
<path d="M230.955 115.378C230.919 115.378 230.883 114.997 230.698 114.411C230.587 114.07 230.446 113.739 230.276 113.423C229.854 112.651 229.269 111.982 228.561 111.464C228.272 111.252 227.965 111.068 227.643 110.914C227.093 110.651 226.717 110.554 226.725 110.533C226.815 110.529 226.906 110.541 226.993 110.569C227.237 110.621 227.476 110.696 227.707 110.791C228.046 110.935 228.37 111.113 228.672 111.323C229.416 111.841 230.022 112.535 230.437 113.344C230.606 113.672 230.739 114.018 230.833 114.375C230.899 114.611 230.943 114.851 230.966 115.094C230.977 115.189 230.974 115.285 230.955 115.378Z" fill="#3B2A6F"/>
<path d="M257.067 191.333C257.374 190.661 257.839 190.075 258.421 189.624C259.003 189.173 259.686 188.871 260.41 188.745C261.134 188.618 261.878 188.671 262.577 188.899C263.276 189.126 263.91 189.521 264.424 190.05C263.671 191.272 262.501 192.177 261.133 192.595C260.411 192.851 259.625 192.867 258.893 192.639C258.161 192.412 257.521 191.954 257.067 191.333Z" fill="#3B2A6F"/>
<path d="M254.53 191.924C254.858 191.776 255.202 191.667 255.555 191.6C256.202 191.442 257.102 191.266 258.099 191.101C259.096 190.935 260.003 190.809 260.664 190.741C261.019 190.682 261.377 190.654 261.736 190.658C261.393 190.76 261.041 190.832 260.686 190.874L258.131 191.295C257.138 191.46 256.238 191.618 255.587 191.74C255.238 191.822 254.885 191.883 254.53 191.924Z" fill="#32245E"/>
<path d="M129.36 168.576C130.122 169.207 130.715 170.019 131.088 170.938C131.46 171.858 131.6 172.856 131.493 173.844C131.387 174.831 131.038 175.776 130.479 176.594C129.919 177.412 129.166 178.077 128.288 178.529C126.977 175.147 126.473 171.505 129.36 168.576Z" fill="#3B2A6F"/>
<path d="M134.329 171.17C134.4 172.453 134.786 173.697 135.453 174.792C136.12 175.887 137.047 176.798 138.15 177.443C139.254 178.087 140.5 178.446 141.776 178.486C143.051 178.527 144.317 178.247 145.459 177.673C142.958 173.719 139.574 170.387 134.329 171.163" fill="#3B2A6F"/>
<path d="M122.941 158.668C123.004 158.72 123.06 158.781 123.108 158.847L123.555 159.383C123.934 159.854 124.488 160.533 125.188 161.356C126.581 163.01 128.55 165.26 130.869 167.608C132.03 168.78 133.17 169.862 134.227 170.818C135.285 171.774 136.285 172.59 137.143 173.244C137.816 173.764 138.519 174.244 139.247 174.682C139.765 174.991 140.073 175.121 140.066 175.139C139.986 175.121 139.909 175.092 139.837 175.053C139.622 174.964 139.413 174.862 139.212 174.747C138.467 174.33 137.75 173.863 137.068 173.349C136.196 172.702 135.196 171.886 134.12 170.944C133.045 170.002 131.905 168.909 130.74 167.737C128.418 165.386 126.453 163.118 125.091 161.439C124.402 160.602 123.866 159.908 123.501 159.426L123.08 158.865C123.027 158.804 122.981 158.738 122.941 158.668Z" fill="#32245E"/>
<path d="M129.083 173.687C129.051 173.687 129.168 173.183 129.272 172.367C129.537 170.233 129.312 168.066 128.615 166.033C128.347 165.257 128.129 164.793 128.157 164.779C128.232 164.873 128.293 164.977 128.34 165.088C128.489 165.38 128.622 165.68 128.74 165.987C129.125 167.001 129.377 168.062 129.49 169.143C129.601 170.22 129.571 171.308 129.401 172.378C129.348 172.709 129.276 173.037 129.186 173.359C129.164 173.472 129.13 173.582 129.083 173.687Z" fill="#32245E"/>
<path d="M286.752 100.939C286.31 100.349 286.017 99.6594 285.898 98.93C285.78 98.2005 285.84 97.453 286.073 96.752C286.305 96.051 286.704 95.4176 287.235 94.9063C287.765 94.3951 288.412 94.0214 289.118 93.8176C289.831 95.0621 290.068 96.5255 289.786 97.9336C289.668 98.6957 289.309 99.3993 288.763 99.9404C288.216 100.482 287.512 100.832 286.752 100.939Z" fill="#3B2A6F"/>
<path d="M286.073 103.464C286.098 103.104 286.167 102.748 286.277 102.404C286.445 101.757 286.717 100.876 287.045 99.9127C287.374 98.9493 287.695 98.0866 287.938 97.4647C288.053 97.1222 288.199 96.7913 288.374 96.4761C288.299 96.8293 288.195 97.1756 288.063 97.5114C287.828 98.198 287.538 99.0392 287.22 99.9739C286.902 100.908 286.602 101.807 286.402 102.44C286.31 102.787 286.2 103.129 286.073 103.464Z" fill="#32245E"/>
<path d="M271.034 127.683C270.664 126.303 270.634 124.853 270.946 123.458C271.258 122.063 271.903 120.766 272.825 119.678C273.747 118.59 274.918 117.745 276.238 117.214C277.557 116.683 278.985 116.484 280.398 116.633C280.895 119.351 280.041 122.14 278.63 124.502C276.947 127.288 273.603 128.456 271.034 127.683Z" fill="#3B2A6F"/>
<path d="M260.46 138.325C260.505 138.255 260.556 138.19 260.613 138.13L261.074 137.602C261.485 137.149 262.086 136.502 262.832 135.711C264.333 134.129 266.427 131.969 268.756 129.6C271.086 127.231 273.204 125.092 274.748 123.557L276.584 121.742L277.092 121.257C277.206 121.149 277.27 121.091 277.278 121.098C277.23 121.166 277.176 121.228 277.117 121.285L276.634 121.796L274.848 123.647L268.888 129.729L262.929 135.805L261.142 137.652L260.656 138.156C260.598 138.219 260.532 138.276 260.46 138.325Z" fill="#32245E"/>
<g opacity="0.3">
<path d="M271.034 127.683C270.664 126.303 270.634 124.853 270.946 123.458C271.258 122.063 271.903 120.766 272.825 119.678C273.747 118.59 274.918 117.745 276.238 117.214C277.557 116.683 278.985 116.484 280.398 116.633C280.895 119.351 280.041 122.14 278.63 124.502C276.947 127.288 273.603 128.456 271.034 127.683Z" fill="black"/>
</g>
<path d="M266.134 128.751C265.356 128.352 264.686 127.768 264.184 127.049C263.681 126.331 263.361 125.499 263.251 124.627C263.14 123.756 263.244 122.87 263.551 122.047C263.859 121.225 264.362 120.491 265.016 119.908C266.445 120.807 267.36 122.342 267.835 123.967C268.4 125.886 267.549 127.921 266.134 128.751Z" fill="#3B2A6F"/>
<g opacity="0.3">
<path d="M266.134 128.751C265.356 128.352 264.686 127.768 264.184 127.049C263.681 126.331 263.361 125.499 263.251 124.627C263.14 123.756 263.244 122.87 263.551 122.047C263.859 121.225 264.362 120.491 265.016 119.908C266.445 120.807 267.36 122.342 267.835 123.967C268.4 125.886 267.549 127.921 266.134 128.751Z" fill="black"/>
</g>
<path d="M266.691 131.813C266.642 131.708 266.606 131.597 266.584 131.482C266.523 131.27 266.455 130.958 266.38 130.566C266.23 129.789 266.073 128.704 265.93 127.507C265.787 126.31 265.687 125.217 265.626 124.426C265.575 124.001 265.558 123.573 265.576 123.146C265.665 123.565 265.726 123.988 265.758 124.415C265.855 125.249 265.98 126.31 266.116 127.485C266.251 128.661 266.394 129.764 266.509 130.544C266.623 131.324 266.719 131.806 266.691 131.813Z" fill="#32245E"/>
<path d="M199.218 170.416C199.764 169.112 200.624 167.966 201.721 167.081C202.818 166.197 204.117 165.601 205.501 165.348C206.884 165.096 208.308 165.194 209.644 165.634C210.98 166.075 212.186 166.843 213.152 167.87C209.101 171.03 204.374 173.187 199.247 170.416" fill="#3B2A6F"/>
<g opacity="0.3">
<path d="M199.218 170.416C199.764 169.112 200.624 167.966 201.721 167.081C202.818 166.197 204.117 165.601 205.501 165.348C206.884 165.096 208.308 165.194 209.644 165.634C210.98 166.075 212.186 166.843 213.152 167.87C209.101 171.03 204.374 173.187 199.247 170.416" fill="black"/>
</g>
<path d="M196.942 171.681C197.038 171.584 197.146 171.5 197.263 171.43C197.478 171.275 197.796 171.07 198.203 170.833C200.326 169.598 202.68 168.816 205.116 168.536C205.581 168.485 205.96 168.46 206.221 168.457C206.356 168.438 206.493 168.438 206.628 168.457C206.628 168.485 206.053 168.521 205.131 168.658C203.932 168.835 202.749 169.114 201.597 169.492C200.448 169.874 199.334 170.355 198.267 170.93C197.431 171.39 196.96 171.706 196.942 171.681Z" fill="#32245E"/>
<path d="M105.045 123.575C106.026 123.114 107.106 122.906 108.186 122.97C109.267 123.033 110.315 123.366 111.237 123.938C112.158 124.51 112.923 125.304 113.464 126.248C114.005 127.191 114.304 128.255 114.335 129.344C110.386 129.05 106.567 127.831 105.045 123.575Z" fill="#3B2A6F"/>
<g opacity="0.3">
<path d="M105.045 123.575C106.026 123.114 107.106 122.906 108.186 122.97C109.267 123.033 110.315 123.366 111.237 123.938C112.158 124.51 112.923 125.304 113.464 126.248C114.005 127.191 114.304 128.255 114.335 129.344C110.386 129.05 106.567 127.831 105.045 123.575Z" fill="black"/>
</g>
<path d="M103.084 123.111C103.188 123.094 103.294 123.094 103.399 123.111C103.683 123.142 103.966 123.188 104.245 123.248C105.171 123.442 106.073 123.733 106.939 124.114C107.804 124.5 108.628 124.973 109.397 125.527C109.69 125.743 109.919 125.926 110.069 126.063C110.154 126.127 110.229 126.202 110.294 126.286C110.273 126.311 109.937 126.034 109.322 125.639C107.761 124.602 106.034 123.842 104.217 123.392C103.52 123.216 103.081 123.14 103.084 123.111Z" fill="#32245E"/>
<path d="M233.073 166.012C232.957 165.044 233.082 164.063 233.436 163.156C233.79 162.249 234.363 161.444 235.103 160.816C235.843 160.187 236.727 159.753 237.675 159.553C238.623 159.353 239.605 159.393 240.534 159.67C239.187 162.967 237.093 165.896 233.073 166.012Z" fill="#3B2A6F"/>
<path d="M232.132 167.561C232.241 167.225 232.391 166.904 232.579 166.605C233.422 165.122 234.568 163.835 235.941 162.83C236.216 162.611 236.518 162.426 236.838 162.28C236.576 162.513 236.301 162.732 236.016 162.935C234.704 163.981 233.578 165.244 232.686 166.67C232.519 166.977 232.334 167.275 232.132 167.561Z" fill="#32245E"/>
<path d="M261.189 147.337C260.894 146.409 260.833 145.422 261.011 144.464C261.19 143.506 261.602 142.608 262.211 141.851C262.82 141.093 263.607 140.5 264.501 140.124C265.394 139.748 266.367 139.602 267.33 139.698C266.616 143.193 265.115 146.464 261.189 147.337Z" fill="#3B2A6F"/>
<g opacity="0.3">
<path d="M261.189 147.337C260.894 146.409 260.833 145.422 261.011 144.464C261.19 143.506 261.602 142.608 262.211 141.851C262.82 141.093 263.607 140.5 264.501 140.124C265.394 139.748 266.367 139.602 267.33 139.698C266.616 143.193 265.115 146.464 261.189 147.337Z" fill="black"/>
</g>
<path d="M260.555 149.038C260.598 148.688 260.686 148.344 260.816 148.017C261.089 147.21 261.448 146.435 261.887 145.705C262.322 144.974 262.835 144.293 263.417 143.674C263.645 143.403 263.905 143.162 264.192 142.955C263.98 143.233 263.753 143.5 263.513 143.753C262.97 144.393 262.479 145.076 262.045 145.795C261.618 146.517 261.249 147.272 260.941 148.053C260.831 148.388 260.702 148.717 260.555 149.038Z" fill="#32245E"/>
<path d="M49.2549 121.631C49.4649 120.68 49.9069 119.796 50.5408 119.059C51.1748 118.322 51.981 117.755 52.8868 117.41C53.7925 117.064 54.7695 116.951 55.7297 117.08C56.6898 117.209 57.6031 117.576 58.3873 118.148C56.0291 120.804 53.085 122.868 49.2549 121.631Z" fill="#3B2A6F"/>
<path d="M47.8572 122.777C48.0721 122.498 48.3192 122.246 48.5932 122.025C49.2339 121.473 49.9309 120.991 50.6726 120.587C51.415 120.176 52.1997 119.847 53.0129 119.606C53.3439 119.489 53.6885 119.415 54.0383 119.387C53.7163 119.525 53.3871 119.645 53.0522 119.746C51.4689 120.293 49.9899 121.107 48.6789 122.155C48.4174 122.378 48.143 122.586 47.8572 122.777Z" fill="#32245E"/>
<path opacity="0.5" fill-rule="evenodd" clip-rule="evenodd" d="M208.505 64.363C205.967 64.363 203.903 66.5356 203.903 69.2063V76.7871C203.903 79.4578 205.967 81.6305 208.505 81.6305H215.707C218.245 81.6305 220.309 79.4578 220.309 76.7871V69.2063C220.309 66.5356 218.245 64.363 215.707 64.363H208.505Z" fill="#A79FBE"/>
<path opacity="0.5" fill-rule="evenodd" clip-rule="evenodd" d="M45.226 188.374C42.6885 188.374 40.6243 190.547 40.6243 193.218V200.799C40.6243 203.469 42.6885 205.642 45.226 205.642H52.4288C54.9662 205.642 57.0305 203.469 57.0305 200.799V193.218C57.0305 190.547 54.9662 188.374 52.4288 188.374H45.226Z" fill="#A79FBE"/>
<path opacity="0.5" fill-rule="evenodd" clip-rule="evenodd" d="M239.799 0C235.086 0 231.253 3.95012 231.253 8.80594V22.5893C231.253 27.4451 235.086 31.3954 239.799 31.3954H253.175C257.888 31.3954 261.721 27.445 261.721 22.5893V8.80594C261.721 3.95012 257.888 0 253.175 0H239.799Z" fill="#A79FBE"/>
<path fill-rule="evenodd" clip-rule="evenodd" d="M315.149 61.2201C307.657 61.2201 301.563 67.3432 301.563 74.8693V96.2336C301.563 103.76 307.657 109.883 315.149 109.883H336.414C343.906 109.883 350 103.76 350 96.2336V74.8693C350 67.3432 343.906 61.2201 336.414 61.2201H315.149Z" fill="#A79FBE"/>
<path fill-rule="evenodd" clip-rule="evenodd" d="M8.76515 65.9296C3.93195 65.9296 0 69.88 0 74.7355V88.5189C0 93.3748 3.93195 97.325 8.76515 97.325H22.4848C27.318 97.325 31.25 93.3748 31.25 88.5189V74.7355C31.25 69.88 27.318 65.9296 22.4848 65.9296H8.76515Z" fill="#A79FBE"/>
<path fill-rule="evenodd" clip-rule="evenodd" d="M84.0425 205.641C80.78 205.641 78.126 208.307 78.126 211.585V220.888C78.126 224.166 80.78 226.833 84.0425 226.833H93.3032C96.5656 226.833 99.2197 224.166 99.2197 220.888V211.585C99.2197 208.307 96.5656 205.641 93.3032 205.641H84.0425Z" fill="#A79FBE"/>
</svg>
