<svg width="24" height="24" viewBox="0 0 24 24" fill="none" xmlns="http://www.w3.org/2000/svg">
<path d="M11.9982 22.3488C17.5707 22.3488 21.551 20.3746 21.551 15.9803C21.551 11.2039 19.1628 8.78365 14.3864 6.39543L16.4524 3.16701C16.5335 3.01125 16.5736 2.83741 16.569 2.66186C16.5644 2.48629 16.5152 2.3148 16.426 2.16351C16.3368 2.01222 16.2106 1.88612 16.0592 1.79706C15.9079 1.70801 15.7363 1.65895 15.5608 1.65448H8.81009C8.62283 1.65092 8.43811 1.69825 8.27563 1.79142C8.11313 1.8846 7.979 2.02012 7.88748 2.18354C7.79596 2.34696 7.75051 2.53214 7.75597 2.71936C7.76143 2.90658 7.8176 3.08882 7.91849 3.24662L9.60995 6.39543C4.83353 8.81549 2.44531 11.2357 2.44531 16.0121C2.44531 20.3746 6.42567 22.3488 11.9982 22.3488Z" stroke="#3B2A6F" stroke-width="1.71" stroke-linecap="round" stroke-linejoin="round"/>
<path d="M9.60938 6.42773C10.7455 8.13192 13.2497 8.13192 14.3858 6.42773" stroke="#3B2A6F" stroke-width="1.71" stroke-linecap="round" stroke-linejoin="round"/>
</svg>
