<svg width="24" height="24" viewBox="0 0 24 24" fill="none" xmlns="http://www.w3.org/2000/svg">
<path d="M3.01718 4.46289H20.9829C20.9829 4.46289 22.349 4.46289 22.349 5.82895V18.1712C22.349 18.1712 22.349 19.5373 20.9829 19.5373H3.01718C3.01718 19.5373 1.65112 19.5373 1.65112 18.1712V5.82895C1.65112 5.82895 1.65112 4.46289 3.01718 4.46289Z" stroke="#3B2A6F" stroke-width="1.71" stroke-linecap="round" stroke-linejoin="round"/>
<path d="M15.7565 10.2158H18.9198" stroke="#3B2A6F" stroke-width="1.71" stroke-linecap="round" stroke-linejoin="round"/>
<path d="M15.7565 13.3506H18.9198" stroke="#3B2A6F" stroke-width="1.71" stroke-linecap="round" stroke-linejoin="round"/>
<path d="M6.43896 10.7384C6.43896 12.1811 7.60857 13.3508 9.05135 13.3508C9.4161 13.3508 9.76338 13.276 10.0787 13.141C11.0107 12.7419 11.6637 11.8164 11.6637 10.7384C11.6637 9.29558 10.4941 8.12598 9.05135 8.12598C7.60857 8.12598 6.43896 9.29558 6.43896 10.7384Z" stroke="#3B2A6F" stroke-width="1.71" stroke-linecap="round" stroke-linejoin="round"/>
<path d="M5.08032 15.938C5.49543 15.1485 6.07883 14.496 6.77446 14.0432C7.47008 13.5904 8.25453 13.3525 9.05238 13.3525C9.85025 13.3525 10.6347 13.5904 11.3303 14.0432C12.026 14.496 12.6094 15.1485 13.0245 15.938" stroke="#3B2A6F" stroke-width="1.71" stroke-linecap="round" stroke-linejoin="round"/>
</svg>
