<svg width="24" height="24" viewBox="0 0 24 24" fill="none" xmlns="http://www.w3.org/2000/svg">
<path d="M2.27352 11.0479C2.37223 12.3965 3.10939 13.4823 4.02487 13.632C4.7079 13.7434 5.40685 13.839 6.11854 13.839C6.83182 13.839 7.53077 13.7434 8.21221 13.632C9.12928 13.4823 9.86804 12.3965 9.96357 11.0479C10.0368 10.0529 10.0989 9.0307 10.0989 7.98784C10.0989 6.94499 10.0368 5.92283 9.96516 4.92775C9.86645 3.5792 9.12928 2.49495 8.21062 2.3437C7.51951 2.21795 6.8193 2.14872 6.11695 2.13672C5.40526 2.13672 4.70631 2.23225 4.02487 2.3437C3.1078 2.49495 2.36904 3.5792 2.27352 4.92775C2.19125 5.9458 2.14611 6.96651 2.13818 7.98784C2.13818 9.0307 2.20028 10.0529 2.27192 11.0479H2.27352Z" stroke="#3B2A6F" stroke-width="1.71" stroke-linecap="round" stroke-linejoin="round"/>
<path d="M21.7598 13.0159C21.6626 11.6689 20.9239 10.5847 20.0036 10.435C19.3114 10.3094 18.6102 10.2402 17.9068 10.228C17.1919 10.228 16.4914 10.3236 15.8083 10.435C14.8897 10.5847 14.1509 11.6689 14.0522 13.0159C13.9704 14.0334 13.9258 15.0536 13.9185 16.0744C13.9185 17.1156 13.9806 18.1378 14.0522 19.1329C14.1509 20.4814 14.8897 21.5657 15.8083 21.7153C16.493 21.8268 17.1935 21.9223 17.9068 21.9223C18.6216 21.9223 19.3222 21.8268 20.0036 21.7153C20.9239 21.5657 21.6626 20.4814 21.7614 19.1329C21.833 18.1378 21.8951 17.1156 21.8951 16.076C21.8951 15.0331 21.833 14.011 21.7614 13.0159H21.7598Z" stroke="#3B2A6F" stroke-width="1.71" stroke-linecap="round" stroke-linejoin="round"/>
<path d="M2.27363 20.9143C2.37235 21.4015 3.10951 21.7931 4.02499 21.8473C4.72198 21.893 5.42018 21.9179 6.11866 21.9221C6.81713 21.9179 7.51533 21.893 8.21233 21.8473C9.1294 21.7931 9.86815 21.4015 9.96368 20.9143C10.0369 20.5544 10.099 20.1835 10.099 19.8077C10.0909 19.4354 10.0461 19.0647 9.96528 18.7012C9.86656 18.214 9.1294 17.8223 8.21233 17.7682C7.51533 17.7225 6.81713 17.6975 6.11866 17.6934C5.42071 17.6975 4.72304 17.7225 4.02658 17.7682C3.10951 17.8223 2.37075 18.214 2.27522 18.7012C2.19347 19.0646 2.14814 19.4353 2.13989 19.8077C2.13989 20.1835 2.20199 20.5544 2.27363 20.9143Z" stroke="#3B2A6F" stroke-width="1.71" stroke-linecap="round" stroke-linejoin="round"/>
<path d="M21.7598 3.14455C21.6626 2.65735 20.9239 2.26568 20.0036 2.21155C19.3056 2.16591 18.6063 2.14096 17.9068 2.13672C17.1919 2.13672 16.4914 2.17175 15.8083 2.21155C14.8897 2.26568 14.1509 2.65735 14.0522 3.14455C13.9709 3.50802 13.9261 3.87871 13.9185 4.25108C13.9185 4.62683 13.9806 4.9978 14.0522 5.35762C14.1509 5.84482 14.8897 6.23649 15.8083 6.29062C16.493 6.33042 17.1935 6.36545 17.9068 6.36545C18.6216 6.36545 19.3222 6.33042 20.0036 6.29062C20.9239 6.23649 21.6626 5.84482 21.7614 5.35603C21.8422 4.99301 21.887 4.6229 21.8951 4.25108C21.887 3.87874 21.8422 3.5081 21.7614 3.14455H21.7598Z" stroke="#3B2A6F" stroke-width="1.71" stroke-linecap="round" stroke-linejoin="round"/>
</svg>
