<svg width="22" height="20" viewBox="0 0 22 20" fill="none" xmlns="http://www.w3.org/2000/svg">
<path d="M20.8399 7.36617C21.0309 4.74709 13.6991 -0.153523 13.6991 2.05796V4.62927C12.4018 4.61468 11.1043 4.63326 9.80792 4.685C9.44399 4.69357 9.09587 4.83547 8.82966 5.08378C8.56345 5.33208 8.39769 5.66949 8.36385 6.03195C8.29538 6.90285 8.29538 7.75147 8.36385 8.62237C8.39769 8.98483 8.56345 9.32224 8.82966 9.57054C9.09587 9.81885 9.44399 9.96075 9.80792 9.96932C10.5801 9.99957 11.3364 10.0171 12.0879 10.025C12.5143 10.0271 12.9227 10.1973 13.2243 10.4987C13.526 10.8001 13.6966 11.2083 13.6991 11.6347V12.5948C13.6991 14.7617 21.0548 9.89608 20.8399 7.36617Z" stroke="#3B2A6F" stroke-width="1.71" stroke-linecap="round" stroke-linejoin="round"/>
<path d="M1.16087 12.7305C0.971405 10.1098 8.30163 5.21077 8.30163 7.42067V8.38232C8.30163 9.26755 9.02606 9.98242 9.91288 9.99038C10.6644 9.99835 11.4206 10.0175 12.1928 10.0477C12.5567 10.0566 12.9046 10.1986 13.1707 10.4469C13.4369 10.6951 13.6027 11.0323 13.6369 11.3947C13.7054 12.2656 13.7054 13.1142 13.6369 13.9851C13.6031 14.3475 13.4373 14.6849 13.1711 14.9332C12.9049 15.1815 12.5568 15.3235 12.1928 15.332C10.8965 15.3838 9.59896 15.4024 8.30163 15.3877V17.9591C8.30163 20.1244 0.945931 15.2604 1.16087 12.7305Z" stroke="#3B2A6F" stroke-width="1.71" stroke-linecap="round" stroke-linejoin="round"/>
</svg>
