<svg width="24" height="24" viewBox="0 0 24 24" fill="none" xmlns="http://www.w3.org/2000/svg">
<path d="M20.7571 2.44727H3.24351C2.36419 2.44727 1.65137 3.1601 1.65137 4.03941V10.408C1.65137 11.2873 2.36419 12.0001 3.24351 12.0001H20.7571C21.6364 12.0001 22.3492 11.2873 22.3492 10.408V4.03941C22.3492 3.1601 21.6364 2.44727 20.7571 2.44727Z" stroke="#3B2A6F" stroke-width="1.71" stroke-linecap="round" stroke-linejoin="round"/>
<path d="M6.42791 8.01988C6.86756 8.01988 7.22398 7.66346 7.22398 7.22381C7.22398 6.78415 6.86756 6.42773 6.42791 6.42773C5.98825 6.42773 5.63184 6.78415 5.63184 7.22381C5.63184 7.66346 5.98825 8.01988 6.42791 8.01988Z" stroke="#3B2A6F" stroke-width="1.71" stroke-linecap="round" stroke-linejoin="round"/>
<path d="M12.7959 7.22461H18.3684" stroke="#3B2A6F" stroke-width="1.71" stroke-linecap="round" stroke-linejoin="round"/>
<path d="M3.24351 12C2.82124 12 2.41628 12.1677 2.11769 12.4663C1.81911 12.7649 1.65137 13.1699 1.65137 13.5921V19.9607C1.65137 20.383 1.81911 20.788 2.11769 21.0865C2.41628 21.385 2.82124 21.5529 3.24351 21.5529H20.7571C21.1793 21.5529 21.5844 21.385 21.8829 21.0865C22.1814 20.788 22.3492 20.383 22.3492 19.9607V13.5921C22.3492 13.1699 22.1814 12.7649 21.8829 12.4663C21.5844 12.1677 21.1793 12 20.7571 12" stroke="#3B2A6F" stroke-width="1.71" stroke-linecap="round" stroke-linejoin="round"/>
<path d="M6.42791 17.5726C6.86756 17.5726 7.22398 17.2161 7.22398 16.7765C7.22398 16.3369 6.86756 15.9805 6.42791 15.9805C5.98825 15.9805 5.63184 16.3369 5.63184 16.7765C5.63184 17.2161 5.98825 17.5726 6.42791 17.5726Z" stroke="#3B2A6F" stroke-width="1.71" stroke-linecap="round" stroke-linejoin="round"/>
<path d="M12.7959 16.7773H18.3684" stroke="#3B2A6F" stroke-width="1.71" stroke-linecap="round" stroke-linejoin="round"/>
</svg>
