<svg width="99" height="142" viewBox="0 0 99 142" fill="none" xmlns="http://www.w3.org/2000/svg">
<g clip-path="url(#clip0_3354_1090)">
<path d="M70.584 50.1991C68.8621 51.1351 66.7127 50.4996 65.7883 48.7893C64.8522 47.0674 65.4878 44.918 67.2096 43.9935C75.3451 39.5792 79.1354 33.8705 79.8981 28.2889C80.3026 25.3075 79.8403 22.3145 78.7194 19.5411C77.5754 16.733 75.7611 14.1791 73.4614 12.1221C68.9893 8.12374 62.7144 6.02056 56.1621 7.64995C53.5042 8.30864 51.2046 9.63758 49.1939 11.5097C47.056 13.4973 45.207 16.0974 43.5892 19.1713C42.6763 20.9047 40.5384 21.5634 38.8166 20.662C37.0832 19.7491 36.4245 17.6112 37.3258 15.8894C39.3135 12.1221 41.6362 8.88644 44.3866 6.32101C47.264 3.65158 50.6037 1.73328 54.4865 0.774136C63.5002 -1.45617 72.0863 1.3866 78.1878 6.84103C81.2848 9.61447 83.7463 13.0697 85.2948 16.8832C86.8548 20.7313 87.4904 24.9608 86.901 29.2481C85.8495 36.8982 80.9497 44.5713 70.584 50.1991ZM43.4736 78.1299C30.0687 60.1257 29.7451 43.0691 46.016 27.2142L34.2982 20.7429C24.9147 17.0912 7.69629 44.0051 14.3525 51.1929L23.4818 64.7365L21.5981 68.6656C21.0781 69.8327 21.5866 70.6532 22.8577 71.2195L24.0942 71.5546L0.34668 118.553L5.15397 128.803L14.7686 125.972L17.2415 121.164L14.8726 116.727L20.0959 115.606L21.3092 113.249L18.582 109.088L20.3732 105.61L25.585 104.951L27.2837 101.658L24.3716 97.856L26.2321 94.2505L31.5479 93.3838L38.7819 79.5744L40.0068 80.2447C42.1331 81.539 43.231 80.7069 43.4736 78.1299ZM68.7004 89.4201L65.1642 102.617L60.2529 104.558L59.2245 108.407L62.8068 111.446L61.8708 114.947L57.0173 116.658L56.0234 120.356L59.5018 123.765L58.8315 126.272L54.0589 128.433L57.2484 132.189L55.8732 137.308L47.264 142.011L40.5384 133.194L53.3656 85.3178L50.257 84.4857C49.6214 84.3124 49.2285 83.6537 49.4019 83.0066L50.7077 78.1415C41.3011 71.0115 36.644 58.6696 39.8797 46.5705C44.0399 31.0277 59.7329 21.6443 75.2873 25.1342C75.3566 25.9662 75.3451 26.8098 75.2295 27.6534C74.9406 29.7566 74.0277 31.9175 72.3405 34.0092C72.1094 34.2865 71.8667 34.5754 71.6125 34.8528C66.6434 34.5292 61.9863 37.7417 60.6458 42.7339C60.068 44.8834 60.1952 47.0559 60.877 49.0088C61.0387 49.7022 61.3045 50.3724 61.6512 51.0311C62.4717 52.5334 63.6735 53.6775 65.0833 54.4055C66.0078 55.018 67.0479 55.4802 68.1688 55.7922C73.7503 57.2829 79.4706 54.0704 81.1346 48.5813C82.8218 47.0905 84.2894 45.5189 85.549 43.9011C87.9989 40.7463 89.6745 37.3951 90.6683 33.9861C97.417 41.2663 100.387 51.7476 97.625 62.0556C94.3893 74.1547 84.1623 82.5212 72.4676 83.9888L71.1618 88.8539C70.9884 89.4895 70.3298 89.8824 69.6826 89.709L68.7004 89.4201Z" fill="#3B2A6F"/>
</g>
<defs>
<clipPath id="clip0_3354_1090">
<rect width="98.3068" height="142" fill="white" transform="translate(0.34668)"/>
</clipPath>
</defs>
</svg>
