<svg width="156" height="156" viewBox="0 0 156 156" fill="none" xmlns="http://www.w3.org/2000/svg">
<g opacity="0.5">
<path d="M77.3906 6.84375C77.543 6.84375 77.7562 6.84375 77.9391 6.88127C79.3406 7.14707 81.0164 8.47607 82.1133 11.5124C83.2711 14.5457 83.5148 18.8704 82.5094 23.5016C81.4734 28.0765 79.3406 32.0197 76.9641 34.4275C74.6484 36.8353 72.5461 37.492 71.1445 37.2419C69.682 37.023 68.0672 35.6471 66.9703 32.6451C65.8125 29.6306 65.5078 25.2465 66.5437 20.6528C67.6102 16.0248 69.7125 12.1191 72.0891 9.7269C74.1 7.6005 75.9586 6.84375 77.3906 6.84375ZM42.2297 47.3422C45.5813 47.4361 49.8164 48.3429 53.9297 50.1253C58.6828 52.2517 62.3391 55.0973 64.35 57.7866C66.3609 60.3821 66.5437 62.3521 65.9039 63.5091C65.2336 64.6661 63.375 65.7606 59.8102 65.917C56.2453 66.1359 51.4312 65.229 46.7086 63.1651C41.9859 61.07 38.2688 58.1931 36.2578 55.5664C34.2469 52.9709 34.0945 50.9384 34.7344 49.7814C35.3742 48.5931 37.2633 47.5611 40.8281 47.4361C41.3156 47.3422 41.7422 47.3422 42.2297 47.3422ZM83.7586 76.3926C85.7695 76.4239 87.5977 76.674 89.243 77.1118C92.8383 78.0499 94.9102 79.7385 95.5805 81.7711C96.3422 83.8037 95.5805 86.2428 93.2039 88.8696C90.7055 91.4337 86.5922 93.9041 81.4734 95.28C76.3852 96.6559 71.4797 96.6246 67.8234 95.624C64.1367 94.6546 62.0648 92.9347 61.3945 90.9334C60.6937 88.9008 61.3945 86.493 63.8625 83.835C66.2695 81.2708 70.3828 78.8004 75.5016 77.4558C78.3961 76.674 81.2297 76.3613 83.7586 76.3926ZM34.7953 94.5608L53.625 103.723C52.3453 103.786 49.1461 103.879 49.1461 103.879L47.1352 106.6L30.4688 97.6879L34.7953 94.5608ZM51.4008 94.5921L68.8898 103.098C67.2141 103.191 63.2531 103.254 61.6687 103.348L46.4953 95.968L51.4008 94.5921ZM23.1867 97.9693L44.6672 109.664L40.2492 115.512L17.55 101.565L23.1867 97.9693ZM108.134 100.815C109.056 100.813 109.976 100.918 110.876 101.128C132.661 106.287 145.519 106.725 149.327 106.725H150.516V140.341C150.516 140.341 146.981 139.809 141.101 139.778C129.736 139.778 109.718 141.779 90.218 153.475C89.182 154.131 86.9578 154.381 84.1852 154.381C76.7812 154.381 65.5383 152.568 62.9484 151.567C36.8672 141.529 5.48438 113.98 5.48438 113.98L15.3867 105.099C15.3867 105.099 39.7008 121.016 42.7781 122.548C70.5352 136.526 93.0211 127.801 93.0211 127.801C93.0211 127.801 56.4891 128.74 44.7586 119.265L51.6445 108.633C51.6445 108.633 76.8727 107.913 85.8609 106.694C90.5531 106.068 100.699 100.815 108.134 100.815Z" fill="#3B2A6F"/>
</g>
</svg>
