<svg width="24" height="24" viewBox="0 0 24 24" fill="none" xmlns="http://www.w3.org/2000/svg">
<path d="M2.27364 11.0479C2.37235 12.3965 3.10951 13.4823 4.02499 13.632C4.70802 13.7434 5.40697 13.839 6.11866 13.839C6.83194 13.839 7.53089 13.7434 8.21233 13.632C9.12941 13.4823 9.86816 12.3965 9.96369 11.0479C10.0369 10.0529 10.099 9.0307 10.099 7.98784C10.099 6.94499 10.0369 5.92283 9.96528 4.92775C9.86657 3.5792 9.12941 2.49495 8.21074 2.3437C7.51963 2.21795 6.81942 2.14872 6.11707 2.13672C5.40538 2.13672 4.70643 2.23225 4.02499 2.3437C3.10792 2.49495 2.36917 3.5792 2.27364 4.92775C2.19137 5.9458 2.14623 6.96651 2.13831 7.98784C2.13831 9.0307 2.2004 10.0529 2.27205 11.0479H2.27364Z" stroke="#A4A9AE" stroke-width="1.71" stroke-linecap="round" stroke-linejoin="round"/>
<path d="M21.7599 13.0154C21.6628 11.6684 20.924 10.5842 20.0037 10.4345C19.3116 10.3089 18.6103 10.2397 17.9069 10.2275C17.192 10.2275 16.4915 10.3231 15.8085 10.4345C14.8898 10.5842 14.151 11.6684 14.0523 13.0154C13.9705 14.0329 13.9259 15.0531 13.9186 16.0739C13.9186 17.1151 13.9807 18.1373 14.0523 19.1324C14.151 20.4809 14.8898 21.5652 15.8085 21.7149C16.4931 21.8263 17.1936 21.9218 17.9069 21.9218C18.6218 21.9218 19.3223 21.8263 20.0037 21.7149C20.924 21.5652 21.6628 20.4809 21.7615 19.1324C21.8331 18.1373 21.8952 17.1151 21.8952 16.0755C21.8952 15.0326 21.8331 14.0105 21.7615 13.0154H21.7599Z" stroke="#A4A9AE" stroke-width="1.71" stroke-linecap="round" stroke-linejoin="round"/>
<path d="M2.27363 20.9143C2.37235 21.4015 3.10951 21.7931 4.02499 21.8473C4.72198 21.893 5.42018 21.9179 6.11866 21.9221C6.81713 21.9179 7.51533 21.893 8.21233 21.8473C9.1294 21.7931 9.86815 21.4015 9.96368 20.9143C10.0369 20.5544 10.099 20.1835 10.099 19.8077C10.0909 19.4354 10.0461 19.0647 9.96528 18.7012C9.86656 18.214 9.1294 17.8223 8.21233 17.7682C7.51533 17.7225 6.81713 17.6975 6.11866 17.6934C5.42071 17.6975 4.72304 17.7225 4.02658 17.7682C3.10951 17.8223 2.37075 18.214 2.27522 18.7012C2.19347 19.0646 2.14814 19.4353 2.13989 19.8077C2.13989 20.1835 2.20199 20.5544 2.27363 20.9143Z" stroke="#A4A9AE" stroke-width="1.71" stroke-linecap="round" stroke-linejoin="round"/>
<path d="M21.7599 3.14455C21.6628 2.65735 20.924 2.26568 20.0037 2.21155C19.3057 2.16591 18.6064 2.14096 17.9069 2.13672C17.192 2.13672 16.4915 2.17175 15.8085 2.21155C14.8898 2.26568 14.151 2.65735 14.0523 3.14455C13.971 3.50802 13.9262 3.87871 13.9186 4.25108C13.9186 4.62683 13.9807 4.9978 14.0523 5.35762C14.151 5.84482 14.8898 6.23649 15.8085 6.29062C16.4931 6.33042 17.1936 6.36545 17.9069 6.36545C18.6218 6.36545 19.3223 6.33042 20.0037 6.29062C20.924 6.23649 21.6628 5.84482 21.7615 5.35603C21.8423 4.99301 21.8871 4.6229 21.8952 4.25108C21.8871 3.87874 21.8423 3.5081 21.7615 3.14455H21.7599Z" stroke="#A4A9AE" stroke-width="1.71" stroke-linecap="round" stroke-linejoin="round"/>
</svg>
