<svg width="30" height="30" viewBox="0 0 30 30" fill="none" xmlns="http://www.w3.org/2000/svg">
<circle cx="15" cy="15" r="15" fill="#E5E9EB"/>
<path d="M10 11.2H11.1111M11.1111 11.2H20M11.1111 11.2V18.9C11.1111 19.1917 11.2282 19.4715 11.4365 19.6778C11.6449 19.8841 11.9275 20 12.2222 20H17.7778C18.0725 20 18.3551 19.8841 18.5635 19.6778C18.7718 19.4715 18.8889 19.1917 18.8889 18.9V11.2M12.7778 11.2V10.1C12.7778 9.80826 12.8948 9.52847 13.1032 9.32218C13.3116 9.11589 13.5942 9 13.8889 9H16.1111C16.4058 9 16.6884 9.11589 16.8968 9.32218C17.1052 9.52847 17.2222 9.80826 17.2222 10.1V11.2M13.8889 13.95V17.25M16.1111 13.95V17.25" stroke="#FF6363" stroke-width="1.77778" stroke-linecap="round" stroke-linejoin="round"/>
</svg>
