<svg width="112" height="107" viewBox="0 0 112 107" fill="none" xmlns="http://www.w3.org/2000/svg">
<rect x="0.5" y="0.5" width="99" height="99" rx="2.83333" fill="white"/>
<rect x="0.5" y="0.5" width="99" height="99" rx="2.83333" stroke="#A4A9AE" stroke-dasharray="9.17 9.17"/>
<path d="M64.5 38.3243C64.5 46.2354 58.0081 52.6486 50 52.6486C41.9919 52.6486 35.5 46.2354 35.5 38.3243C35.5 30.4132 41.9919 24 50 24C58.0081 24 64.5 30.4132 64.5 38.3243Z" fill="#D1D4D7"/>
<path d="M25.1667 77C22.8655 77 20.9474 75.0947 21.6313 72.8975C22.7869 69.185 25.4967 65.7469 29.4939 63.0222C34.9324 59.3151 42.3087 57.2324 50 57.2324C57.6912 57.2324 65.0675 59.3151 70.5061 63.0222C74.5033 65.7468 77.2131 69.185 78.3687 72.8975C79.0526 75.0947 77.1345 77 74.8333 77L25.1667 77Z" fill="#D1D4D7"/>
<circle cx="97" cy="92" r="15" fill="#E5E9EB"/>
<path fill-rule="evenodd" clip-rule="evenodd" d="M95.8611 97.6667H98.6389C100.59 97.6667 101.565 97.6667 102.265 97.19C102.569 96.9836 102.829 96.7185 103.032 96.4097C103.5 95.6964 103.5 94.7033 103.5 92.7171C103.5 90.7311 103.5 89.738 103.032 89.0246C102.829 88.7158 102.569 88.4507 102.265 88.2443C101.815 87.938 101.252 87.8286 100.389 87.7894C99.9769 87.7894 99.6224 87.4717 99.5417 87.0606C99.4205 86.4439 98.8887 86 98.2711 86H96.2289C95.6113 86 95.0795 86.4439 94.9583 87.0606C94.8776 87.4717 94.523 87.7894 94.1113 87.7894C93.2483 87.8286 92.6847 87.938 92.2345 88.2443C91.9312 88.4507 91.6708 88.7158 91.4681 89.0246C91 89.738 91 90.7311 91 92.7171C91 94.7033 91 95.6964 91.4681 96.4097C91.6708 96.7185 91.9312 96.9836 92.2345 97.19C92.9352 97.6667 93.9105 97.6667 95.8611 97.6667ZM97.25 90.0657C95.8118 90.0657 94.6458 91.2528 94.6458 92.7171C94.6458 94.1816 95.8118 95.3687 97.25 95.3687C98.6882 95.3687 99.8542 94.1816 99.8542 92.7171C99.8542 91.2528 98.6882 90.0657 97.25 90.0657ZM97.25 91.1263C96.3871 91.1263 95.6875 91.8385 95.6875 92.7171C95.6875 93.5958 96.3871 94.3081 97.25 94.3081C98.1129 94.3081 98.8125 93.5958 98.8125 92.7171C98.8125 91.8385 98.1129 91.1263 97.25 91.1263ZM100.201 90.596C100.201 90.3031 100.435 90.0657 100.722 90.0657H101.417C101.704 90.0657 101.938 90.3031 101.938 90.596C101.938 90.8889 101.704 91.1263 101.417 91.1263H100.722C100.435 91.1263 100.201 90.8889 100.201 90.596Z" fill="#3B2A6F"/>
</svg>
