<svg width="58" height="53" viewBox="0 0 58 53" fill="none" xmlns="http://www.w3.org/2000/svg">
<path d="M43.5 14.3243C43.5 22.2354 37.0081 28.6486 29 28.6486C20.9919 28.6486 14.5 22.2354 14.5 14.3243C14.5 6.41322 20.9919 0 29 0C37.0081 0 43.5 6.41322 43.5 14.3243Z" fill="#D1D4D7"/>
<path d="M4.16667 53C1.86548 53 -0.0526317 51.0947 0.631287 48.8975C1.78687 45.185 4.49669 41.7469 8.49389 39.0222C13.9324 35.3151 21.3087 33.2324 29 33.2324C36.6912 33.2324 44.0675 35.3151 49.5061 39.0222C53.5033 41.7468 56.2131 45.185 57.3687 48.8975C58.0526 51.0947 56.1345 53 53.8333 53L4.16667 53Z" fill="#D1D4D7"/>
</svg>
