<svg width="24" height="24" viewBox="0 0 24 24" fill="none" xmlns="http://www.w3.org/2000/svg">
<path d="M12 22.3488C17.5725 22.3488 21.5529 20.3746 21.5529 15.9803C21.5529 11.2039 19.1646 8.78365 14.3882 6.39543L16.4542 3.16701C16.5353 3.01125 16.5755 2.83741 16.5709 2.66186C16.5662 2.48629 16.517 2.3148 16.4278 2.16351C16.3387 2.01222 16.2124 1.88612 16.0611 1.79706C15.9097 1.70801 15.7382 1.65895 15.5626 1.65448H8.81193C8.62466 1.65092 8.43994 1.69825 8.27746 1.79142C8.11497 1.8846 7.98083 2.02012 7.88931 2.18354C7.79779 2.34696 7.75234 2.53214 7.7578 2.71936C7.76326 2.90658 7.81943 3.08882 7.92033 3.24662L9.61179 6.39543C4.83536 8.81549 2.44714 11.2357 2.44714 16.0121C2.44714 20.3746 6.4275 22.3488 12 22.3488Z" stroke="#4F5962" stroke-width="1.71" stroke-linecap="round" stroke-linejoin="round"/>
<path d="M9.61182 6.42676C10.7479 8.13094 13.2521 8.13094 14.3882 6.42676" stroke="#4F5962" stroke-width="1.71" stroke-linecap="round" stroke-linejoin="round"/>
</svg>
