<svg width="99" height="142" viewBox="0 0 99 142" fill="none" xmlns="http://www.w3.org/2000/svg">
<path d="M70.584 50.1993C68.8621 51.1354 66.7127 50.4998 65.7883 48.7895C64.8522 47.0677 65.4878 44.9183 67.2096 43.9938C75.3451 39.5794 79.1354 33.8707 79.8981 28.2892C80.3026 25.3077 79.8403 22.3147 78.7194 19.5413C77.5754 16.7332 75.7611 14.1793 73.4614 12.1224C68.9893 8.12399 62.7144 6.0208 56.1621 7.65019C53.5042 8.30889 51.2046 9.63782 49.1939 11.5099C47.056 13.4975 45.207 16.0976 43.5892 19.1715C42.6763 20.9049 40.5384 21.5636 38.8166 20.6622C37.0832 19.7493 36.4245 17.6115 37.3258 15.8896C39.3135 12.1224 41.6362 8.88669 44.3866 6.32126C47.264 3.65182 50.6037 1.73353 54.4865 0.77438C63.5002 -1.45593 72.0863 1.38685 78.1878 6.84127C81.2848 9.61471 83.7463 13.07 85.2948 16.8834C86.8548 20.7316 87.4904 24.9611 86.901 29.2483C85.8495 36.8984 80.9497 44.5716 70.584 50.1993ZM43.4736 78.1302C30.0687 60.1259 29.7451 43.0693 46.016 27.2145L34.2982 20.7431C24.9147 17.0914 7.69629 44.0053 14.3525 51.1932L23.4818 64.7368L21.5981 68.6658C21.0781 69.833 21.5866 70.6535 22.8577 71.2197L24.0942 71.5548L0.34668 118.553L5.15397 128.803L14.7686 125.972L17.2415 121.165L14.8726 116.727L20.0959 115.606L21.3092 113.249L18.582 109.089L20.3732 105.61L25.585 104.952L27.2837 101.658L24.3716 97.8563L26.2321 94.2508L31.5479 93.3841L38.7819 79.5747L40.0068 80.2449C42.1331 81.5392 43.231 80.7072 43.4736 78.1302ZM68.7004 89.4204L65.1642 102.617L60.2529 104.559L59.2245 108.407L62.8068 111.446L61.8708 114.948L57.0173 116.658L56.0234 120.356L59.5018 123.765L58.8315 126.272L54.0589 128.433L57.2484 132.189L55.8732 137.308L47.264 142.012L40.5384 133.194L53.3656 85.318L50.257 84.486C49.6214 84.3126 49.2285 83.6539 49.4019 83.0068L50.7077 78.1417C41.3011 71.0117 36.644 58.6699 39.8797 46.5708C44.0399 31.028 59.7329 21.6445 75.2873 25.1344C75.3566 25.9664 75.3451 26.81 75.2295 27.6536C74.9406 29.7568 74.0277 31.9178 72.3405 34.0094C72.1094 34.2868 71.8667 34.5757 71.6125 34.853C66.6434 34.5294 61.9863 37.742 60.6458 42.7342C60.068 44.8836 60.1952 47.0561 60.877 49.0091C61.0387 49.7024 61.3045 50.3727 61.6512 51.0314C62.4717 52.5337 63.6735 53.6777 65.0833 54.4057C66.0078 55.0182 67.0479 55.4804 68.1688 55.7924C73.7503 57.2832 79.4706 54.0706 81.1346 48.5815C82.8218 47.0908 84.2894 45.5192 85.549 43.9013C87.9989 40.7466 89.6745 37.3953 90.6683 33.9863C97.417 41.2666 100.387 51.7479 97.625 62.0558C94.3893 74.1549 84.1623 82.5215 72.4676 83.9891L71.1618 88.8541C70.9884 89.4897 70.3298 89.8826 69.6826 89.7093L68.7004 89.4204Z" fill="#13B681"/>
</svg>
