<svg width="240" height="56" viewBox="0 0 240 56" fill="none" xmlns="http://www.w3.org/2000/svg">
<g clip-path="url(#clip0_2429_8843)">
<path d="M88.7639 19.8661V30.2031C88.7639 31.6413 88.1796 32.9897 87.1909 34.0234L82.1122 39.102C81.7976 39.4166 81.3482 39.5964 80.8987 39.5964H76.5841C75.7751 39.5964 75.4156 38.6526 75.9549 38.0683L82.8762 31.147C83.2358 30.8773 83.4156 30.4279 83.4156 29.9784V25.2144C83.4156 24.2706 82.6515 23.5065 81.7077 23.5065H76.9437C76.4942 23.5065 76.0448 23.6863 75.7302 24.0009L68.8538 30.9222C68.2695 31.5065 67.3257 31.102 67.3257 30.293V26.0234C67.3257 25.5739 67.5055 25.1245 67.8201 24.8099L72.8987 19.7312C73.8875 18.7425 75.2358 18.1582 76.674 18.1582H87.056C87.9998 18.2031 88.7639 18.9222 88.7639 19.8661Z" fill="#EA7024"/>
<path d="M77.483 25.7071C77.1684 25.7071 76.8538 25.8419 76.5841 26.0666L70.9212 31.7295L67.7302 34.9205C67.5054 35.1453 67.3706 35.4599 67.3706 35.8194V38.3363C67.3706 39.0104 67.9099 39.5947 68.629 39.5947H72.1796C72.8538 39.5947 73.438 39.0554 73.438 38.3363C73.438 38.0217 73.5729 37.7071 73.7976 37.4374L80.8987 30.3363C81.1234 30.1115 81.2582 29.7969 81.2582 29.4374V26.9205C81.2582 26.2464 80.7189 25.6621 79.9998 25.6621H77.483V25.7071Z" fill="#3B2A6F"/>
<path d="M96.2079 30.96H94.4058C94.109 30.96 93.9606 30.8116 93.9606 30.5147V17.7728C93.9606 17.476 94.109 17.3276 94.4058 17.3276H99.5789C100.681 17.3276 101.537 17.6314 102.144 18.2392C102.752 18.8328 103.056 19.6809 103.056 20.7834V22.8187C103.056 23.9211 102.752 24.7763 102.144 25.384C101.537 25.9777 100.681 26.2745 99.5789 26.2745H96.9076C96.738 26.2745 96.6532 26.3522 96.6532 26.5077V30.5147C96.6532 30.8116 96.5048 30.96 96.2079 30.96ZM96.8864 23.9211H99.1337C99.586 23.9211 99.904 23.8293 100.088 23.6455C100.272 23.4476 100.363 23.1296 100.363 22.6915V20.9106C100.363 20.4583 100.272 20.1403 100.088 19.9565C99.904 19.7586 99.586 19.6597 99.1337 19.6597H96.8864C96.7309 19.6597 96.6532 19.7374 96.6532 19.8929V23.6879C96.6532 23.8434 96.7309 23.9211 96.8864 23.9211ZM108.786 30.96H108.277C107.161 30.96 106.298 30.6631 105.691 30.0695C105.083 29.4759 104.779 28.6208 104.779 27.5042V23.6031C104.779 22.4865 105.083 21.6314 105.691 21.0378C106.298 20.4441 107.161 20.1473 108.277 20.1473H113.175C113.486 20.1473 113.641 20.2957 113.641 20.5925V30.5147C113.641 30.8116 113.486 30.96 113.175 30.96H111.394C111.097 30.96 110.949 30.8116 110.949 30.5147V29.8151H110.864C110.708 30.1967 110.433 30.4865 110.037 30.6843C109.641 30.8681 109.224 30.96 108.786 30.96ZM110.949 27.0165V22.7127C110.949 22.5572 110.864 22.4795 110.694 22.4795H108.701C108.249 22.4795 107.931 22.5784 107.747 22.7763C107.563 22.96 107.472 23.278 107.472 23.7303V27.3769C107.472 27.8292 107.563 28.1543 107.747 28.3522C107.931 28.536 108.249 28.6278 108.701 28.6278H109.486C110.461 28.6278 110.949 28.0907 110.949 27.0165ZM117.724 34.543H116.367C116.084 34.543 115.943 34.3875 115.943 34.0765V32.6561C115.943 32.3451 116.084 32.1896 116.367 32.1896H116.812C117.703 32.1896 118.304 32.0624 118.615 31.808C118.94 31.5677 119.187 31.0942 119.357 30.3875H118.233C117.964 30.3875 117.788 30.2391 117.703 29.9423L115.222 20.5925C115.138 20.2957 115.244 20.1473 115.54 20.1473H117.427C117.71 20.1473 117.887 20.2957 117.957 20.5925L119.781 28.4158H119.865L121.667 20.5925C121.724 20.2957 121.901 20.1473 122.198 20.1473H123.978C124.332 20.1473 124.473 20.3028 124.402 20.6137L121.816 30.96C121.505 32.1331 121.024 33.0235 120.374 33.6313C119.724 34.2391 118.841 34.543 117.724 34.543ZM128.191 30.96H126.389C126.092 30.96 125.944 30.8116 125.944 30.5147V20.5925C125.944 20.2957 126.092 20.1473 126.389 20.1473H128.191C128.488 20.1473 128.636 20.2957 128.636 20.5925V21.2922H128.721C128.891 20.953 129.174 20.6774 129.569 20.4653C129.979 20.2533 130.446 20.1473 130.969 20.1473H131.562C132.792 20.1473 133.675 20.5996 134.212 21.5042C134.693 20.5996 135.52 20.1473 136.693 20.1473H137.308C138.396 20.1473 139.216 20.4441 139.767 21.0378C140.332 21.6314 140.615 22.4865 140.615 23.6031V30.5147C140.615 30.8116 140.467 30.96 140.17 30.96H138.368C138.071 30.96 137.923 30.8116 137.923 30.5147V23.7303C137.923 23.278 137.831 22.96 137.647 22.7763C137.463 22.5784 137.145 22.4795 136.693 22.4795H136.163C135.188 22.4795 134.7 23.0236 134.7 24.112V30.5147C134.7 30.8116 134.544 30.96 134.234 30.96H132.453C132.156 30.96 132.007 30.8116 132.007 30.5147V23.7303C132.007 23.278 131.908 22.96 131.711 22.7763C131.527 22.5784 131.209 22.4795 130.757 22.4795H130.099C129.124 22.4795 128.636 23.0166 128.636 24.0908V30.5147C128.636 30.8116 128.488 30.96 128.191 30.96ZM146.654 30.96H146.146C145.029 30.96 144.167 30.6631 143.559 30.0695C142.951 29.4759 142.647 28.6208 142.647 27.5042V23.6031C142.647 22.4865 142.951 21.6314 143.559 21.0378C144.167 20.4441 145.029 20.1473 146.146 20.1473H151.043C151.354 20.1473 151.509 20.2957 151.509 20.5925V30.5147C151.509 30.8116 151.354 30.96 151.043 30.96H149.262C148.965 30.96 148.817 30.8116 148.817 30.5147V29.8151H148.732C148.577 30.1967 148.301 30.4865 147.905 30.6843C147.509 30.8681 147.092 30.96 146.654 30.96ZM148.817 27.0165V22.7127C148.817 22.5572 148.732 22.4795 148.562 22.4795H146.57C146.117 22.4795 145.799 22.5784 145.615 22.7763C145.432 22.96 145.34 23.278 145.34 23.7303V27.3769C145.34 27.8292 145.432 28.1543 145.615 28.3522C145.799 28.536 146.117 28.6278 146.57 28.6278H147.354C148.329 28.6278 148.817 28.0907 148.817 27.0165ZM157.628 30.96H157.119C156.002 30.96 155.14 30.6631 154.532 30.0695C153.924 29.4759 153.621 28.6208 153.621 27.5042V23.6031C153.621 22.4865 153.924 21.6314 154.532 21.0378C155.14 20.4441 156.002 20.1473 157.119 20.1473H162.016C162.327 20.1473 162.483 20.2957 162.483 20.5925V30.5147C162.483 30.8116 162.327 30.96 162.016 30.96H160.235C159.939 30.96 159.79 30.8116 159.79 30.5147V29.8151H159.705C159.55 30.1967 159.274 30.4865 158.879 30.6843C158.483 30.8681 158.066 30.96 157.628 30.96ZM159.79 27.0165V22.7127C159.79 22.5572 159.705 22.4795 159.536 22.4795H157.543C157.091 22.4795 156.773 22.5784 156.589 22.7763C156.405 22.96 156.313 23.278 156.313 23.7303V27.3769C156.313 27.8292 156.405 28.1543 156.589 28.3522C156.773 28.536 157.091 28.6278 157.543 28.6278H158.327C159.303 28.6278 159.79 28.0907 159.79 27.0165ZM167.053 30.96H165.251C164.954 30.96 164.806 30.8116 164.806 30.5147V20.5925C164.806 20.2957 164.954 20.1473 165.251 20.1473H167.053C167.35 20.1473 167.498 20.2957 167.498 20.5925V21.3134H167.583C167.739 20.9318 168.014 20.642 168.41 20.4441C168.806 20.2463 169.223 20.1473 169.661 20.1473H170.424C170.707 20.1473 170.848 20.2957 170.848 20.5925V22.0554C170.848 22.225 170.813 22.3452 170.742 22.4159C170.686 22.4724 170.58 22.4936 170.424 22.4795H168.961C167.986 22.4795 167.498 23.0307 167.498 24.1332V30.5147C167.498 30.8116 167.35 30.96 167.053 30.96ZM172.431 22.4795H171.583C171.413 22.4795 171.293 22.4512 171.222 22.3947C171.166 22.3381 171.137 22.225 171.137 22.0554V20.5925C171.137 20.2957 171.286 20.1473 171.583 20.1473H172.431C172.586 20.1473 172.664 20.0696 172.664 19.9141V17.9C172.664 17.6032 172.819 17.4548 173.13 17.4548H174.911C175.208 17.4548 175.356 17.6032 175.356 17.9V19.9141C175.356 20.0696 175.441 20.1473 175.611 20.1473H177.264C177.561 20.1473 177.71 20.2957 177.71 20.5925V22.0554C177.71 22.2109 177.674 22.324 177.604 22.3947C177.547 22.4512 177.434 22.4795 177.264 22.4795H175.611C175.441 22.4795 175.356 22.5572 175.356 22.7127V27.3981C175.356 27.8363 175.455 28.1543 175.653 28.3522C175.851 28.536 176.176 28.6278 176.628 28.6278H177.476C177.773 28.6278 177.922 28.7762 177.922 29.073V30.5359C177.922 30.6914 177.886 30.8045 177.816 30.8752C177.759 30.9317 177.646 30.96 177.476 30.96H176.183C175.067 30.96 174.197 30.6631 173.575 30.0695C172.968 29.4759 172.664 28.6278 172.664 27.5254V22.7127C172.664 22.5572 172.586 22.4795 172.431 22.4795Z" fill="#3B2A6F"/>
</g>
<rect width="240" height="1" transform="translate(0 55)" fill="#E5E9EB"/>
<defs>
<clipPath id="clip0_2429_8843">
<rect width="127.416" height="32" fill="white" transform="translate(56 12)"/>
</clipPath>
</defs>
</svg>
