<svg width="32" height="32" viewBox="0 0 32 32" fill="none" xmlns="http://www.w3.org/2000/svg">
<circle cx="16" cy="16" r="16" fill="#F0ECFF"/>
<path d="M21.5415 12.308C21.5415 10.8391 20.958 9.43037 19.9193 8.39171C18.8806 7.35305 17.4719 6.76953 16.003 6.76953C14.5341 6.76953 13.1254 7.35305 12.0867 8.39171C11.0481 9.43037 10.4645 10.8391 10.4645 12.308C10.4645 18.7695 7.69531 20.6157 7.69531 20.6157H24.3107C24.3107 20.6157 21.5415 18.7695 21.5415 12.308Z" stroke="#3B2A6F" stroke-width="1.84615" stroke-linecap="round" stroke-linejoin="round"/>
<path d="M17.6001 24.3076C17.4378 24.5874 17.2049 24.8196 16.9246 24.981C16.6444 25.1425 16.3266 25.2274 16.0032 25.2274C15.6797 25.2274 15.362 25.1425 15.0817 24.981C14.8015 24.8196 14.5685 24.5874 14.4062 24.3076" stroke="#3B2A6F" stroke-width="1.84615" stroke-linecap="round" stroke-linejoin="round"/>
</svg>
