<svg width="160" height="140" viewBox="0 0 160 140" fill="none" xmlns="http://www.w3.org/2000/svg">
<path d="M159.398 33.8438C158.192 27.5988 155.135 21.5782 150.311 16.7491C147.088 13.5313 143.333 11.0997 139.359 9.48348C133.367 7.05661 126.839 6.4463 120.584 7.66223C114.324 8.86817 108.318 11.92 103.494 16.7491L91.5603 28.6779C91.4284 28.8147 91.3112 28.9416 91.1843 29.0882C91.2331 29.0685 87.5368 32.8382 87.5028 32.8772C80.0125 40.3579 91.4775 53.3754 100.003 44.8644C100.027 44.835 100.066 44.9035 100.115 44.9182L115.887 29.1369C117.425 27.6135 119.158 26.4757 121.033 25.7288C123.841 24.5763 126.932 24.2885 129.881 24.8694C132.84 25.4407 135.604 26.8422 137.913 29.1369C139.457 30.68 140.575 32.4279 141.332 34.2882C142.469 37.086 142.762 40.1963 142.191 43.136C141.61 46.09 140.213 48.8685 137.913 51.1732L112.215 76.876C110.672 78.4044 108.934 79.5469 107.068 80.2941C104.271 81.4366 101.165 81.72 98.2159 81.1535C95.2568 80.5725 92.4834 79.171 90.1884 76.876C88.9334 75.621 87.9618 74.2391 87.239 72.7744C87.1559 72.7547 87.0828 72.7354 86.9997 72.7157C85.2859 72.3835 83.45 72.5788 81.8484 73.2432C80.7303 73.6972 79.7193 74.3857 78.8553 75.255L78.3475 75.7725C75.7497 78.9269 73.694 83.3947 77.7956 89.2688C81.0084 92.4916 84.7634 94.9182 88.7478 96.5294C94.734 98.9563 101.257 99.5666 107.512 98.3557C113.757 97.1497 119.778 94.0929 124.607 89.2688L150.31 63.5707C153.518 60.3479 155.96 56.6029 157.576 52.6185C159.998 46.6122 160.604 40.0988 159.398 33.8438Z" fill="#A79FBE"/>
<path d="M60.008 94.2926C59.9739 94.3123 59.9248 94.2536 59.8858 94.2389L44.1192 110.001C42.5811 111.539 40.838 112.672 38.968 113.429C36.1702 114.566 33.0598 114.854 30.1252 114.288C27.1661 113.707 24.3977 112.31 22.093 110.001C20.5548 108.468 19.427 106.729 18.6652 104.859C17.5273 102.061 17.2392 98.9557 17.8155 96.0164C18.3917 93.0573 19.793 90.2839 22.093 87.9842L47.7961 62.2811C49.3292 60.7429 51.0677 59.6101 52.9377 58.8629C55.7355 57.7204 58.8311 57.4273 61.7805 57.9986C64.7395 58.5795 67.513 59.9811 69.8223 62.2807C71.0627 63.5357 72.0439 64.9176 72.7667 66.3823C72.8499 66.402 72.918 66.4164 72.9961 66.4361C74.7099 66.7582 76.5508 66.5776 78.1524 65.9136C79.2705 65.4595 80.2814 64.7711 81.1505 63.892L81.6486 63.3792C84.2561 60.2248 86.3117 55.7473 82.2005 49.8782C78.9877 46.6654 75.2424 44.2336 71.258 42.6223C65.2667 40.1954 58.7483 39.5804 52.4933 40.7961C46.2383 42.007 40.218 45.0589 35.3986 49.8879L9.69547 75.5861C6.48265 78.8039 4.04609 82.5539 2.42984 86.5382C-0.00172406 92.5398 -0.607349 99.0486 0.608589 105.313C1.81453 111.558 4.8714 117.579 9.69547 122.393C12.9083 125.606 16.6633 128.057 20.6477 129.664C26.6439 132.095 33.1673 132.691 39.4123 131.48C45.6673 130.289 51.6877 127.232 56.507 122.394L68.4358 110.479C68.5677 110.328 68.6945 110.206 68.8167 110.069C68.7727 110.079 72.4739 106.309 72.4983 106.28C79.9933 98.7848 68.5186 85.7723 60.008 94.2926Z" fill="#A79FBE"/>
<path d="M83.9159 1.68521L75.3172 0.728027L75.0781 18.9899L80.1562 19.5515L83.9159 1.68521Z" fill="#3B2A6F"/>
<path d="M59.46 26.5093L47.4434 12.7593L41.5156 19.063L55.9637 30.2202L59.46 26.5093Z" fill="#3B2A6F"/>
<path d="M72.6699 138.316L81.2687 139.273L81.5077 121.012L76.4296 120.445L72.6699 138.316Z" fill="#3B2A6F"/>
<path d="M97.1191 113.501L109.136 127.242L115.068 120.933L100.61 109.771L97.1191 113.501Z" fill="#3B2A6F"/>
</svg>
