<svg width="124" height="124" viewBox="0 0 124 124" fill="none" xmlns="http://www.w3.org/2000/svg">
<path d="M123.8 9.9V69.8C123.8 78.1 120.5 86 114.7 91.8L85.4 121.1C83.6 122.9 81.1 124 78.5 124H53.6C49 124 46.7 118.5 50 115.2L90 75.2C91.8 73.4 92.9 70.9 92.9 68.3V40.8C92.9 35.4 88.5 31 83.1 31H55.6C53 31 50.5 32 48.7 33.9L8.8 73.8C5.5 77.1 0 74.8 0 70.1V45.3C0 42.7 1 40.2 2.9 38.4L32.3 9C38.1 3.2 45.9 0 54.1 0H114.1C119.4 0.2 123.8 4.5 123.8 9.9Z" fill="#EA7024"/>
<path d="M58.6 43.6001C56.7 43.6001 54.8 44.4001 53.5 45.7001L20.6 78.6001L2.1 97.1001C0.699998 98.5001 0 100.3 0 102.2V116.7C0 120.7 3.2 124 7.3 124H27.8C31.8 124 35.1 120.8 35.1 116.7C35.1 114.8 35.9 112.9 37.2 111.6L78.3 70.5001C79.7 69.1001 80.4 67.3001 80.4 65.4001V50.9001C80.4 46.9001 77.2 43.6001 73.1 43.6001H58.6Z" fill="#3B2A6F"/>
</svg>
