<svg width="24" height="24" viewBox="0 0 24 24" fill="none" xmlns="http://www.w3.org/2000/svg">
<path d="M4 13C4 11.114 4 10.172 4.586 9.586C5.172 9 6.114 9 8 9H16C17.886 9 18.828 9 19.414 9.586C20 10.172 20 11.114 20 13V15C20 17.828 20 19.243 19.121 20.121C18.243 21 16.828 21 14 21H10C7.172 21 5.757 21 4.879 20.121C4 19.243 4 17.828 4 15V13Z" stroke="#A4A9AE" stroke-width="2"/>
<path d="M16 8V7C16 5.93913 15.5786 4.92172 14.8284 4.17157C14.0783 3.42143 13.0609 3 12 3C10.9391 3 9.92172 3.42143 9.17157 4.17157C8.42143 4.92172 8 5.93913 8 7V8" stroke="#A4A9AE" stroke-width="2" stroke-linecap="round"/>
</svg>
