<svg width="1440" height="900" viewBox="0 0 1440 900" fill="none" xmlns="http://www.w3.org/2000/svg">
<g clip-path="url(#clip0_3378_3641)">
<rect width="1440" height="900" fill="#3B2A6F"/>
<g opacity="0.1">
<path d="M1326.12 392.946V645.223C1326.12 680.18 1312.22 713.452 1287.79 737.879L1164.39 861.28C1156.81 868.861 1146.28 873.494 1135.33 873.494H1030.46C1011.09 873.494 1001.4 850.33 1015.3 836.432L1183.76 667.966C1191.34 660.385 1195.98 649.856 1195.98 638.906V523.086C1195.98 500.343 1177.45 481.812 1154.7 481.812H1038.88C1027.93 481.812 1017.4 486.023 1009.82 494.025L841.778 662.07C827.88 675.968 804.716 666.281 804.716 646.487V542.038C804.716 531.088 808.927 520.559 816.93 512.978L940.752 389.156C965.179 364.728 998.03 351.251 1032.57 351.251H1285.26C1307.59 352.093 1326.12 370.203 1326.12 392.946Z" fill="#EA7024"/>
<path d="M1051.52 534.878C1043.52 534.878 1035.51 538.248 1030.04 543.723L891.476 682.286L813.56 760.201C807.664 766.097 804.716 773.678 804.716 781.68V842.749C804.716 859.596 818.193 873.494 835.461 873.494H921.799C938.646 873.494 952.544 860.017 952.544 842.749C952.544 834.747 955.914 826.745 961.389 821.27L1134.49 648.171C1140.38 642.275 1143.33 634.694 1143.33 626.692V565.623C1143.33 548.777 1129.85 534.878 1112.59 534.878H1051.52Z" fill="white"/>
</g>
</g>
<defs>
<clipPath id="clip0_3378_3641">
<rect width="1440" height="900" fill="white"/>
</clipPath>
</defs>
</svg>
