<svg width="522" height="523" viewBox="0 0 522 523" fill="none" xmlns="http://www.w3.org/2000/svg">
<g opacity="0.1">
<path d="M521.401 41.6952V293.972C521.401 328.929 507.503 362.201 483.075 386.629L359.674 510.03C352.093 517.611 341.564 522.243 330.614 522.243H225.744C206.37 522.243 196.684 499.079 210.582 485.181L379.048 316.715C386.629 309.134 391.261 298.605 391.261 287.655V171.835C391.261 149.092 372.73 130.561 349.987 130.561H234.167C223.217 130.561 212.688 134.772 205.107 142.775L37.0624 310.819C23.164 324.717 0 315.031 0 295.236V190.787C0 179.837 4.21165 169.308 12.2138 161.727L136.036 37.9048C160.464 13.4772 193.314 0 227.85 0H480.548C502.87 0.842328 521.401 18.9524 521.401 41.6952Z" fill="#EA7024"/>
<path d="M246.802 183.628C238.8 183.628 230.798 186.997 225.323 192.472L86.7598 331.035L8.84444 408.95C2.94814 414.847 0 422.428 0 430.43V491.499C0 508.345 13.4773 522.243 30.745 522.243H117.084C133.93 522.243 147.829 508.766 147.829 491.499C147.829 483.496 151.198 475.494 156.673 470.019L329.771 296.921C335.668 291.024 338.616 283.443 338.616 275.441V214.373C338.616 197.526 325.139 183.628 307.871 183.628H246.802Z" fill="white"/>
</g>
</svg>
