<svg width="187" height="47" viewBox="0 0 187 47" fill="none" xmlns="http://www.w3.org/2000/svg">
<g clip-path="url(#clip0_2424_1913)">
<path d="M48.0857 11.5433V26.7143C48.0857 28.8251 47.2282 30.8039 45.777 32.321L38.3234 39.7747C37.8617 40.2364 37.2021 40.5002 36.5425 40.5002H30.2102C29.0229 40.5002 28.4952 39.115 29.2867 38.2576L39.4448 28.0995C39.9725 27.7038 40.2363 27.0441 40.2363 26.3845V19.3927C40.2363 18.0075 39.115 16.8861 37.7298 16.8861H30.7379C30.0783 16.8861 29.4187 17.15 28.9569 17.6117L18.8649 27.7697C18.0074 28.6272 16.6222 28.0336 16.6222 26.8463V20.58C16.6222 19.9203 16.886 19.2607 17.3478 18.799L24.8014 11.3454C26.2525 9.89424 28.2314 9.03674 30.3421 9.03674H45.5792C46.9643 9.1027 48.0857 10.1581 48.0857 11.5433Z" fill="#EA7024"/>
<path d="M31.5288 20.1182C31.067 20.1182 30.6053 20.3161 30.2095 20.6459L21.8984 28.957L17.2152 33.6403C16.8854 33.9701 16.6875 34.4318 16.6875 34.9595V38.6533C16.6875 39.6427 17.479 40.5002 18.5344 40.5002H23.7453C24.7348 40.5002 25.5923 39.7087 25.5923 38.6533C25.5923 38.1916 25.7901 37.7298 26.12 37.3341L36.5418 26.9122C36.8716 26.5824 37.0695 26.1207 37.0695 25.593V21.8992C37.0695 20.9097 36.278 20.0522 35.2226 20.0522H31.5288V20.1182Z" fill="#3B2A6F"/>
<path d="M59.0098 27.4741H56.3649C55.9293 27.4741 55.7115 27.2563 55.7115 26.8207V8.12013C55.7115 7.68451 55.9293 7.4667 56.3649 7.4667H63.9572C65.5752 7.4667 66.8302 7.91269 67.7222 8.80467C68.6142 9.67591 69.0601 10.9205 69.0601 12.5386V15.5257C69.0601 17.1437 68.6142 18.3987 67.7222 19.2907C66.8302 20.1619 65.5752 20.5975 63.9572 20.5975H60.0366C59.7877 20.5975 59.6632 20.7116 59.6632 20.9398V26.8207C59.6632 27.2563 59.4454 27.4741 59.0098 27.4741ZM60.0055 17.1437H63.3037C63.9675 17.1437 64.4343 17.0089 64.7039 16.7392C64.9736 16.4488 65.1084 15.982 65.1084 15.339V12.7253C65.1084 12.0615 64.9736 11.5947 64.7039 11.325C64.4343 11.0346 63.9675 10.8894 63.3037 10.8894H60.0055C59.7773 10.8894 59.6632 11.0035 59.6632 11.2317V16.8014C59.6632 17.0296 59.7773 17.1437 60.0055 17.1437ZM77.4699 27.4741H76.7231C75.0844 27.4741 73.819 27.0385 72.927 26.1673C72.035 25.296 71.589 24.041 71.589 22.4023V16.677C71.589 15.0382 72.035 13.7832 72.927 12.912C73.819 12.0407 75.0844 11.6051 76.7231 11.6051H83.9109C84.3672 11.6051 84.5954 11.8229 84.5954 12.2585V26.8207C84.5954 27.2563 84.3672 27.4741 83.9109 27.4741H81.2971C80.8615 27.4741 80.6437 27.2563 80.6437 26.8207V25.7939H80.5192C80.2911 26.354 79.8866 26.7792 79.3057 27.0696C78.7249 27.3393 78.113 27.4741 77.4699 27.4741ZM80.6437 21.6866V15.3701C80.6437 15.1419 80.5192 15.0278 80.2703 15.0278H77.3454C76.6816 15.0278 76.2149 15.173 75.9452 15.4634C75.6756 15.7331 75.5407 16.1998 75.5407 16.8637V22.2156C75.5407 22.8794 75.6756 23.3565 75.9452 23.6469C76.2149 23.9166 76.6816 24.0514 77.3454 24.0514H78.4967C79.928 24.0514 80.6437 23.2631 80.6437 21.6866ZM90.5876 32.7327H88.5962C88.1813 32.7327 87.9739 32.5045 87.9739 32.0481V29.9634C87.9739 29.507 88.1813 29.2788 88.5962 29.2788H89.2496C90.5565 29.2788 91.4381 29.0921 91.8945 28.7188C92.3716 28.3661 92.7346 27.6712 92.9835 26.634H91.3344C90.9403 26.634 90.681 26.4162 90.5565 25.9806L86.916 12.2585C86.7915 11.8229 86.9471 11.6051 87.3827 11.6051H90.152C90.5669 11.6051 90.8262 11.8229 90.9299 12.2585L93.6058 23.7402H93.7303L96.3751 12.2585C96.4581 11.8229 96.7174 11.6051 97.153 11.6051H99.7668C100.285 11.6051 100.493 11.8333 100.389 12.2896L96.593 27.4741C96.1366 29.1959 95.4313 30.5027 94.4771 31.3947C93.5229 32.2867 92.2264 32.7327 90.5876 32.7327ZM105.95 27.4741H103.305C102.869 27.4741 102.651 27.2563 102.651 26.8207V12.2585C102.651 11.8229 102.869 11.6051 103.305 11.6051H105.95C106.385 11.6051 106.603 11.8229 106.603 12.2585V13.2853H106.727C106.976 12.7875 107.391 12.383 107.972 12.0718C108.574 11.7607 109.258 11.6051 110.026 11.6051H110.897C112.702 11.6051 113.998 12.2689 114.786 13.5965C115.492 12.2689 116.705 11.6051 118.427 11.6051H119.329C120.927 11.6051 122.13 12.0407 122.939 12.912C123.769 13.7832 124.183 15.0382 124.183 16.677V26.8207C124.183 27.2563 123.966 27.4741 123.53 27.4741H120.885C120.449 27.4741 120.232 27.2563 120.232 26.8207V16.8637C120.232 16.1998 120.097 15.7331 119.827 15.4634C119.558 15.173 119.091 15.0278 118.427 15.0278H117.649C116.218 15.0278 115.502 15.8265 115.502 17.4237V26.8207C115.502 27.2563 115.274 27.4741 114.818 27.4741H112.204C111.768 27.4741 111.55 27.2563 111.55 26.8207V16.8637C111.55 16.1998 111.405 15.7331 111.115 15.4634C110.845 15.173 110.378 15.0278 109.715 15.0278H108.75C107.319 15.0278 106.603 15.8161 106.603 17.3926V26.8207C106.603 27.2563 106.385 27.4741 105.95 27.4741ZM133.047 27.4741H132.3C130.661 27.4741 129.396 27.0385 128.504 26.1673C127.612 25.296 127.166 24.041 127.166 22.4023V16.677C127.166 15.0382 127.612 13.7832 128.504 12.912C129.396 12.0407 130.661 11.6051 132.3 11.6051H139.488C139.944 11.6051 140.172 11.8229 140.172 12.2585V26.8207C140.172 27.2563 139.944 27.4741 139.488 27.4741H136.874C136.438 27.4741 136.221 27.2563 136.221 26.8207V25.7939H136.096C135.868 26.354 135.463 26.7792 134.883 27.0696C134.302 27.3393 133.69 27.4741 133.047 27.4741ZM136.221 21.6866V15.3701C136.221 15.1419 136.096 15.0278 135.847 15.0278H132.922C132.258 15.0278 131.792 15.173 131.522 15.4634C131.252 15.7331 131.118 16.1998 131.118 16.8637V22.2156C131.118 22.8794 131.252 23.3565 131.522 23.6469C131.792 23.9166 132.258 24.0514 132.922 24.0514H134.074C135.505 24.0514 136.221 23.2631 136.221 21.6866ZM149.152 27.4741H148.405C146.766 27.4741 145.501 27.0385 144.609 26.1673C143.717 25.296 143.271 24.041 143.271 22.4023V16.677C143.271 15.0382 143.717 13.7832 144.609 12.912C145.501 12.0407 146.766 11.6051 148.405 11.6051H155.593C156.049 11.6051 156.277 11.8229 156.277 12.2585V26.8207C156.277 27.2563 156.049 27.4741 155.593 27.4741H152.979C152.543 27.4741 152.325 27.2563 152.325 26.8207V25.7939H152.201C151.973 26.354 151.568 26.7792 150.987 27.0696C150.407 27.3393 149.795 27.4741 149.152 27.4741ZM152.325 21.6866V15.3701C152.325 15.1419 152.201 15.0278 151.952 15.0278H149.027C148.363 15.0278 147.897 15.173 147.627 15.4634C147.357 15.7331 147.222 16.1998 147.222 16.8637V22.2156C147.222 22.8794 147.357 23.3565 147.627 23.6469C147.897 23.9166 148.363 24.0514 149.027 24.0514H150.178C151.61 24.0514 152.325 23.2631 152.325 21.6866ZM162.985 27.4741H160.34C159.905 27.4741 159.687 27.2563 159.687 26.8207V12.2585C159.687 11.8229 159.905 11.6051 160.34 11.6051H162.985C163.421 11.6051 163.638 11.8229 163.638 12.2585V13.3165H163.763C163.991 12.7564 164.396 12.3311 164.976 12.0407C165.557 11.7503 166.169 11.6051 166.812 11.6051H167.932C168.347 11.6051 168.555 11.8229 168.555 12.2585V14.4055C168.555 14.6544 168.503 14.8308 168.399 14.9345C168.316 15.0175 168.161 15.0486 167.932 15.0278H165.785C164.354 15.0278 163.638 15.8368 163.638 17.4549V26.8207C163.638 27.2563 163.421 27.4741 162.985 27.4741ZM170.877 15.0278H169.632C169.383 15.0278 169.207 14.9863 169.103 14.9034C169.02 14.8204 168.979 14.6544 168.979 14.4055V12.2585C168.979 11.8229 169.197 11.6051 169.632 11.6051H170.877C171.105 11.6051 171.219 11.491 171.219 11.2628V8.30682C171.219 7.8712 171.447 7.65339 171.904 7.65339H174.517C174.953 7.65339 175.171 7.8712 175.171 8.30682V11.2628C175.171 11.491 175.295 11.6051 175.544 11.6051H177.971C178.407 11.6051 178.625 11.8229 178.625 12.2585V14.4055C178.625 14.6337 178.573 14.7996 178.469 14.9034C178.386 14.9863 178.22 15.0278 177.971 15.0278H175.544C175.295 15.0278 175.171 15.1419 175.171 15.3701V22.2467C175.171 22.8897 175.316 23.3565 175.607 23.6469C175.897 23.9166 176.374 24.0514 177.038 24.0514H178.282C178.718 24.0514 178.936 24.2692 178.936 24.7048V26.8518C178.936 27.08 178.884 27.2459 178.78 27.3497C178.697 27.4326 178.531 27.4741 178.282 27.4741H176.384C174.746 27.4741 173.47 27.0385 172.557 26.1673C171.665 25.296 171.219 24.0514 171.219 22.4334V15.3701C171.219 15.1419 171.105 15.0278 170.877 15.0278Z" fill="#3B2A6F"/>
</g>
<defs>
<clipPath id="clip0_2424_1913">
<rect width="187" height="46.9644" fill="white"/>
</clipPath>
</defs>
</svg>
