<svg width="42" height="42" viewBox="0 0 42 42" fill="none" xmlns="http://www.w3.org/2000/svg">
<path d="M35.5 31.5H32V16.1875L21.5 22.75L11 16.1875V31.5H7.5V10.5H9.6L21.5 17.9375L33.4 10.5H35.5M35.5 7H7.5C5.5575 7 4 8.5575 4 10.5V31.5C4 32.4283 4.36875 33.3185 5.02513 33.9749C5.6815 34.6313 6.57174 35 7.5 35H35.5C36.4283 35 37.3185 34.6313 37.9749 33.9749C38.6312 33.3185 39 32.4283 39 31.5V10.5C39 9.57174 38.6312 8.6815 37.9749 8.02513C37.3185 7.36875 36.4283 7 35.5 7Z" fill="#3B2A6F"/>
</svg>
