<svg width="129" height="152" viewBox="0 0 129 152" fill="none" xmlns="http://www.w3.org/2000/svg">
<rect x="0.288675" y="27.1784" width="85.9162" height="123.063" rx="3.53554" transform="rotate(-15 0.288675 27.1784)" fill="#958CB1" stroke="black" stroke-width="0.471405"/>
<rect x="25.6602" y="16.418" width="35" height="8.87121" rx="2.35702" transform="rotate(-15 25.6602 16.418)" fill="black"/>
<circle cx="41.0291" cy="8.54973" r="4.19143" transform="rotate(-15 41.0291 8.54973)" fill="white" stroke="black" stroke-width="1.41421"/>
<rect x="42.849" y="28.6927" width="85.9162" height="123.063" rx="3.53554" fill="white" stroke="black" stroke-width="0.471405"/>
<rect x="68" y="24.0215" width="35" height="8.87121" rx="2.35702" fill="black"/>
<circle cx="85.4843" cy="19.6953" r="4.19143" fill="white" stroke="black" stroke-width="1.41421"/>
<g clip-path="url(#clip0_4483_9578)">
<path d="M92.5156 97.8086C90.6923 95.9852 88.2193 94.9609 85.6406 94.9609C83.062 94.9609 80.9223 95.6519 79.099 97.4753" stroke="black" stroke-width="0.471405"/>
<circle cx="80.2732" cy="91.9314" r="1.70286" fill="black"/>
<circle cx="91.3357" cy="91.9314" r="1.70286" fill="black"/>
<path d="M100.242 79.9796V80.21H90.9318V70.8998H91.1623C91.5897 70.8998 91.9956 71.0666 92.2946 71.3656C92.2947 71.3656 92.2947 71.3656 92.2947 71.3657L99.7761 78.8547L99.7762 78.8547C100.076 79.1542 100.242 79.5603 100.242 79.9796ZM72.9669 70.8998H88.015V81.0571C88.015 82.196 88.9459 83.1268 90.0848 83.1268H100.242V107.957C100.242 108.843 99.5299 109.555 98.6437 109.555H72.9669C72.0807 109.555 71.3685 108.843 71.3685 107.957V72.4981C71.3685 71.6119 72.0807 70.8998 72.9669 70.8998Z" stroke="black" stroke-width="0.471405"/>
</g>
<path d="M77.7262 120.654V126.473H76.7887L74.0472 122.51H73.9989V126.473H72.945V120.654H73.8881L76.6268 124.62H76.6779V120.654H77.7262ZM80.7326 126.558C80.3065 126.558 79.9371 126.464 79.6246 126.277C79.3121 126.089 79.0697 125.827 78.8974 125.49C78.7269 125.153 78.6417 124.759 78.6417 124.308C78.6417 123.857 78.7269 123.462 78.8974 123.123C79.0697 122.784 79.3121 122.521 79.6246 122.333C79.9371 122.146 80.3065 122.052 80.7326 122.052C81.1587 122.052 81.5281 122.146 81.8406 122.333C82.1531 122.521 82.3945 122.784 82.565 123.123C82.7373 123.462 82.8235 123.857 82.8235 124.308C82.8235 124.759 82.7373 125.153 82.565 125.49C82.3945 125.827 82.1531 126.089 81.8406 126.277C81.5281 126.464 81.1587 126.558 80.7326 126.558ZM80.7383 125.734C80.9693 125.734 81.1625 125.671 81.3178 125.544C81.4731 125.415 81.5887 125.243 81.6644 125.027C81.7421 124.811 81.7809 124.57 81.7809 124.305C81.7809 124.038 81.7421 123.797 81.6644 123.581C81.5887 123.363 81.4731 123.19 81.3178 123.061C81.1625 122.932 80.9693 122.868 80.7383 122.868C80.5015 122.868 80.3046 122.932 80.1474 123.061C79.9921 123.19 79.8756 123.363 79.7979 123.581C79.7222 123.797 79.6843 124.038 79.6843 124.305C79.6843 124.57 79.7222 124.811 79.7979 125.027C79.8756 125.243 79.9921 125.415 80.1474 125.544C80.3046 125.671 80.5015 125.734 80.7383 125.734ZM87.6978 126.473H85.7262V120.654H87.7376C88.3152 120.654 88.8114 120.771 89.2262 121.004C89.6429 121.235 89.963 121.567 90.1864 122.001C90.4099 122.435 90.5217 122.954 90.5217 123.558C90.5217 124.164 90.409 124.685 90.1836 125.12C89.9601 125.556 89.6372 125.89 89.2148 126.123C88.7944 126.356 88.2887 126.473 87.6978 126.473ZM86.7802 125.561H87.6467C88.052 125.561 88.39 125.487 88.6609 125.339C88.9317 125.19 89.1353 124.967 89.2717 124.672C89.408 124.374 89.4762 124.003 89.4762 123.558C89.4762 123.113 89.408 122.743 89.2717 122.45C89.1353 122.154 88.9336 121.934 88.6665 121.788C88.4014 121.64 88.0719 121.566 87.6779 121.566H86.7802V125.561ZM92.7333 126.561C92.4568 126.561 92.2077 126.511 91.9862 126.413C91.7665 126.313 91.5922 126.165 91.4634 125.97C91.3365 125.775 91.2731 125.534 91.2731 125.248C91.2731 125.002 91.3185 124.798 91.4094 124.637C91.5004 124.476 91.6244 124.348 91.7816 124.251C91.9388 124.154 92.1159 124.082 92.3129 124.032C92.5117 123.981 92.7172 123.944 92.9293 123.922C93.185 123.895 93.3924 123.871 93.5515 123.85C93.7106 123.828 93.8261 123.794 93.8981 123.748C93.9719 123.701 94.0089 123.628 94.0089 123.529V123.512C94.0089 123.298 93.9454 123.133 93.8185 123.015C93.6916 122.898 93.5089 122.839 93.2702 122.839C93.0183 122.839 92.8185 122.894 92.6708 123.004C92.525 123.114 92.4265 123.243 92.3754 123.393L91.4151 123.257C91.4909 122.992 91.6159 122.77 91.7901 122.592C91.9644 122.412 92.1774 122.278 92.4293 122.189C92.6812 122.098 92.9596 122.052 93.2646 122.052C93.4748 122.052 93.6841 122.077 93.8924 122.126C94.1007 122.175 94.2911 122.257 94.4634 122.37C94.6358 122.482 94.774 122.635 94.8782 122.828C94.9843 123.021 95.0373 123.262 95.0373 123.552V126.473H94.0487V125.873H94.0146C93.9521 125.994 93.864 126.108 93.7504 126.214C93.6386 126.318 93.4975 126.403 93.3271 126.467C93.1585 126.529 92.9606 126.561 92.7333 126.561ZM93.0004 125.805C93.2068 125.805 93.3858 125.764 93.5373 125.683C93.6888 125.6 93.8053 125.49 93.8867 125.353C93.9701 125.217 94.0117 125.068 94.0117 124.907V124.393C93.9795 124.42 93.9246 124.444 93.8469 124.467C93.7712 124.49 93.686 124.51 93.5913 124.527C93.4966 124.544 93.4028 124.559 93.31 124.572C93.2172 124.585 93.1367 124.597 93.0685 124.606C92.9151 124.627 92.7778 124.661 92.6566 124.708C92.5354 124.756 92.4397 124.822 92.3697 124.907C92.2996 124.991 92.2646 125.099 92.2646 125.231C92.2646 125.421 92.3337 125.564 92.4719 125.66C92.6102 125.757 92.7863 125.805 93.0004 125.805ZM98.2504 122.109V122.904H95.7418V122.109H98.2504ZM96.3612 121.064H97.3896V125.16C97.3896 125.298 97.4104 125.404 97.4521 125.478C97.4956 125.55 97.5524 125.6 97.6225 125.626C97.6926 125.653 97.7702 125.666 97.8555 125.666C97.9199 125.666 97.9786 125.661 98.0316 125.652C98.0865 125.642 98.1282 125.634 98.1566 125.626L98.3299 126.43C98.275 126.449 98.1964 126.47 98.0941 126.493C97.9937 126.515 97.8706 126.529 97.7248 126.532C97.4672 126.54 97.2352 126.501 97.0288 126.416C96.8223 126.329 96.6585 126.194 96.5373 126.012C96.418 125.831 96.3593 125.603 96.3612 125.331V121.064ZM100.366 126.561C100.09 126.561 99.8406 126.511 99.619 126.413C99.3993 126.313 99.225 126.165 99.0962 125.97C98.9693 125.775 98.9059 125.534 98.9059 125.248C98.9059 125.002 98.9513 124.798 99.0423 124.637C99.1332 124.476 99.2572 124.348 99.4144 124.251C99.5716 124.154 99.7487 124.082 99.9457 124.032C100.145 123.981 100.35 123.944 100.562 123.922C100.818 123.895 101.025 123.871 101.184 123.85C101.343 123.828 101.459 123.794 101.531 123.748C101.605 123.701 101.642 123.628 101.642 123.529V123.512C101.642 123.298 101.578 123.133 101.451 123.015C101.324 122.898 101.142 122.839 100.903 122.839C100.651 122.839 100.451 122.894 100.304 123.004C100.158 123.114 100.059 123.243 100.008 123.393L99.0479 123.257C99.1237 122.992 99.2487 122.77 99.4229 122.592C99.5972 122.412 99.8103 122.278 100.062 122.189C100.314 122.098 100.592 122.052 100.897 122.052C101.108 122.052 101.317 122.077 101.525 122.126C101.734 122.175 101.924 122.257 102.096 122.37C102.269 122.482 102.407 122.635 102.511 122.828C102.617 123.021 102.67 123.262 102.67 123.552V126.473H101.681V125.873H101.647C101.585 125.994 101.497 126.108 101.383 126.214C101.271 126.318 101.13 126.403 100.96 126.467C100.791 126.529 100.593 126.561 100.366 126.561ZM100.633 125.805C100.84 125.805 101.019 125.764 101.17 125.683C101.322 125.6 101.438 125.49 101.52 125.353C101.603 125.217 101.645 125.068 101.645 124.907V124.393C101.612 124.42 101.557 124.444 101.48 124.467C101.404 124.49 101.319 124.51 101.224 124.527C101.129 124.544 101.036 124.559 100.943 124.572C100.85 124.585 100.77 124.597 100.701 124.606C100.548 124.627 100.411 124.661 100.289 124.708C100.168 124.756 100.073 124.822 100.002 124.907C99.9324 124.991 99.8974 125.099 99.8974 125.231C99.8974 125.421 99.9665 125.564 100.105 125.66C100.243 125.757 100.419 125.805 100.633 125.805Z" fill="black"/>
<defs>
<clipPath id="clip0_4483_9578">
<rect width="39.1266" height="39.1266" fill="white" transform="translate(66.2422 70.6641)"/>
</clipPath>
</defs>
</svg>
