<svg width="46" height="46" viewBox="0 0 46 46" fill="none" xmlns="http://www.w3.org/2000/svg">
<g clip-path="url(#clip0_6257_19860)">
<path fill-rule="evenodd" clip-rule="evenodd" d="M22.8257 0C35.431 0 45.6513 10.2203 45.6513 22.8257C45.6513 35.431 35.431 45.6513 22.8257 45.6513C10.2203 45.6513 0 35.431 0 22.8257C0 10.2203 10.2203 0 22.8257 0Z" fill="#2394E0"/>
<path fill-rule="evenodd" clip-rule="evenodd" d="M4.36815 34.6172C3.02328 32.5776 2.01648 30.2928 1.42578 27.8446L5.44553 29.7839L5.46782 30.9838C5.46782 31.4259 4.71737 32.3622 4.47589 32.7188L4.36815 34.6172ZM29.0922 2.41462C36.7528 4.95948 42.5001 11.7024 43.6072 19.9128L42.8827 19.8348C42.7527 20.3921 42.6338 20.4032 42.6338 21.0719C42.6338 21.6626 43.3768 22.0564 43.3768 23.301C43.3768 23.6354 42.593 24.3004 42.5595 24.4192L41.3967 23.0558V24.7908L41.2221 24.7833L40.91 21.5809L40.2599 21.7852L39.4871 19.4038L36.9423 22.0639L36.9125 24.0106L36.0804 24.5678L35.1962 19.5747L34.6686 19.9611L33.4724 18.345L31.6854 18.397L31.0018 17.6132L30.2996 17.8063L28.9213 16.2274L28.6539 16.4095L29.5083 18.5939H30.5003V18.0998H30.9944C31.351 19.0881 31.7374 18.5011 31.7374 19.0918C31.7374 21.1537 29.1925 22.6694 27.5245 23.0558C27.6136 23.4273 27.5802 23.7988 28.0186 23.7988C28.9511 23.7988 28.4867 23.6354 29.5046 23.5499C29.4563 25.6564 27.0898 28.1715 26.0793 29.7356L26.5325 32.964C26.6514 33.6662 25.0762 34.4055 24.5412 35.1968L24.7976 36.4339L24.0731 36.7274C23.9468 37.998 22.7134 39.406 21.3276 39.406H19.8416C19.8416 37.6673 18.6008 35.1819 18.6008 33.9522C18.6008 32.9083 19.0949 32.7671 19.0949 31.4742C19.0949 30.278 17.8577 28.5653 17.8577 28.2532V26.2694H16.8658C16.7172 25.7158 16.8101 25.5263 16.1228 25.5263H15.8739C14.7928 25.5263 14.9748 26.0205 13.89 26.0205H12.8981C12.0027 26.0205 10.4201 23.1524 10.4201 22.7995V19.8274C10.4201 18.5456 11.594 17.1488 12.4039 16.6064V15.3692L13.5185 14.2361L14.1389 14.1321C15.4689 14.1321 15.3092 13.3891 16.1228 13.3891H18.3518V15.124L20.8038 16.1717L21.0342 15.1129C22.145 15.3729 22.4347 15.8671 23.8019 15.8671H24.296C25.2359 15.8671 25.288 14.6188 25.288 13.638L23.3041 13.8349L22.4385 11.955L21.5803 12.1817C21.7363 12.8541 21.818 12.5755 21.818 13.1439C21.818 13.4782 21.5431 13.5154 21.3202 13.638L20.462 11.4609L18.6156 10.1421L18.3704 10.3835L19.9419 12.0368C19.7339 12.6312 19.7079 14.3439 18.8422 13.1439L19.6521 12.7538L17.6311 10.6362L16.42 11.108L15.2237 12.2522C15.0974 13.1736 14.8485 13.638 13.8826 13.638C13.2398 13.638 13.6262 13.4708 12.6417 13.3891V10.9111H14.8708L14.1463 9.26158L13.8788 9.42504V8.92722L17.5011 7.25913C17.4342 6.73902 17.3488 7.01765 17.3488 6.44924C17.3488 6.4158 17.5902 5.95884 17.5977 5.95141L18.5339 6.53468L18.311 5.46845L16.8658 5.76566L16.5983 4.46908C17.7426 3.86723 20.2651 1.74219 21.0676 1.74219H21.8106C22.5945 1.74219 24.6898 2.51493 25.0316 2.97932L23.044 2.7787L24.5189 3.99355L24.6601 3.47343L25.7598 3.17251L25.7746 2.48521H26.2725V3.22823L29.0922 2.41462Z" fill="#A1E367"/>
</g>
<defs>
<clipPath id="clip0_6257_19860">
<rect width="45.6513" height="45.6513" fill="white"/>
</clipPath>
</defs>
</svg>
