<svg width="24" height="24" viewBox="0 0 24 24" fill="none" xmlns="http://www.w3.org/2000/svg">
<path d="M17.5415 8.30799C17.5415 6.8391 16.958 5.43037 15.9193 4.39171C14.8806 3.35305 13.4719 2.76953 12.003 2.76953C10.5341 2.76953 9.12538 3.35305 8.08672 4.39171C7.04806 5.43037 6.46454 6.8391 6.46454 8.30799C6.46454 14.7695 3.69531 16.6157 3.69531 16.6157H20.3107C20.3107 16.6157 17.5415 14.7695 17.5415 8.30799Z" stroke="#B0BABF" stroke-width="1.84615" stroke-linecap="round" stroke-linejoin="round"/>
<path d="M13.6001 20.3076C13.4378 20.5874 13.2049 20.8196 12.9246 20.981C12.6444 21.1425 12.3266 21.2274 12.0032 21.2274C11.6797 21.2274 11.362 21.1425 11.0817 20.981C10.8015 20.8196 10.5685 20.5874 10.4062 20.3076" stroke="#B0BABF" stroke-width="1.84615" stroke-linecap="round" stroke-linejoin="round"/>
</svg>
