<svg width="24" height="26" viewBox="0 0 24 26" fill="none" xmlns="http://www.w3.org/2000/svg">
<path d="M17.5415 10.308C17.5415 8.8391 16.958 7.43037 15.9193 6.39171C14.8806 5.35305 13.4719 4.76953 12.003 4.76953C10.5341 4.76953 9.12538 5.35305 8.08672 6.39171C7.04806 7.43037 6.46454 8.8391 6.46454 10.308C6.46454 16.7695 3.69531 18.6157 3.69531 18.6157H20.3107C20.3107 18.6157 17.5415 16.7695 17.5415 10.308Z" stroke="#B0BABF" stroke-width="1.84615" stroke-linecap="round" stroke-linejoin="round"/>
<path d="M13.6001 22.3076C13.4378 22.5874 13.2049 22.8196 12.9246 22.981C12.6444 23.1425 12.3266 23.2274 12.0032 23.2274C11.6797 23.2274 11.362 23.1425 11.0817 22.981C10.8015 22.8196 10.5685 22.5874 10.4062 22.3076" stroke="#B0BABF" stroke-width="1.84615" stroke-linecap="round" stroke-linejoin="round"/>
<circle cx="19" cy="4" r="4" fill="#CC4F4F"/>
</svg>
