<svg width="38" height="38" viewBox="0 0 38 38" fill="none" xmlns="http://www.w3.org/2000/svg">
<path fill-rule="evenodd" clip-rule="evenodd" d="M19 38C29.4934 38 38 29.4934 38 19C38 8.50659 29.4934 0 19 0C8.50659 0 0 8.50659 0 19C0 29.4934 8.50659 38 19 38Z" fill="white"/>
<path d="M17.4143 11.482L9.5913 24.5418C9.43 24.8212 9.34466 25.1378 9.34376 25.4604C9.34285 25.7829 9.42642 26.1001 9.58615 26.3803C9.74587 26.6605 9.97619 26.894 10.2542 27.0576C10.5322 27.2212 10.8481 27.3091 11.1707 27.3127H26.8166C27.1392 27.3091 27.4551 27.2212 27.7331 27.0576C28.0111 26.894 28.2414 26.6605 28.4012 26.3803C28.5609 26.1001 28.6445 25.7829 28.6436 25.4604C28.6427 25.1378 28.5573 24.8212 28.396 24.5418L20.573 11.482C20.4084 11.2105 20.1765 10.9861 19.8999 10.8304C19.6233 10.6746 19.3111 10.5928 18.9937 10.5928C18.6762 10.5928 18.3641 10.6746 18.0874 10.8304C17.8108 10.9861 17.5789 11.2105 17.4143 11.482Z" stroke="#FD9101" stroke-width="1.84722" stroke-linecap="round" stroke-linejoin="round"/>
<path d="M19 16.2295V19.9239" stroke="#FD9101" stroke-width="1.84722" stroke-linecap="round" stroke-linejoin="round"/>
<path d="M19 23.6172H19.0082" stroke="#FD9101" stroke-width="1.84722" stroke-linecap="round" stroke-linejoin="round"/>
</svg>
