<svg width="83" height="94" viewBox="0 0 83 94" fill="none" xmlns="http://www.w3.org/2000/svg">
<path d="M0.770408 14.7685C-6.65837 76.5321 42.0841 93.3672 42.0841 93.3672C42.0841 93.3672 86.8364 75.4618 81.6929 14.9198C81.6929 14.9198 55.5765 20.703 42.0841 0C42.0841 0 32.1649 20.0688 0.770408 14.7685Z" fill="#F0ECFF"/>
<path d="M54.7978 39.0671H52.8408V34.4691C52.8131 31.2017 51.5592 28.0782 49.352 25.7781C47.1449 23.478 44.1631 22.1875 41.0555 22.1875C37.948 22.1875 34.9662 23.478 32.7591 25.7781C30.5519 28.0782 29.298 31.2017 29.2703 34.4691V39.0671H27.3143C26.4197 39.0671 25.5618 39.4407 24.9293 40.1058C24.2968 40.7709 23.9414 41.673 23.9414 42.6135V65.7332C23.9414 66.6738 24.2968 67.5759 24.9293 68.241C25.5618 68.9061 26.4197 69.2797 27.3143 69.2797H54.7996C55.6942 69.2797 56.5521 68.9061 57.1846 68.241C57.8172 67.5759 58.1725 66.6738 58.1725 65.7332V42.6135C58.1725 42.1477 58.0852 41.6863 57.9156 41.2559C57.746 40.8255 57.4974 40.4345 57.184 40.1051C56.8706 39.7758 56.4985 39.5146 56.0891 39.3365C55.6796 39.1584 55.2408 39.0668 54.7978 39.0671ZM33.1013 34.4691C33.1241 32.2667 33.9722 30.1626 35.4614 28.6137C36.9506 27.0647 38.9608 26.196 41.0555 26.196C43.1503 26.196 45.1605 27.0647 46.6497 28.6137C48.1389 30.1626 48.987 32.2667 49.0098 34.4691V39.0671H33.1013V34.4691Z" fill="#8075A1"/>
</svg>
