<svg width="96" height="95" viewBox="0 0 96 95" fill="none" xmlns="http://www.w3.org/2000/svg">
<g clip-path="url(#clip0_2745_2306)">
<path fill-rule="evenodd" clip-rule="evenodd" d="M81.4227 74.1757L92.6438 85.54V90.8902H87.3364V86.8678H82.9364V82.4697H78.7281L77.51 78.5068C75.5722 79.7974 73.2216 80.5561 70.6851 80.5561C64.0499 80.5561 58.6662 75.364 58.6662 68.9668C58.6662 62.5641 64.0499 57.3757 70.6851 57.3757C77.324 57.3757 82.704 62.5641 82.704 68.9668C82.704 70.8376 82.2409 72.6061 81.4227 74.1757ZM68.9035 63.9644C70.7409 63.9644 72.2323 65.4577 72.2323 67.295C72.2323 69.1323 70.7409 70.6256 68.9035 70.6256C67.0662 70.6256 65.5729 69.1323 65.5729 67.295C65.5729 65.4577 67.0662 63.9644 68.9035 63.9644ZM28.3596 48.1035C26.0518 44.9458 23.9857 41.379 21.9066 38.0521C20.4059 35.8391 19.6155 33.8623 19.6155 32.2798C19.6155 30.5912 20.5119 28.6144 22.3009 28.1681C22.0684 24.7668 21.9884 21.4064 22.1446 17.7671C22.2246 16.8968 22.3827 16.0265 22.6207 15.1561C23.651 11.5168 26.1801 8.58974 29.3433 6.61294C30.4517 5.9007 31.6381 5.34838 32.9845 4.87418C35.2793 4.00014 34.171 0.520747 36.7038 0.440783C42.6342 0.284573 52.3676 5.34838 56.1631 9.46006C58.378 11.8311 59.8043 14.9962 60.0405 19.1916L59.8043 28.5586C60.9108 28.8766 61.623 29.5889 61.9373 30.6972C62.2553 31.9618 61.9373 33.7042 60.8308 36.1571C60.8308 36.2371 60.749 36.2371 60.749 36.3133C58.311 40.3395 55.7726 44.9923 52.9683 48.7265C51.5605 50.6066 50.4019 50.27 51.6033 52.0738C51.9306 52.5238 52.2728 52.9423 52.6335 53.3458C52.799 53.1673 52.9683 52.9906 53.1431 52.8195C57.6025 48.362 63.7654 45.6004 70.5698 45.6004C77.3742 45.6004 83.5352 48.362 87.9928 52.8195C92.456 57.279 95.2138 63.4418 95.2138 70.2481C95.2138 72.8312 94.8103 75.3212 94.072 77.6681L89.9361 73.4765C90.1109 72.4239 90.2002 71.3453 90.2002 70.2481C90.2002 59.4045 81.4134 50.614 70.5698 50.614C65.5766 50.614 61.0168 52.4811 57.5541 55.5476C49.2862 62.8579 48.8789 75.271 55.7949 83.1689L55.9641 83.3605C59.689 87.4963 64.9369 89.8767 70.5698 89.8767C72.7047 89.8767 74.7614 89.5326 76.688 88.9004C76.9749 89.7813 77.4447 90.5916 78.0668 91.2781C78.6889 91.9646 79.4491 92.5117 80.2976 92.8837C77.311 94.1743 74.0194 94.8903 70.5698 94.8903C63.7784 94.8903 57.6229 92.1287 53.1635 87.6711L53.1431 87.6525C52.3081 86.8175 51.5345 85.9231 50.8259 84.9728H0C0 56.2431 21.3041 63.9439 29.9384 52.0738C31.2606 50.0877 29.6967 49.9352 28.3596 48.1035Z" fill="black"/>
<rect x="62" y="60" width="17" height="17" rx="8.5" fill="white"/>
<path fill-rule="evenodd" clip-rule="evenodd" d="M70.5 60C72.1811 60 73.8245 60.4985 75.2223 61.4325C76.6202 62.3665 77.7096 63.694 78.353 65.2472C78.9963 66.8004 79.1646 68.5094 78.8367 70.1583C78.5087 71.8071 77.6991 73.3217 76.5104 74.5104C75.3217 75.6992 73.8071 76.5087 72.1583 76.8367C70.5094 77.1646 68.8004 76.9963 67.2472 76.353C65.694 75.7096 64.3665 74.6202 63.4325 73.2223C62.4985 71.8245 62 70.1811 62 68.5C62 66.2457 62.8955 64.0837 64.4896 62.4896C66.0837 60.8955 68.2457 60 70.5 60ZM68.5448 68.2951C68.7893 68.5 69.0187 68.7222 69.2313 68.96C69.8818 67.9169 70.6023 66.9191 71.3877 65.9734C73.5442 63.3928 72.5558 63.8924 75.5209 63.8924L75.0896 64.3596C74.0858 65.4981 73.1736 66.7143 72.3617 67.9968C71.3333 69.4826 70.4006 71.0324 69.5691 72.6368L69.314 73.1328L69.0767 72.6296C68.6581 71.7149 68.1282 70.8554 67.4989 70.0706C66.9313 69.3546 66.2546 68.7324 65.4934 68.2268C65.878 66.9581 67.7182 67.6087 68.5412 68.3059L68.5448 68.2951Z" fill="#56B320"/>
<path fill-rule="evenodd" clip-rule="evenodd" d="M70.5 60C72.1811 60 73.8245 60.4985 75.2223 61.4325C76.6202 62.3665 77.7096 63.694 78.353 65.2472C78.9963 66.8004 79.1646 68.5094 78.8367 70.1583C78.5087 71.8071 77.6991 73.3217 76.5104 74.5104C75.3217 75.6992 73.8071 76.5087 72.1583 76.8367C70.5094 77.1646 68.8004 76.9963 67.2472 76.353C65.694 75.7096 64.3665 74.6202 63.4325 73.2223C62.4985 71.8245 62 70.1811 62 68.5C62 66.2457 62.8955 64.0837 64.4896 62.4896C66.0837 60.8955 68.2457 60 70.5 60ZM68.5448 68.2951C68.7893 68.5 69.0187 68.7222 69.2313 68.96C69.8818 67.9169 70.6023 66.9191 71.3877 65.9734C73.5442 63.3928 72.5558 63.8924 75.5209 63.8924L75.0896 64.3596C74.0858 65.4981 73.1736 66.7143 72.3617 67.9968C71.3333 69.4826 70.4006 71.0324 69.5691 72.6368L69.314 73.1328L69.0767 72.6296C68.6581 71.7149 68.1282 70.8554 67.4989 70.0706C66.9313 69.3546 66.2546 68.7324 65.4934 68.2268C65.878 66.9581 67.7182 67.6087 68.5412 68.3059L68.5448 68.2951Z" fill="black" fill-opacity="0.2"/>
</g>
<defs>
<clipPath id="clip0_2745_2306">
<rect width="95.2138" height="94.4532" fill="white" transform="translate(0 0.437012)"/>
</clipPath>
</defs>
</svg>
