<svg width="24" height="24" viewBox="0 0 24 24" fill="none" xmlns="http://www.w3.org/2000/svg">
<path d="M20.7568 2.44727H3.24327C2.36395 2.44727 1.65112 3.1601 1.65112 4.03941V10.408C1.65112 11.2873 2.36395 12.0001 3.24327 12.0001H20.7568C21.6362 12.0001 22.349 11.2873 22.349 10.408V4.03941C22.349 3.1601 21.6362 2.44727 20.7568 2.44727Z" stroke="#4F5962" stroke-width="1.71" stroke-linecap="round" stroke-linejoin="round"/>
<path d="M6.42754 8.01988C6.8672 8.01988 7.22361 7.66346 7.22361 7.22381C7.22361 6.78415 6.8672 6.42773 6.42754 6.42773C5.98789 6.42773 5.63147 6.78415 5.63147 7.22381C5.63147 7.66346 5.98789 8.01988 6.42754 8.01988Z" stroke="#4F5962" stroke-width="1.71" stroke-linecap="round" stroke-linejoin="round"/>
<path d="M12.7961 7.22363H18.3686" stroke="#4F5962" stroke-width="1.71" stroke-linecap="round" stroke-linejoin="round"/>
<path d="M3.24327 12C2.821 12 2.41604 12.1677 2.11745 12.4663C1.81887 12.7649 1.65112 13.1699 1.65112 13.5921V19.9607C1.65112 20.383 1.81887 20.788 2.11745 21.0865C2.41604 21.385 2.821 21.5529 3.24327 21.5529H20.7568C21.1791 21.5529 21.5841 21.385 21.8826 21.0865C22.1812 20.788 22.349 20.383 22.349 19.9607V13.5921C22.349 13.1699 22.1812 12.7649 21.8826 12.4663C21.5841 12.1677 21.1791 12 20.7568 12" stroke="#4F5962" stroke-width="1.71" stroke-linecap="round" stroke-linejoin="round"/>
<path d="M6.42754 17.5726C6.8672 17.5726 7.22361 17.2161 7.22361 16.7765C7.22361 16.3369 6.8672 15.9805 6.42754 15.9805C5.98789 15.9805 5.63147 16.3369 5.63147 16.7765C5.63147 17.2161 5.98789 17.5726 6.42754 17.5726Z" stroke="#4F5962" stroke-width="1.71" stroke-linecap="round" stroke-linejoin="round"/>
<path d="M12.7961 16.7764H18.3686" stroke="#4F5962" stroke-width="1.71" stroke-linecap="round" stroke-linejoin="round"/>
</svg>
