<svg width="100" height="100" viewBox="0 0 100 100" fill="none" xmlns="http://www.w3.org/2000/svg">
<rect x="0.5" y="0.5" width="99" height="99" rx="2.83333" fill="white"/>
<rect x="0.5" y="0.5" width="99" height="99" rx="2.83333" stroke="#A4A9AE" stroke-dasharray="9.17 9.17"/>
<path d="M64.5 38.3243C64.5 46.2354 58.0081 52.6486 50 52.6486C41.9919 52.6486 35.5 46.2354 35.5 38.3243C35.5 30.4132 41.9919 24 50 24C58.0081 24 64.5 30.4132 64.5 38.3243Z" fill="#D1D4D7"/>
<path d="M25.1667 77C22.8655 77 20.9474 75.0947 21.6313 72.8975C22.7869 69.185 25.4967 65.7469 29.4939 63.0222C34.9324 59.3151 42.3087 57.2324 50 57.2324C57.6912 57.2324 65.0675 59.3151 70.5061 63.0222C74.5033 65.7468 77.2131 69.185 78.3687 72.8975C79.0526 75.0947 77.1345 77 74.8333 77L25.1667 77Z" fill="#D1D4D7"/>
</svg>
