<svg width="196" height="196" viewBox="0 0 196 196" fill="none" xmlns="http://www.w3.org/2000/svg">
<g opacity="0.6">
<path d="M195.596 15.5821V109.895C195.596 123.017 190.266 135.318 181.244 144.75L134.908 191.086C132.038 193.956 127.937 195.596 123.837 195.596H84.4714C77.0904 195.596 73.81 186.985 78.7306 181.655L141.879 118.506C145.16 116.046 146.8 111.945 146.8 107.845V64.3787C146.8 55.7675 139.829 48.7966 131.218 48.7966H87.7518C83.6513 48.7966 79.5507 50.4368 76.6804 53.3072L13.9419 116.456C8.61116 121.786 0 118.096 0 110.715V71.7597C0 67.6591 1.64022 63.5586 4.5106 60.6882L50.8469 14.3519C59.8681 5.33072 72.1697 0 85.2915 0H180.014C188.625 0.410055 195.596 6.97094 195.596 15.5821Z" fill="#EA7024" fill-opacity="0.5"/>
<path d="M92.6531 68.8739C89.7827 68.8739 86.9123 70.1041 84.452 72.1544L32.785 123.821L3.67107 152.935C1.6208 154.986 0.390625 157.856 0.390625 161.136V184.099C0.390625 190.25 5.31129 195.581 11.8722 195.581H44.2665C50.4174 195.581 55.7481 190.66 55.7481 184.099C55.7481 181.229 56.9783 178.359 59.0285 175.898L123.817 111.11C125.868 109.059 127.098 106.189 127.098 102.909V79.9454C127.098 73.7946 122.177 68.4639 115.616 68.4639H92.6531V68.8739Z" fill="#180B3E" fill-opacity="0.5"/>
</g>
</svg>
