<svg width="284" height="284" viewBox="0 0 284 284" fill="none" xmlns="http://www.w3.org/2000/svg">
<path d="M201.4 93.2999V153.2C201.4 161.5 198.1 169.4 192.3 175.2L163 204.5C161.2 206.3 158.7 207.4 156.1 207.4H131.2C126.6 207.4 124.3 201.9 127.6 198.6L167.6 158.6C169.4 156.8 170.5 154.3 170.5 151.7V124.2C170.5 118.8 166.1 114.4 160.7 114.4H133.2C130.6 114.4 128.1 115.4 126.3 117.3L86.4001 157.2C83.1001 160.5 77.6001 158.2 77.6001 153.5V128.7C77.6001 126.1 78.6001 123.6 80.5001 121.8L109.9 92.3999C115.7 86.5999 123.5 83.3999 131.7 83.3999H191.7C197 83.5999 201.4 87.8999 201.4 93.2999Z" fill="#EA7024"/>
<path d="M136.2 127C134.3 127 132.4 127.8 131.1 129.1L98.2001 162L79.7001 180.5C78.3001 181.9 77.6001 183.7 77.6001 185.6V200.1C77.6001 204.1 80.8001 207.4 84.9001 207.4H105.4C109.4 207.4 112.7 204.2 112.7 200.1C112.7 198.2 113.5 196.3 114.8 195L155.9 153.9C157.3 152.5 158 150.7 158 148.8V134.3C158 130.3 154.8 127 150.7 127H136.2Z" fill="#3B2A6F"/>
</svg>
