<svg width="70" height="70" viewBox="0 0 70 70" fill="none" xmlns="http://www.w3.org/2000/svg">
<rect width="70" height="70" fill="white"/>
<path d="M60.4183 13.9919V38.1451C60.4183 41.4919 59.0877 44.6774 56.749 47.0161L44.9345 58.8306C44.2087 59.5564 43.2006 60 42.1522 60H32.1119C30.2571 60 29.3297 57.7822 30.6603 56.4516L46.7893 40.3226C47.5151 39.5968 47.9587 38.5887 47.9587 37.5403V26.4516C47.9587 24.2742 46.1845 22.5 44.0071 22.5H32.9184C31.87 22.5 30.8619 22.9032 30.1361 23.6693L14.0474 39.758C12.7168 41.0887 10.499 40.1613 10.499 38.2661V28.2661C10.499 27.2177 10.9022 26.2097 11.6684 25.4839L23.5232 13.629C25.8619 11.2903 29.0071 10 32.3135 10H56.5071C58.6441 10.0806 60.4183 11.8145 60.4183 13.9919Z" fill="#EA7024"/>
<path d="M34.128 27.5806C33.3619 27.5806 32.5958 27.9031 32.0716 28.4273L18.8055 41.6935L11.3458 49.1531C10.7813 49.7176 10.499 50.4435 10.499 51.2096V57.0564C10.499 58.6693 11.7893 59.9999 13.4426 59.9999H21.7087C23.3216 59.9999 24.6522 58.7096 24.6522 57.0564C24.6522 56.2902 24.9748 55.5241 25.499 54.9999L42.0716 38.4273C42.6361 37.8628 42.9184 37.137 42.9184 36.3709V30.5241C42.9184 28.9112 41.628 27.5806 39.9748 27.5806H34.128Z" fill="#3B2A6F"/>
</svg>
