<svg width="197" height="197" viewBox="0 0 197 197" fill="none" xmlns="http://www.w3.org/2000/svg">
<g opacity="0.05" clip-path="url(#clip0_4140_5917)">
<path d="M196.891 15.7658V110.634C196.891 123.779 191.653 136.291 182.446 145.477L135.938 191.881C133.081 194.732 129.113 196.474 124.986 196.474H85.4622C78.1606 196.474 74.5098 187.764 79.7479 182.537L143.24 119.186C146.097 116.335 147.843 112.376 147.843 108.258V64.7044C147.843 56.152 140.859 49.1834 132.288 49.1834H88.6368C84.5098 49.1834 80.5415 50.7672 77.6844 53.7764L14.3511 116.969C9.11298 122.195 0.382812 118.553 0.382812 111.109V71.8314C0.382812 67.7136 1.97012 63.7542 4.98599 60.9034L51.6527 14.3404C60.859 5.1545 73.24 0.0864258 86.2558 0.0864258H181.494C189.907 0.403181 196.891 7.21341 196.891 15.7658Z" fill="#EA7024"/>
<path d="M93.3987 69.1392C90.3828 69.1392 87.367 70.4062 85.3035 72.4651L33.0812 124.571L3.71614 153.871C1.49392 156.088 0.382812 158.939 0.382812 161.948V184.913C0.382812 191.248 5.46218 196.475 11.9701 196.475H44.5098C50.859 196.475 56.0971 191.407 56.0971 184.913C56.0971 181.904 57.3669 178.895 59.4304 176.836L124.669 111.743C126.891 109.525 128.002 106.675 128.002 103.665V80.7007C128.002 74.3656 122.922 69.1392 116.415 69.1392H93.3987Z" fill="#3B2A6F"/>
</g>
<defs>
<clipPath id="clip0_4140_5917">
<rect width="197" height="197" fill="white"/>
</clipPath>
</defs>
</svg>
