<svg width="144" height="143" viewBox="0 0 144 143" fill="none" xmlns="http://www.w3.org/2000/svg">
<g clip-path="url(#clip0_2429_8790)">
<path fill-rule="evenodd" clip-rule="evenodd" d="M64.4046 0C71.2822 4.40925 78.4582 8.33477 85.8806 11.7481C83.8246 14.3259 82.1057 17.1554 80.7656 20.168C75.1477 17.4179 69.6893 14.3534 64.4163 10.9891C48.429 23.4145 30.0361 29.5922 9.96151 28.5061C8.44336 86.3359 30.0361 118.427 64.6265 131.016C89.3723 121.674 107.205 102.849 114.971 74.0506H115.858C118.811 74.0529 121.754 73.7119 124.628 73.0346C115.846 108.127 94.8376 130.619 64.6265 142.005C22.9358 126.812 -1.73991 89.5123 0.0935487 19.8527C22.0249 21.0205 43.5476 16.2559 64.4046 0.0583903V0Z" fill="black"/>
<path fill-rule="evenodd" clip-rule="evenodd" d="M47.0623 61.9989H48.814V58.1334C48.8047 53.8384 50.4529 49.7055 53.4152 46.5955C54.8496 45.0617 56.5838 43.8388 58.5102 43.0028C60.4367 42.1667 62.5144 41.7354 64.6144 41.7354C66.7145 41.7354 68.7921 42.1667 70.7186 43.0028C72.6451 43.8388 74.3793 45.0617 75.8137 46.5955C78.8047 49.6924 80.479 53.828 80.4849 58.1334V61.9989H82.2249C82.9094 61.9989 83.5659 62.2708 84.0499 62.7548C84.5339 63.2388 84.8058 63.8952 84.8058 64.5797V91.848C84.8027 92.5315 84.5298 93.1862 84.0465 93.6695C83.5631 94.1529 82.9085 94.4258 82.2249 94.4289H47.0623C46.3788 94.4258 45.7241 94.1529 45.2408 93.6695C44.7574 93.1862 44.4845 92.5315 44.4814 91.848V64.5797C44.4814 63.8952 44.7534 63.2388 45.2374 62.7548C45.7214 62.2708 46.3778 61.9989 47.0623 61.9989ZM53.6954 61.9989H75.5451V58.1334C75.5642 55.0928 74.4048 52.163 72.3103 49.9588C71.3268 48.9031 70.1364 48.0613 68.8134 47.4857C67.4904 46.9101 66.0631 46.613 64.6203 46.613C63.1775 46.613 61.7501 46.9101 60.4271 47.4857C59.1041 48.0613 57.9138 48.9031 56.9303 49.9588C54.8357 52.163 53.6763 55.0928 53.6954 58.1334V61.9989ZM62.5007 79.4109L59.7213 86.7097H69.5192L66.9384 79.3058C67.9567 78.7796 68.7665 77.9237 69.2358 76.8779C69.705 75.8321 69.8059 74.6582 69.522 73.5477C69.238 72.4371 68.586 71.4557 67.6724 70.7634C66.7588 70.0712 65.6375 69.7091 64.4916 69.7363C63.3457 69.7634 62.2428 70.1782 61.363 70.9129C60.4832 71.6476 59.8784 72.6588 59.6474 73.7815C59.4163 74.9042 59.5727 76.0721 60.0909 77.0945C60.6091 78.1169 61.4586 78.9335 62.5007 79.4109Z" fill="black"/>
<path fill-rule="evenodd" clip-rule="evenodd" d="M115.881 8.0813C121.344 8.0813 126.684 9.7011 131.225 12.7359C135.767 15.7706 139.307 20.0841 141.398 25.1307C143.488 30.1774 144.035 35.7306 142.969 41.088C141.904 46.4455 139.273 51.3667 135.411 55.2292C131.548 59.0918 126.627 61.7222 121.269 62.7878C115.912 63.8535 110.359 63.3066 105.312 61.2162C100.265 59.1258 95.952 55.5859 92.9173 51.044C89.8825 46.5021 88.2627 41.1624 88.2627 35.6999C88.2627 28.375 91.1725 21.3501 96.352 16.1706C101.531 10.9911 108.556 8.0813 115.881 8.0813ZM109.528 35.0343C110.323 35.6999 111.068 36.4219 111.759 37.1947C113.873 33.8053 116.214 30.5631 118.766 27.4902C125.773 19.1054 122.561 20.7286 132.196 20.7286L130.794 22.2468C127.532 25.9461 124.569 29.8978 121.931 34.065C118.589 38.8928 115.558 43.9284 112.857 49.1414L112.028 50.7529L111.257 49.118C109.897 46.146 108.175 43.3532 106.13 40.8032C104.286 38.4767 102.087 36.455 99.6138 34.8124C100.863 30.69 106.842 32.8038 109.517 35.0693L109.528 35.0343Z" fill="#56B320"/>
</g>
<defs>
<clipPath id="clip0_2429_8790">
<rect width="143.5" height="142.04" fill="white"/>
</clipPath>
</defs>
</svg>
