<svg width="128" height="32" viewBox="0 0 128 32" fill="none" xmlns="http://www.w3.org/2000/svg">
<g clip-path="url(#clip0_3610_4099)">
<path d="M32.7639 7.86607V18.2031C32.7639 19.6413 32.1796 20.9897 31.1909 22.0234L26.1122 27.102C25.7976 27.4166 25.3482 27.5964 24.8987 27.5964H20.5841C19.7751 27.5964 19.4156 26.6526 19.9549 26.0683L26.8762 19.147C27.2358 18.8773 27.4156 18.4279 27.4156 17.9784V13.2144C27.4156 12.2706 26.6515 11.5065 25.7077 11.5065H20.9437C20.4942 11.5065 20.0448 11.6863 19.7302 12.0009L12.8538 18.9222C12.2695 19.5065 11.3257 19.102 11.3257 18.293V14.0234C11.3257 13.5739 11.5055 13.1245 11.8201 12.8099L16.8987 7.73124C17.8875 6.74247 19.2358 6.1582 20.674 6.1582H31.056C31.9998 6.20315 32.7639 6.92225 32.7639 7.86607Z" fill="#EA7024"/>
<path d="M21.483 13.7071C21.1684 13.7071 20.8538 13.8419 20.5841 14.0666L14.9212 19.7295L11.7302 22.9205C11.5054 23.1453 11.3706 23.4599 11.3706 23.8194V26.3363C11.3706 27.0104 11.9099 27.5947 12.629 27.5947H16.1796C16.8538 27.5947 17.438 27.0554 17.438 26.3363C17.438 26.0217 17.5729 25.7071 17.7976 25.4374L24.8987 18.3363C25.1234 18.1115 25.2582 17.7969 25.2582 17.4374V14.9205C25.2582 14.2464 24.7189 13.6621 23.9998 13.6621H21.483V13.7071Z" fill="#3B2A6F"/>
<path d="M40.2078 18.96H38.4057C38.1089 18.96 37.9605 18.8116 37.9605 18.5147V5.77278C37.9605 5.47596 38.1089 5.32755 38.4057 5.32755H43.5788C44.6813 5.32755 45.5364 5.63144 46.1442 6.23921C46.7519 6.83284 47.0558 7.68089 47.0558 8.78336V10.8187C47.0558 11.9211 46.7519 12.7763 46.1442 13.384C45.5364 13.9777 44.6813 14.2745 43.5788 14.2745H40.9075C40.7378 14.2745 40.653 14.3522 40.653 14.5077V18.5147C40.653 18.8116 40.5046 18.96 40.2078 18.96ZM40.8863 11.9211H43.1336C43.5859 11.9211 43.9039 11.8293 44.0876 11.6455C44.2714 11.4476 44.3633 11.1296 44.3633 10.6915V8.91056C44.3633 8.45827 44.2714 8.14025 44.0876 7.95651C43.9039 7.75863 43.5859 7.65969 43.1336 7.65969H40.8863C40.7308 7.65969 40.653 7.73743 40.653 7.89291V11.6879C40.653 11.8434 40.7308 11.9211 40.8863 11.9211ZM52.786 18.96H52.2771C51.1605 18.96 50.2983 18.6631 49.6906 18.0695C49.0828 17.4759 48.7789 16.6208 48.7789 15.5042V11.6031C48.7789 10.4865 49.0828 9.63141 49.6906 9.03777C50.2983 8.44414 51.1605 8.14732 52.2771 8.14732H57.1746C57.4856 8.14732 57.641 8.29573 57.641 8.59255V18.5147C57.641 18.8116 57.4856 18.96 57.1746 18.96H55.3937C55.0969 18.96 54.9485 18.8116 54.9485 18.5147V17.8151H54.8637C54.7082 18.1967 54.4326 18.4865 54.0368 18.6843C53.6411 18.8681 53.2241 18.96 52.786 18.96ZM54.9485 15.0165V10.7127C54.9485 10.5572 54.8637 10.4795 54.6941 10.4795H52.7011C52.2489 10.4795 51.9308 10.5784 51.7471 10.7763C51.5633 10.96 51.4715 11.278 51.4715 11.7303V15.3769C51.4715 15.8292 51.5633 16.1543 51.7471 16.3522C51.9308 16.536 52.2489 16.6278 52.7011 16.6278H53.4856C54.4609 16.6278 54.9485 16.0907 54.9485 15.0165ZM61.7239 22.543H60.3671C60.0844 22.543 59.943 22.3875 59.943 22.0765V20.6561C59.943 20.3451 60.0844 20.1896 60.3671 20.1896H60.8123C61.7027 20.1896 62.3034 20.0624 62.6144 19.808C62.9395 19.5677 63.1868 19.0942 63.3564 18.3875H62.2328C61.9642 18.3875 61.7875 18.2391 61.7027 17.9423L59.2222 8.59255C59.1374 8.29573 59.2434 8.14732 59.5402 8.14732H61.4271C61.7098 8.14732 61.8865 8.29573 61.9572 8.59255L63.7805 16.4158H63.8653L65.6674 8.59255C65.7239 8.29573 65.9006 8.14732 66.1974 8.14732H67.9783C68.3317 8.14732 68.473 8.3028 68.4023 8.61375L65.8158 18.96C65.5048 20.1331 65.0243 21.0235 64.3741 21.6313C63.7239 22.2391 62.8405 22.543 61.7239 22.543ZM72.1911 18.96H70.389C70.0921 18.96 69.9437 18.8116 69.9437 18.5147V8.59255C69.9437 8.29573 70.0921 8.14732 70.389 8.14732H72.1911C72.4879 8.14732 72.6363 8.29573 72.6363 8.59255V9.29219H72.7211C72.8907 8.95297 73.1734 8.67735 73.5691 8.46534C73.979 8.25333 74.4455 8.14732 74.9684 8.14732H75.5621C76.7917 8.14732 77.6751 8.59961 78.2122 9.5042C78.6928 8.59961 79.5196 8.14732 80.6928 8.14732H81.3076C82.3959 8.14732 83.2157 8.44414 83.767 9.03777C84.3323 9.63141 84.615 10.4865 84.615 11.6031V18.5147C84.615 18.8116 84.4666 18.96 84.1698 18.96H82.3677C82.0709 18.96 81.9224 18.8116 81.9224 18.5147V11.7303C81.9224 11.278 81.8306 10.96 81.6468 10.7763C81.4631 10.5784 81.1451 10.4795 80.6928 10.4795H80.1627C79.1875 10.4795 78.6999 11.0236 78.6999 12.112V18.5147C78.6999 18.8116 78.5444 18.96 78.2334 18.96H76.4525C76.1557 18.96 76.0073 18.8116 76.0073 18.5147V11.7303C76.0073 11.278 75.9084 10.96 75.7105 10.7763C75.5267 10.5784 75.2087 10.4795 74.7564 10.4795H74.0992C73.1239 10.4795 72.6363 11.0166 72.6363 12.0908V18.5147C72.6363 18.8116 72.4879 18.96 72.1911 18.96ZM90.6542 18.96H90.1454C89.0288 18.96 88.1666 18.6631 87.5588 18.0695C86.9511 17.4759 86.6472 16.6208 86.6472 15.5042V11.6031C86.6472 10.4865 86.9511 9.63141 87.5588 9.03777C88.1666 8.44414 89.0288 8.14732 90.1454 8.14732H95.0429C95.3538 8.14732 95.5093 8.29573 95.5093 8.59255V18.5147C95.5093 18.8116 95.3538 18.96 95.0429 18.96H93.262C92.9652 18.96 92.8167 18.8116 92.8167 18.5147V17.8151H92.7319C92.5765 18.1967 92.3008 18.4865 91.9051 18.6843C91.5093 18.8681 91.0924 18.96 90.6542 18.96ZM92.8167 15.0165V10.7127C92.8167 10.5572 92.7319 10.4795 92.5623 10.4795H90.5694C90.1171 10.4795 89.7991 10.5784 89.6154 10.7763C89.4316 10.96 89.3397 11.278 89.3397 11.7303V15.3769C89.3397 15.8292 89.4316 16.1543 89.6154 16.3522C89.7991 16.536 90.1171 16.6278 90.5694 16.6278H91.3539C92.3291 16.6278 92.8167 16.0907 92.8167 15.0165ZM101.628 18.96H101.119C100.002 18.96 99.1399 18.6631 98.5321 18.0695C97.9244 17.4759 97.6205 16.6208 97.6205 15.5042V11.6031C97.6205 10.4865 97.9244 9.63141 98.5321 9.03777C99.1399 8.44414 100.002 8.14732 101.119 8.14732H106.016C106.327 8.14732 106.483 8.29573 106.483 8.59255V18.5147C106.483 18.8116 106.327 18.96 106.016 18.96H104.235C103.938 18.96 103.79 18.8116 103.79 18.5147V17.8151H103.705C103.55 18.1967 103.274 18.4865 102.878 18.6843C102.483 18.8681 102.066 18.96 101.628 18.96ZM103.79 15.0165V10.7127C103.79 10.5572 103.705 10.4795 103.536 10.4795H101.543C101.09 10.4795 100.772 10.5784 100.589 10.7763C100.405 10.96 100.313 11.278 100.313 11.7303V15.3769C100.313 15.8292 100.405 16.1543 100.589 16.3522C100.772 16.536 101.09 16.6278 101.543 16.6278H102.327C103.302 16.6278 103.79 16.0907 103.79 15.0165ZM111.053 18.96H109.251C108.954 18.96 108.806 18.8116 108.806 18.5147V8.59255C108.806 8.29573 108.954 8.14732 109.251 8.14732H111.053C111.35 8.14732 111.498 8.29573 111.498 8.59255V9.31339H111.583C111.739 8.93177 112.014 8.64202 112.41 8.44414C112.806 8.24626 113.223 8.14732 113.661 8.14732H114.424C114.707 8.14732 114.848 8.29573 114.848 8.59255V10.0554C114.848 10.225 114.813 10.3452 114.742 10.4159C114.686 10.4724 114.58 10.4936 114.424 10.4795H112.961C111.986 10.4795 111.498 11.0307 111.498 12.1332V18.5147C111.498 18.8116 111.35 18.96 111.053 18.96ZM116.43 10.4795H115.582C115.413 10.4795 115.293 10.4512 115.222 10.3947C115.165 10.3381 115.137 10.225 115.137 10.0554V8.59255C115.137 8.29573 115.286 8.14732 115.582 8.14732H116.43C116.586 8.14732 116.664 8.06958 116.664 7.91411V5.89999C116.664 5.60317 116.819 5.45476 117.13 5.45476H118.911C119.208 5.45476 119.356 5.60317 119.356 5.89999V7.91411C119.356 8.06958 119.441 8.14732 119.611 8.14732H121.264C121.561 8.14732 121.71 8.29573 121.71 8.59255V10.0554C121.71 10.2109 121.674 10.324 121.604 10.3947C121.547 10.4512 121.434 10.4795 121.264 10.4795H119.611C119.441 10.4795 119.356 10.5572 119.356 10.7127V15.3981C119.356 15.8363 119.455 16.1543 119.653 16.3522C119.851 16.536 120.176 16.6278 120.628 16.6278H121.476C121.773 16.6278 121.922 16.7762 121.922 17.073V18.5359C121.922 18.6914 121.886 18.8045 121.816 18.8752C121.759 18.9317 121.646 18.96 121.476 18.96H120.183C119.066 18.96 118.197 18.6631 117.575 18.0695C116.968 17.4759 116.664 16.6278 116.664 15.5254V10.7127C116.664 10.5572 116.586 10.4795 116.43 10.4795Z" fill="#3B2A6F"/>
</g>
<defs>
<clipPath id="clip0_3610_4099">
<rect width="127.416" height="32" fill="white"/>
</clipPath>
</defs>
</svg>
