<svg width="60" height="60" viewBox="0 0 60 60" fill="none" xmlns="http://www.w3.org/2000/svg">
<path d="M16.0254 25.0684L23.3447 24.9707L23.8916 25.1123C25.3711 25.9619 26.7627 26.9385 28.0615 28.0371C28.999 28.833 29.8975 29.6973 30.7471 30.6348C33.374 26.4111 36.1719 22.5293 39.126 18.9648C42.3633 15.0586 45.7959 11.5088 49.4043 8.27149L50.1172 7.99805H58.1055L56.4941 9.78516C51.5479 15.2832 47.0557 20.9668 42.998 26.8262C38.9355 32.7002 35.3076 38.7549 32.0801 44.9854L31.0742 46.9238L30.1514 44.9512C28.4473 41.2988 26.4111 37.9443 23.9795 34.9463C21.5479 31.9482 18.7207 29.2871 15.4248 27.0264L16.0254 25.0684Z" fill="#39B54A"/>
<path d="M30 0C34.6533 0 39.0576 1.05957 42.9932 2.94922C41.3818 4.22363 39.8877 5.44434 38.4961 6.62598C35.8447 5.66406 32.9883 5.13672 30.0049 5.13672C23.1396 5.13672 16.9238 7.91992 12.4268 12.4219C7.92969 16.9238 5.1416 23.1348 5.1416 30C5.1416 36.8652 7.92481 43.0762 12.4268 47.5781C16.9287 52.0801 23.1396 54.8633 30.0049 54.8633C36.8701 54.8633 43.0859 52.0801 47.583 47.5781C52.085 43.0762 54.8633 36.8652 54.8633 30C54.8633 28.3691 54.707 26.7676 54.4043 25.2246C55.6934 23.5449 57.0166 21.8652 58.3643 20.2051C59.4238 23.2715 60 26.5723 60 30C60 38.2812 56.6406 45.7861 51.2158 51.2109C45.7861 56.6406 38.2861 60 30.0049 60C21.7236 60 14.2236 56.6406 8.79395 51.2109C3.35938 45.7812 0 38.2812 0 30C0 21.7139 3.35938 14.2139 8.78418 8.78906C14.2139 3.35938 21.7139 0 30 0Z" fill="#3C3C3C"/>
</svg>
