<svg width="24" height="24" viewBox="0 0 24 24" fill="none" xmlns="http://www.w3.org/2000/svg">
<path fill-rule="evenodd" clip-rule="evenodd" d="M12 24C18.6274 24 24 18.6274 24 12C24 5.37258 18.6274 0 12 0C5.37258 0 0 5.37258 0 12C0 18.6274 5.37258 24 12 24Z" fill="#1AD598"/>
<path fill-rule="evenodd" clip-rule="evenodd" d="M16.8317 6.99856C16.5363 7.00784 16.2559 7.14065 16.0499 7.36868C14.2506 9.3118 12.6078 11.2178 10.8799 13.1192L8.84851 11.364C8.35809 10.9409 7.64215 11.0264 7.24951 11.555C6.85693 12.0835 6.93622 12.8553 7.4267 13.2784C7.42694 13.2784 7.42713 13.2786 7.42731 13.2786L10.2699 15.7295C10.7238 16.1194 11.3773 16.0779 11.786 15.6338C13.8308 13.4253 15.6627 11.2564 17.6608 9.09818C18.109 8.6243 18.1159 7.84818 17.6759 7.36503C17.4542 7.12162 17.1482 6.98857 16.8317 6.99857L16.8317 6.99856Z" fill="white"/>
</svg>
