<svg width="24" height="24" viewBox="0 0 24 24" fill="none" xmlns="http://www.w3.org/2000/svg">
<path d="M21.8395 9.36519C22.0306 6.74612 14.6988 1.8455 14.6988 4.05699V6.6283C13.4014 6.6137 12.1039 6.63228 10.8076 6.68402C10.4436 6.69259 10.0955 6.8345 9.82929 7.0828C9.56309 7.33111 9.39732 7.66852 9.36348 8.03098C9.29502 8.90188 9.29502 9.75049 9.36348 10.6214C9.39732 10.9838 9.56309 11.3213 9.82929 11.5696C10.0955 11.8179 10.4436 11.9598 10.8076 11.9683C11.5797 11.9986 12.336 12.0161 13.0875 12.0241C13.5139 12.0262 13.9223 12.1964 14.224 12.4977C14.5256 12.7991 14.6962 13.2073 14.6988 13.6337V14.5938C14.6988 16.7607 22.0545 11.8951 21.8395 9.36519Z" stroke="#4F5962" stroke-width="1.71" stroke-linecap="round" stroke-linejoin="round"/>
<path d="M2.1638 14.7305C1.97434 12.1098 9.30456 7.21077 9.30456 9.42067V10.3823C9.30456 11.2676 10.029 11.9824 10.9158 11.9904C11.6673 11.9983 12.4236 12.0175 13.1958 12.0477C13.5596 12.0566 13.9075 12.1986 14.1737 12.4469C14.4398 12.6951 14.6057 13.0323 14.6398 13.3947C14.7083 14.2656 14.7083 15.1142 14.6398 15.9851C14.606 16.3475 14.4402 16.6849 14.174 16.9332C13.9078 17.1815 13.5597 17.3235 13.1958 17.332C11.8994 17.3838 10.6019 17.4024 9.30456 17.3877V19.9591C9.30456 22.1244 1.94886 17.2604 2.1638 14.7305Z" stroke="#4F5962" stroke-width="1.71" stroke-linecap="round" stroke-linejoin="round"/>
</svg>
