<svg width="22" height="20" viewBox="0 0 22 20" fill="none" xmlns="http://www.w3.org/2000/svg">
<path d="M20.8394 7.36495C21.0304 4.74587 13.6986 -0.154743 13.6986 2.05674V4.62805C12.4013 4.61346 11.1038 4.63204 9.80743 4.68378C9.4435 4.69235 9.09538 4.83425 8.82917 5.08256C8.56297 5.33086 8.3972 5.66827 8.36336 6.03073C8.2949 6.90163 8.2949 7.75025 8.36336 8.62115C8.3972 8.98361 8.56297 9.32102 8.82917 9.56932C9.09538 9.81763 9.4435 9.95953 9.80743 9.9681C10.5796 9.99835 11.3359 10.0159 12.0874 10.0238C12.5138 10.0259 12.9222 10.1961 13.2238 10.4975C13.5255 10.7989 13.6961 11.2071 13.6986 11.6335V12.5935C13.6986 14.7605 21.0543 9.89486 20.8394 7.36495Z" stroke="#A4A9AE" stroke-width="1.71" stroke-linecap="round" stroke-linejoin="round"/>
<path d="M1.1638 12.7305C0.974335 10.1098 8.30456 5.21077 8.30456 7.42067V8.38232C8.30456 9.26755 9.02899 9.98242 9.91581 9.99038C10.6673 9.99835 11.4236 10.0175 12.1958 10.0477C12.5596 10.0566 12.9075 10.1986 13.1737 10.4469C13.4398 10.6951 13.6057 11.0323 13.6398 11.3947C13.7083 12.2656 13.7083 13.1142 13.6398 13.9851C13.606 14.3475 13.4402 14.6849 13.174 14.9332C12.9078 15.1815 12.5597 15.3235 12.1958 15.332C10.8994 15.3838 9.60189 15.4024 8.30456 15.3877V17.9591C8.30456 20.1244 0.948861 15.2604 1.1638 12.7305Z" stroke="#A4A9AE" stroke-width="1.71" stroke-linecap="round" stroke-linejoin="round"/>
</svg>
