<svg width="24" height="24" viewBox="0 0 24 24" fill="none" xmlns="http://www.w3.org/2000/svg">
<g clip-path="url(#clip0_12740_130894)">
<path d="M8.21054 11.7577C8.30351 11.8506 8.37727 11.9609 8.4276 12.0823C8.47792 12.2037 8.50382 12.3338 8.50382 12.4652C8.50382 12.5966 8.47792 12.7267 8.4276 12.8481C8.37727 12.9695 8.30351 13.0798 8.21054 13.1727L6.38354 15.0007H16.0035C16.2688 15.0007 16.5231 15.1061 16.7106 15.2936C16.8982 15.4811 17.0035 15.7355 17.0035 16.0007C17.0035 16.2659 16.8982 16.5203 16.7106 16.7078C16.5231 16.8953 16.2688 17.0007 16.0035 17.0007H6.38354L8.21154 18.8287C8.30445 18.9215 8.37816 19.0318 8.42847 19.1531C8.47878 19.2744 8.50469 19.4045 8.50474 19.5359C8.50479 19.6672 8.47896 19.7973 8.42874 19.9186C8.37852 20.04 8.30488 20.1503 8.21204 20.2432C8.11919 20.3361 8.00896 20.4098 7.88762 20.4601C7.76629 20.5104 7.63624 20.5364 7.50489 20.5364C7.37354 20.5365 7.24347 20.5106 7.1221 20.4604C7.00073 20.4102 6.89045 20.3365 6.79754 20.2437L3.26154 16.7077C3.07407 16.5202 2.96875 16.2659 2.96875 16.0007C2.96875 15.7355 3.07407 15.4812 3.26154 15.2937L6.79754 11.7577C6.98506 11.5702 7.23937 11.4649 7.50454 11.4649C7.7697 11.4649 8.02401 11.5702 8.21154 11.7577H8.21054ZM15.7965 3.7577C15.9687 3.58553 16.1978 3.4821 16.4409 3.46682C16.6839 3.45153 16.9241 3.52545 17.1165 3.67471L17.2105 3.7577L20.7465 7.29371C20.9187 7.4659 21.0221 7.695 21.0374 7.93802C21.0527 8.18105 20.9788 8.4213 20.8295 8.61371L20.7465 8.70771L17.2105 12.2427C17.0306 12.4221 16.7891 12.5262 16.5352 12.5339C16.2812 12.5417 16.0338 12.4525 15.8433 12.2845C15.6527 12.1164 15.5332 11.8822 15.5091 11.6292C15.485 11.3763 15.5581 11.1237 15.7135 10.9227L15.7965 10.8287L17.6235 9.00071H8.00354C7.74866 9.00042 7.5035 8.90283 7.31817 8.72786C7.13283 8.55289 7.0213 8.31375 7.00636 8.05931C6.99143 7.80487 7.07421 7.55433 7.2378 7.35887C7.40139 7.16342 7.63344 7.03781 7.88654 7.0077L8.00354 7.00071H17.6245L15.7965 5.17071C15.6091 4.98318 15.5037 4.72887 15.5037 4.4637C15.5037 4.19854 15.6091 3.94523 15.7965 3.7577Z" fill="#A4A9AE"/>
</g>
<defs>
<clipPath id="clip0_12740_130894">
<rect width="24" height="24" fill="white"/>
</clipPath>
</defs>
</svg>
