<svg width="107" height="107" viewBox="0 0 107 107" fill="none" xmlns="http://www.w3.org/2000/svg">
<g clip-path="url(#clip0_19575_202691)">
<mask id="mask0_19575_202691" style="mask-type:luminance" maskUnits="userSpaceOnUse" x="0" y="0" width="107" height="107">
<path d="M107 0H0V107H107V0Z" fill="white"/>
</mask>
<g mask="url(#mask0_19575_202691)">
<path d="M63.981 25.6193L56.8315 17.0686C49.6821 8.51786 39.1124 2.82689 27.1413 12.8361C15.1703 22.8453 18.153 33.3631 26.0489 42.8066L33.1983 51.3573" stroke="#3B2A6F" stroke-width="6" stroke-linecap="round"/>
<path d="M35.6245 48.3057H71.1307C81.0237 48.3057 89.0443 56.1479 89.0443 65.8225V86.5359C89.0443 96.2105 81.0237 104.053 71.1307 104.053H35.6245C25.7315 104.053 17.7109 96.2105 17.7109 86.5359V65.8225C17.7109 56.1479 25.7315 48.3057 35.6245 48.3057ZM53.3553 84.4583C55.4463 84.4583 57.1092 82.8265 57.1092 80.7846V71.5291C57.1092 69.5273 55.4463 67.9 53.3553 67.9C51.3089 67.9 49.646 69.5273 49.646 71.5291V80.7846C49.646 82.8265 51.3089 84.4583 53.3553 84.4583Z" fill="#A79FBE"/>
<path d="M83.7593 33.2653C84.8931 31.3841 86.2932 29.0618 87.0299 27.8375" stroke="#3B2A6F" stroke-width="2" stroke-linecap="round"/>
<path d="M91.4899 39.647C93.9991 37.7828 97.0909 35.4826 98.7216 34.2694" stroke="#3B2A6F" stroke-width="2" stroke-linecap="round"/>
<path d="M96.6099 49.0626C98.7856 48.4533 101.468 47.7029 102.885 47.3057" stroke="#3B2A6F" stroke-width="2" stroke-linecap="round"/>
</g>
</g>
<defs>
<clipPath id="clip0_19575_202691">
<rect width="107" height="107" fill="white"/>
</clipPath>
</defs>
</svg>
