<svg width="25" height="24" viewBox="0 0 25 24" fill="none" xmlns="http://www.w3.org/2000/svg">
<path d="M4 13C4 11.114 4 10.172 4.586 9.586C5.172 9 6.114 9 8 9H16C17.886 9 18.828 9 19.414 9.586C20 10.172 20 11.114 20 13V15C20 17.828 20 19.243 19.121 20.121C18.243 21 16.828 21 14 21H10C7.172 21 5.757 21 4.879 20.121C4 19.243 4 17.828 4 15V13Z" stroke="#A4A9AE" stroke-width="2"/>
<path d="M16 8V7C16 5.93913 16.4214 4.92172 17.1716 4.17157C17.9217 3.42143 18.9391 3 20 3C21.0609 3 22.0783 3.42143 22.8284 4.17157C23.5786 4.92172 24 5.93913 24 7V8" stroke="#A4A9AE" stroke-width="2" stroke-linecap="round"/>
</svg>
