<svg width="30" height="30" viewBox="0 0 30 30" fill="none" xmlns="http://www.w3.org/2000/svg">
<circle cx="15" cy="15" r="15" fill="#E5E9EB"/>
<path fill-rule="evenodd" clip-rule="evenodd" d="M13.8611 20.6667H16.6389C18.5896 20.6667 19.5649 20.6667 20.2655 20.19C20.5687 19.9836 20.8292 19.7185 21.0319 19.4097C21.5 18.6964 21.5 17.7033 21.5 15.7171C21.5 13.7311 21.5 12.738 21.0319 12.0246C20.8292 11.7158 20.5687 11.4507 20.2655 11.2443C19.8152 10.938 19.2517 10.8286 18.3887 10.7894C17.9769 10.7894 17.6224 10.4717 17.5417 10.0606C17.4205 9.44391 16.8887 9 16.2711 9H14.2289C13.6113 9 13.0795 9.44391 12.9583 10.0606C12.8776 10.4717 12.523 10.7894 12.1113 10.7894C11.2483 10.8286 10.6847 10.938 10.2345 11.2443C9.93122 11.4507 9.6708 11.7158 9.46814 12.0246C9 12.738 9 13.7311 9 15.7171C9 17.7033 9 18.6964 9.46814 19.4097C9.6708 19.7185 9.93122 19.9836 10.2345 20.19C10.9352 20.6667 11.9105 20.6667 13.8611 20.6667ZM15.25 13.0657C13.8118 13.0657 12.6458 14.2528 12.6458 15.7171C12.6458 17.1816 13.8118 18.3687 15.25 18.3687C16.6882 18.3687 17.8542 17.1816 17.8542 15.7171C17.8542 14.2528 16.6882 13.0657 15.25 13.0657ZM15.25 14.1263C14.3871 14.1263 13.6875 14.8385 13.6875 15.7171C13.6875 16.5958 14.3871 17.3081 15.25 17.3081C16.1129 17.3081 16.8125 16.5958 16.8125 15.7171C16.8125 14.8385 16.1129 14.1263 15.25 14.1263ZM18.2014 13.596C18.2014 13.3031 18.4346 13.0657 18.7222 13.0657H19.4167C19.7043 13.0657 19.9375 13.3031 19.9375 13.596C19.9375 13.8889 19.7043 14.1263 19.4167 14.1263H18.7222C18.4346 14.1263 18.2014 13.8889 18.2014 13.596Z" fill="#3B2A6F"/>
</svg>
