<svg width="24" height="24" viewBox="0 0 24 24" fill="none" xmlns="http://www.w3.org/2000/svg">
<path d="M3.01645 4.46289H20.9822C20.9822 4.46289 22.3482 4.46289 22.3482 5.82895V18.1712C22.3482 18.1712 22.3482 19.5373 20.9822 19.5373H3.01645C3.01645 19.5373 1.65039 19.5373 1.65039 18.1712V5.82895C1.65039 5.82895 1.65039 4.46289 3.01645 4.46289Z" stroke="#A4A9AE" stroke-width="1.71" stroke-linecap="round" stroke-linejoin="round"/>
<path d="M15.7559 10.2168H18.9192" stroke="#A4A9AE" stroke-width="1.71" stroke-linecap="round" stroke-linejoin="round"/>
<path d="M15.7559 13.3516H18.9192" stroke="#A4A9AE" stroke-width="1.71" stroke-linecap="round" stroke-linejoin="round"/>
<path d="M6.4375 10.7393C6.4375 12.1821 7.6071 13.3517 9.04989 13.3517C9.41463 13.3517 9.76191 13.277 10.0773 13.142C11.0093 12.7429 11.6623 11.8174 11.6623 10.7393C11.6623 9.29656 10.4927 8.12695 9.04989 8.12695C7.6071 8.12695 6.4375 9.29656 6.4375 10.7393Z" stroke="#A4A9AE" stroke-width="1.71" stroke-linecap="round" stroke-linejoin="round"/>
<path d="M5.08008 15.9371C5.49518 15.1475 6.07859 14.495 6.77421 14.0422C7.46984 13.5894 8.25429 13.3516 9.05214 13.3516C9.85001 13.3516 10.6345 13.5894 11.3301 14.0422C12.0257 14.495 12.6091 15.1475 13.0242 15.9371" stroke="#A4A9AE" stroke-width="1.71" stroke-linecap="round" stroke-linejoin="round"/>
</svg>
