<svg width="1120" height="156" viewBox="0 0 1120 156" fill="none" xmlns="http://www.w3.org/2000/svg">
<g clip-path="url(#clip0_17091_201467)">
<path d="M0 6C0 2.6863 2.68629 0 6 0H1114C1117.31 0 1120 2.68629 1120 6V150C1120 153.314 1117.31 156 1114 156H6C2.6863 156 0 153.314 0 150V6Z" fill="#3B2A6F"/>
<path opacity="0.2" d="M902.913 14.5424L908.513 69.7086L923.266 66.3185L928.585 11.9229L902.913 14.5424ZM935.155 10.0359L929.815 64.8136L981.424 52.9908L985.122 14.9157L935.155 10.0359ZM897.357 22.5814L873.194 30.9779L888.28 74.358L902.309 71.1343L897.357 22.5814ZM865.843 68.6301C861.879 69.541 859.928 73.1817 859.873 76.2418C859.847 77.7715 860.32 78.8963 860.877 79.4576C861.423 79.9852 862.1 80.3737 864.082 79.9183L882.041 75.7916L878.528 65.7153L865.843 68.6301ZM989.036 40.3217L987.965 51.4514L1004.34 47.6891C1003.05 46.1721 1002.25 44.4329 1002.07 42.5511C1001.9 40.7038 1002.22 38.9258 1002.76 37.1692L989.036 40.3217ZM861.716 86.9922L881.266 172.071C881.67 173.829 883.107 175.675 885.049 176.898C886.996 178.119 889.3 178.606 891.023 178.21L1023.39 147.829C1025.12 147.433 1026.96 145.993 1028.18 144.043C1029.41 142.094 1029.9 139.804 1029.49 138.047L1023.87 113.581L993.882 120.472C978.715 123.957 972.222 95.7008 987.389 92.2157L1017.38 85.3247L1009.94 52.9678L861.716 86.9922ZM988.814 98.4183C981.92 100.002 985.563 115.854 992.457 114.269L1000.14 112.503C996.74 111.907 993.864 109.339 993.048 105.789C992.233 102.24 993.699 98.6743 996.501 96.652L988.814 98.4183ZM1003.19 95.1154C1006.59 95.712 1009.47 98.2798 1010.28 101.829C1011.1 105.378 1009.63 108.944 1006.83 110.967L1027.96 106.111L1024.32 90.2601L1003.19 95.1154ZM1001.11 101.397C999.732 101.714 998.936 102.985 999.253 104.364C999.569 105.742 1000.84 106.538 1002.22 106.221C1003.6 105.905 1004.4 104.633 1004.08 103.255C1003.76 101.876 1002.49 101.08 1001.11 101.397Z" fill="#A79FBE"/>
</g>
<defs>
<clipPath id="clip0_17091_201467">
<path d="M0 6C0 2.6863 2.68629 0 6 0H1114C1117.31 0 1120 2.68629 1120 6V150C1120 153.314 1117.31 156 1114 156H6C2.6863 156 0 153.314 0 150V6Z" fill="white"/>
</clipPath>
</defs>
</svg>
