<svg width="171" height="146" viewBox="0 0 171 146" fill="none" xmlns="http://www.w3.org/2000/svg">
<path opacity="0.2" d="M43.9129 4.54242L49.513 59.7086L64.2659 56.3185L69.5846 1.92294L43.9129 4.54242ZM76.1548 0.0358801L70.8151 54.8136L122.424 42.9908L126.122 4.91565L76.1548 0.0358801ZM38.3572 12.5814L14.1945 20.9779L29.2795 64.358L43.3086 61.1343L38.3572 12.5814ZM6.84286 58.6301C2.87888 59.541 0.92844 63.1817 0.873166 66.2418C0.847252 67.7715 1.31984 68.8963 1.87703 69.4576C2.42285 69.9852 3.10003 70.3737 5.08202 69.9183L23.0406 65.7916L19.5276 55.7153L6.84286 58.6301ZM130.036 30.3217L128.965 41.4514L145.338 37.6891C144.046 36.1721 143.247 34.4329 143.069 32.5511C142.898 30.7038 143.215 28.9258 143.755 27.1692L130.036 30.3217ZM2.71568 76.9922L22.2659 162.071C22.6697 163.829 24.1065 165.675 26.0495 166.898C27.9959 168.119 30.2995 168.606 32.023 168.21L164.393 137.829C166.117 137.433 167.963 135.993 169.185 134.043C170.406 132.094 170.896 129.804 170.492 128.047L164.87 103.581L134.882 110.472C119.715 113.957 113.222 85.7008 128.389 82.2157L158.377 75.3247L150.942 42.9678L2.71568 76.9922ZM129.814 88.4183C122.92 90.0025 126.563 105.854 133.457 104.269L141.143 102.503C137.74 101.907 134.864 99.3387 134.048 95.7895C133.233 92.2402 134.699 88.6743 137.501 86.652L129.814 88.4183ZM144.188 85.1154C147.591 85.712 150.467 88.2798 151.283 91.8291C152.098 95.3784 150.632 98.9442 147.83 100.967L168.96 96.1112L165.318 80.2601L144.188 85.1154ZM142.111 91.3972C140.732 91.714 139.936 92.9854 140.253 94.3637C140.569 95.7421 141.841 96.5382 143.22 96.2214C144.599 95.9046 145.395 94.6332 145.078 93.2548C144.762 91.8765 143.49 91.0803 142.111 91.3972Z" fill="#A79FBE"/>
</svg>
